<?xml version="1.0" encoding="UTF-8"?>
<svg id="Layer_1" data-name="Layer 1" xmlns="http://www.w3.org/2000/svg" viewBox="0 0 449.42 390.45">
  <defs>
    <style>
      .cls-1, .cls-2, .cls-3, .cls-4, .cls-5, .cls-6, .cls-7, .cls-8, .cls-9, .cls-10, .cls-11, .cls-12, .cls-13, .cls-14, .cls-15, .cls-16, .cls-17, .cls-18, .cls-19, .cls-20, .cls-21, .cls-22, .cls-23, .cls-24, .cls-25, .cls-26, .cls-27, .cls-28, .cls-29, .cls-30, .cls-31 {
        stroke-width: 0px;
      }

      .cls-1, .cls-2, .cls-3, .cls-5, .cls-6, .cls-7, .cls-8, .cls-12, .cls-14, .cls-16, .cls-20, .cls-21, .cls-24, .cls-27, .cls-28, .cls-30, .cls-31 {
        isolation: isolate;
      }

      .cls-1, .cls-3, .cls-7, .cls-8, .cls-14, .cls-19, .cls-20, .cls-24, .cls-27, .cls-30 {
        fill: #fff;
      }

      .cls-1, .cls-5 {
        opacity: .8;
      }

      .cls-2, .cls-14 {
        opacity: .3;
      }

      .cls-3, .cls-32, .cls-28 {
        opacity: .4;
      }

      .cls-4, .cls-5 {
        fill: #407bff;
      }

      .cls-6, .cls-8 {
        opacity: .25;
      }

      .cls-7 {
        opacity: .7;
      }

      .cls-9 {
        fill: #37474f;
      }

      .cls-10 {
        fill: #e0e0e0;
      }

      .cls-11 {
        fill: #b16668;
      }

      .cls-12, .cls-20 {
        opacity: .2;
      }

      .cls-13 {
        fill: #ffbda7;
      }

      .cls-15 {
        fill: #f0f0f0;
      }

      .cls-16 {
        opacity: .5;
      }

      .cls-17 {
        fill: #ffa8a7;
      }

      .cls-18 {
        fill: #9a4a4d;
      }

      .cls-21 {
        opacity: .15;
      }

      .cls-22 {
        fill: #fafafa;
      }

      .cls-23 {
        fill: #f28f8f;
      }

      .cls-24, .cls-33 {
        opacity: .55;
      }

      .cls-25 {
        fill: #263238;
      }

      .cls-26 {
        fill: #f0997a;
      }

      .cls-27 {
        opacity: .35;
      }

      .cls-29 {
        fill: #455a64;
      }

      .cls-30, .cls-31 {
        opacity: .1;
      }
    </style>
  </defs>
  <g id="freepik--agile-method--inject-17">
    <g id="freepik--Launch--inject-17">
      <path class="cls-4" d="m379.84,171.82l-176.06,101.73c-15.37,8.9-28,5.79-34.85-6.72,5.16-.57,10.13-2.28,14.55-5l176-101.71,20.36,11.7Z"/>
      <path class="cls-24" d="m379.84,171.82l-176.06,101.73c-15.37,8.9-28,5.79-34.85-6.72,5.16-.57,10.13-2.28,14.55-5l176-101.71,20.36,11.7Z"/>
      <path class="cls-4" d="m386.8,185.3l-7,21.54-167.61,96.86c-19.35,11.17-37.07,11.92-50.66,4.1h-.11l-.3-.18c-13.16-7.81-22.39-23.73-25.38-46l18,3.17,10.93-10.28c0,.27.1.54.16.82.81,4,2.19,7.87,4.11,11.47h0c6.82,12.51,19.48,15.62,34.85,6.72l176.05-101.71,6.96,13.49Z"/>
      <path class="cls-3" d="m386.8,185.3l-7,21.54-167.61,96.86c-19.35,11.17-37.07,11.92-50.66,4.1h-.11l-.3-.18c-13.16-7.81-22.39-23.73-25.38-46l18,3.17,10.93-10.28c0,.27.1.54.16.82.81,4,2.19,7.87,4.11,11.47h0c6.82,12.51,19.48,15.62,34.85,6.72l176.05-101.71,6.96,13.49Z"/>
      <path class="cls-4" d="m161.11,307.55c-2.63-1.51-17.08-9.87-19.88-11.49-13.39-7.7-22.79-23.72-25.8-46.27l20.3,11.76c2.99,22.28,12.21,38.2,25.38,46Z"/>
      <path class="cls-24" d="m161.11,307.55c-2.63-1.51-17.08-9.87-19.88-11.49-13.39-7.7-22.79-23.72-25.8-46.27l20.3,11.76c2.99,22.28,12.21,38.2,25.38,46Z"/>
      <polygon class="cls-4" points="164.68 254.41 144.38 242.68 133.45 252.96 115.43 249.79 135.73 261.53 153.75 264.69 164.68 254.41"/>
      <polygon class="cls-20" points="164.68 254.41 144.38 242.68 133.45 252.96 115.43 249.79 135.73 261.53 153.75 264.69 164.68 254.41"/>
      <polygon class="cls-4" points="133.45 252.96 153.75 264.69 135.73 261.53 115.43 249.79 133.45 252.96"/>
      <path class="cls-19" d="m322.63,225.68c.07-.04.15-.04.22,0,.06.06.1.15.09.24v1.1c0,.12-.03.24-.09.35-.05.1-.12.19-.22.25l-5.08,2.93c-.06.05-.16.05-.22,0-.06-.06-.1-.15-.09-.24v-10c0-.12.03-.24.09-.35.05-.1.12-.19.22-.25l.94-.54c.07-.04.15-.04.22,0,.06.06.1.15.09.24v8.48l3.83-2.21Z"/>
      <path class="cls-19" d="m328.74,213.26c.13-.07.22-.08.28,0,.08.08.14.19.16.3l2.85,8.13v.1c0,.12-.03.24-.09.35-.05.1-.13.19-.22.25l-.84.48c-.15.09-.26.11-.33.06-.06-.05-.1-.11-.12-.18l-.5-1.43-3.67,2.11-.5,2c-.03.11-.07.23-.12.33-.08.13-.19.25-.33.32l-.83.48c-.06.05-.16.05-.22,0-.08-.06-.11-.15-.1-.24,0-.04,0-.07,0-.11l2.84-11.42c.03-.17.09-.33.16-.49.06-.12.16-.23.28-.29l1.3-.75Zm.64,6.42l-1.27-3.67-1.28,5.14,2.55-1.47Z"/>
      <path class="cls-19" d="m340.07,206.72c.06-.05.16-.05.22,0,.07.06.1.15.09.24v6.34c0,.62-.07,1.24-.21,1.85-.14.59-.35,1.16-.63,1.69-.26.53-.6,1.02-1,1.46-.43.45-.92.83-1.45,1.14-.44.28-.94.46-1.46.54-.35.04-.71-.05-1-.26-.31-.25-.53-.61-.62-1-.15-.53-.22-1.07-.21-1.62v-6.34c0-.12.03-.24.09-.34.05-.1.13-.19.23-.25l.93-.55c.07-.05.16-.05.23,0,.06.06.1.15.09.24v6.26c-.01.34.03.68.13,1,.05.21.18.4.36.53.16.1.36.13.55.09.25-.04.49-.14.71-.27.26-.15.5-.34.71-.55.22-.22.42-.47.57-.74.16-.3.28-.61.36-.94.09-.38.14-.77.13-1.16v-6.23c0-.12.04-.24.1-.34.04-.11.12-.19.22-.25l.86-.54Z"/>
      <path class="cls-19" d="m348.27,212.81c-.14.08-.24.09-.31,0l-.15-.13-3.24-4.56v6.43c0,.12-.04.24-.1.35-.05.1-.12.19-.22.25l-.94.54c-.06.05-.16.05-.22,0-.07-.06-.1-.15-.09-.24v-10c0-.12.03-.24.09-.34.05-.1.12-.19.22-.26l.82-.46c.13-.08.23-.09.3,0,.05.04.1.08.15.13l3.24,4.56v-6.37c0-.12.04-.24.1-.35.05-.1.12-.19.22-.25l.94-.54c.07-.04.15-.04.22,0,.06.06.1.15.09.24v10c0,.12-.03.24-.09.35-.05.1-.12.19-.22.25l-.81.4Z"/>
      <path class="cls-19" d="m357.06,204.3c0-.13.05-.26.12-.37.05-.09.13-.17.22-.23l.93-.54c.07-.05.16-.05.23,0,.07,0,.09.12.09.25-.04.48-.12.95-.24,1.41-.15.52-.35,1.03-.62,1.5-.29.52-.65,1-1.06,1.44-.45.48-.97.89-1.54,1.22-.43.27-.91.44-1.41.5-.36.02-.71-.08-1-.28-.32-.26-.55-.61-.67-1-.17-.5-.26-1.02-.28-1.55v-2.6c.03-.63.13-1.26.28-1.88.16-.6.38-1.19.67-1.74.27-.53.61-1.03,1-1.48.41-.45.88-.83,1.41-1.14.47-.3.99-.49,1.54-.56.37-.04.74.03,1.06.22.29.19.5.47.62.8.13.36.21.74.24,1.12,0,.24-.12.47-.32.6l-.93.54c-.07.03-.16.03-.23,0-.08-.05-.12-.14-.12-.23-.02-.18-.08-.35-.17-.51-.07-.14-.19-.26-.34-.32-.18-.07-.37-.09-.56-.06-.28.05-.55.16-.79.31-.3.17-.57.38-.79.64-.22.25-.41.52-.56.82-.16.3-.27.61-.35.94-.08.33-.13.66-.14,1v2.59c0,.29.05.57.14.84.06.21.18.39.35.53.16.12.36.19.56.17.28-.02.56-.11.79-.27.29-.16.56-.36.79-.6.21-.21.4-.45.56-.7.14-.23.26-.48.36-.73.08-.21.13-.43.16-.65Z"/>
      <path class="cls-19" d="m367.2,191.06c.07-.04.15-.04.22,0,.06.06.1.15.09.24v10c0,.12-.03.24-.09.35-.05.1-.12.19-.22.25l-.94.54c-.07.04-.15.04-.22,0-.07-.06-.11-.15-.1-.24v-4.09l-3.5,2v4.08c0,.12-.03.24-.09.35-.05.1-.12.19-.22.25l-.94.54c-.07.04-.15.04-.22,0-.07,0-.1-.12-.1-.25v-10c0-.12.03-.24.1-.34.04-.11.12-.19.22-.25l.94-.55c.06-.05.16-.05.22,0,.06.06.1.15.09.24v4l3.5-2v-4c0-.12.04-.24.1-.35.05-.1.12-.19.22-.25l.94-.52Z"/>
    </g>
    <g id="freepik--Review--inject-17">
      <path class="cls-4" d="m134.69,245.17c-.03,5.48.31,10.95,1,16.38l-20.3-11.73c-.71-5.43-1.07-10.9-1.05-16.38,0-22.54,9.37-49.65,25.2-74.17l20.4,11.73c-15.88,24.55-25.25,51.62-25.25,74.17Z"/>
      <path class="cls-3" d="m134.69,245.17c-.03,5.48.31,10.95,1,16.38l-20.3-11.73c-.71-5.43-1.07-10.9-1.05-16.38,0-22.54,9.37-49.65,25.2-74.17l20.4,11.73c-15.88,24.55-25.25,51.62-25.25,74.17Z"/>
      <path class="cls-4" d="m164.68,254.42l-10.93,10.28-18-3.17c-.69-5.43-1.03-10.9-1-16.38,0-22.55,9.37-49.65,25.2-74.17l7.35,16.92,16.14,1c-9.54,14.49-16.29,30.18-18.77,44.56-1.27,6.93-1.26,14.03.01,20.96Z"/>
      <path class="cls-8" d="m164.68,254.42l-10.93,10.28-18-3.17c-.69-5.43-1.03-10.9-1-16.38,0-22.55,9.37-49.65,25.2-74.17l7.35,16.92,16.14,1c-9.54,14.49-16.29,30.18-18.77,44.56-1.27,6.93-1.26,14.03.01,20.96Z"/>
      <polygon class="cls-4" points="163.07 177.21 183.38 188.93 167.24 187.9 162.59 177.21 163.07 177.21"/>
      <path class="cls-25" d="m164.68,254.42c-3.05,3.2-7.59,7.6-10.78,10.75h-.22l-9-1.5c-2.61-.43-6.35-1.17-9-1.64-6.86-3.93-13.62-8.1-20.36-12.26,6.7,3.59,14.5,7.82,20.52,11.33,2.67.46,6.4,1.05,9,1.53l9,1.68-.38.11c3.26-3,7.92-7.14,11.23-10h0Z"/>
      <path class="cls-19" d="m164.14,203.14c-.38.92-.97,1.73-1.73,2.37-.57.47-1.32.69-2.05.58-.44-.04-.85-.28-1.1-.64-.24-.43-.31-.92-.21-1.4l-3.38,1.39s-.09,0-.13,0c-.06,0-.11-.05-.13-.11-.03-.07-.03-.14,0-.21l.5-1.1c.06-.14.15-.27.27-.37.08-.06.17-.11.26-.14l3.19-1.32.79-1.72-2.42-.38c-.07,0-.13-.06-.15-.13-.04-.08-.04-.18,0-.26l.47-1c.05-.09.12-.18.2-.24.07-.05.15-.08.24-.07l6.71,1.05c.07,0,.13.06.15.13.03.08.03.18,0,.26l-1.48,3.31Zm-2.39-2.45l-.81,1.86c-.19.38-.3.79-.33,1.21,0,.31.21.5.59.56.37.09.75-.03,1-.32.31-.34.56-.73.74-1.15l.85-1.87-2.04-.29Z"/>
      <path class="cls-19" d="m153.14,214.8c-.04.1-.1.18-.18.25-.07.06-.16.1-.25.11h-.77c-.07,0-.14-.04-.17-.1-.03-.08-.03-.17,0-.25l2.11-5.71c.03-.1.1-.19.18-.25.07-.06.16-.1.25-.1l7.2-.14c.07,0,.14.04.17.1.03.08.03.17,0,.25l-2.1,5.59c-.04.1-.1.18-.18.25-.07.06-.16.1-.25.11h-.79c-.07,0-.14-.03-.17-.1-.04-.08-.04-.17,0-.25l1.55-4.2h-1.78l-1.44,3.92c-.03.1-.09.19-.18.25-.07.06-.16.1-.25.11h-.79c-.07,0-.14-.03-.17-.1-.04-.07-.04-.17,0-.24l1.44-3.92h-1.85l-1.58,4.42Z"/>
      <path class="cls-19" d="m151.94,221.42l5,1.25c.06.02.12.05.16.1v.28l-.28,1c-.03.1-.08.19-.16.26-.07.07-.16.12-.25.14h-.07l-6.54-1.68c-.09-.02-.18-.06-.24-.13v-.3l.29-1c.03-.13.1-.24.19-.33.11-.09.23-.16.35-.22l8.19-4.11h.13c.07-.02.15,0,.19.07.04.07.04.15,0,.22l-.28,1c-.03.11-.09.22-.18.3-.07.06-.15.12-.23.17l-6.27,2.98Z"/>
      <path class="cls-19" d="m147.75,228.95c.03-.1.08-.19.15-.27.07-.07.15-.13.25-.16l7.78-2.11c.06-.04.15-.04.21,0,.04.07.04.15,0,.22l-.22,1c-.02.1-.08.19-.15.26-.07.08-.15.14-.25.17l-7.78,2.11c-.1.03-.22-.02-.25-.13-.01-.04-.01-.09,0-.13l.26-.96Z"/>
      <path class="cls-19" d="m147.39,239.05c-.02.1-.07.2-.14.28-.06.08-.15.15-.25.18l-.87.33c-.07.04-.15.04-.22,0-.05-.05-.08-.12-.06-.19l.82-5.46c.02-.1.07-.19.14-.27.07-.08.15-.15.25-.19l7.93-3c.07-.04.15-.04.22,0,.06.05.09.13.07.2l-.81,5.35c-.02.1-.07.2-.14.28-.06.08-.15.15-.25.18l-.87.33c-.07.04-.15.04-.22,0-.05-.05-.08-.12-.06-.19l.61-4-2,.72-.56,3.74c-.02.1-.07.19-.14.27-.06.08-.14.15-.24.19l-.88.32c-.09.05-.21.02-.26-.07-.02-.04-.03-.09-.02-.14l.57-3.74-2,.76-.62,4.12Z"/>
      <path class="cls-19" d="m149.46,244.91l-3.7.95c-.1.02-.2.02-.3,0-.07,0-.11-.08-.11-.2v-.95c0-.12.04-.24.12-.34.09-.11.19-.22.31-.3l7.93-5.64.1-.07c.07-.03.16-.03.23,0,.07.03.11.1.09.17v.87c0,.09-.03.19-.08.27-.07.11-.16.21-.27.28l-5.32,3.77,3.3-.89h.22c.09,0,.13.08.13.22v1c0,.14-.06.27-.15.37-.07.08-.15.16-.23.23l-3.36,2.62,5.26-1.79c.12-.05.21,0,.25,0,.05.05.08.11.07.18v.87c0,.1-.05.2-.11.28-.06.09-.14.17-.24.22h-.1l-7.82,2.64c-.1.03-.2.03-.3,0-.07,0-.11-.09-.11-.21v-.95c0-.12.04-.24.12-.33.1-.11.2-.21.31-.31l3.76-2.96Z"/>
    </g>
    <g id="freepik--Deploy--inject-17">
      <path class="cls-4" d="m233.55,142.94c-19.36,9-37.3,26.42-50.17,46l-16.14-1-7.3-16.96c17.75-27.53,43.65-51.83,73.58-62.8l-6.87,21.27,6.9,13.49Z"/>
      <path class="cls-4" d="m233.47,108.17h0c-29.93,11-55.83,35.27-73.58,62.8h0l-20.3-11.71c17.76-27.54,43.66-51.82,73.6-62.8l20.28,11.71Z"/>
      <path class="cls-8" d="m233.47,108.17h0c-29.93,11-55.83,35.27-73.58,62.8h0l-20.3-11.71c17.76-27.54,43.66-51.82,73.6-62.8l20.28,11.71Z"/>
      <path class="cls-25" d="m183.38,188.93c-4.66,0-11.44-.39-16.17-.59h-.27l-.11-.25c-2.2-4.88-5.36-12.05-7.39-16.93-5.54-2.93-13.59-8.09-19.88-11.91,6.92,3.67,13.77,7.43,20.56,11.3.15.08.13.07.19.22,2.18,4.78,5.28,12,7.33,17l-.37-.27c4.73.38,11.45,1,16.11,1.47v-.04Z"/>
      <path class="cls-22" d="m180.31,162.19c.27-.39.61-.73,1-1,.33-.23.7-.38,1.1-.44.38-.06.77-.04,1.14.07.41.12.81.3,1.17.54.45.31.89.63,1.31,1,.34.28.63.62.86,1,.44.66.55,1.48.31,2.23-.14.45-.36.87-.65,1.24l-1.61,2.17c-.09.13-.27.16-.4.07,0,0-.01,0-.02-.01l-5.74-4.26c-.06-.04-.11-.11-.12-.19-.01-.08.01-.16.06-.22l1.59-2.2Zm3.53.36c-.19-.12-.4-.21-.61-.28-.21-.04-.42-.04-.63,0-.22.04-.44.12-.63.25-.23.16-.43.35-.59.58l-.88,1.19,4,3,.91-1.24c.17-.21.29-.45.37-.7.04-.22.04-.44,0-.66-.03-.21-.11-.41-.23-.58-.12-.19-.27-.36-.45-.51-.37-.42-.81-.74-1.26-1.05Z"/>
      <path class="cls-22" d="m191.82,158.11c.05-.06.13-.1.21-.1.08,0,.15.02.21.07l.6.51c.06.05.1.13.1.21,0,.08-.02.15-.07.21l-3.16,3.69c-.05.06-.13.09-.21.1-.08,0-.16-.02-.22-.07l-5.42-4.65c-.06-.05-.09-.13-.1-.21,0-.08.02-.16.07-.22l3.11-3.61c.05-.06.12-.1.2-.11.08,0,.15.02.21.07l.6.52c.06.05.1.12.1.2.01.08-.01.16-.07.22l-2.32,2.71,1.33,1.14,2.17-2.52c.05-.06.12-.1.2-.1.08-.01.16.01.22.07l.6.51c.06.05.09.12.1.2,0,.08-.02.16-.07.22l-2.17,2.53,1.4,1.19,2.38-2.78Z"/>
      <path class="cls-22" d="m190.86,149.91c.49-.57,1.17-.94,1.91-1.05,1.43.03,2.59,1.17,2.64,2.6-.09.75-.44,1.44-1,1.94l-1.24,1.26,1.76,1.73c.06.05.09.13.09.21,0,.08-.03.15-.08.21l-.63.64c-.11.12-.29.12-.41,0,0,0,0,0,0,0l-5.1-5c-.11-.12-.11-.3,0-.42l2.07-2.12Zm1.33,3.78l1.2-1.22c.26-.24.44-.55.52-.9.03-.33-.1-.66-.35-.87-.22-.25-.55-.38-.88-.34-.34.1-.64.3-.87.56l-1.2,1.22,1.58,1.55Z"/>
      <path class="cls-22" d="m202.32,147.93c.06-.05.13-.08.21-.08.08,0,.16.04.21.1l.52.59c.05.06.08.13.07.21,0,.08-.03.16-.1.21l-3.62,3.22c-.12.1-.3.1-.42,0l-4.75-5.35c-.05-.06-.08-.13-.07-.21,0-.08.04-.16.1-.21l.67-.59c.06-.05.13-.08.21-.08.08,0,.16.04.21.1l4,4.53,2.76-2.44Z"/>
      <path class="cls-22" d="m201.13,144.38c-.23-.33-.41-.69-.52-1.08-.11-.36-.15-.74-.1-1.12.06-.39.19-.77.4-1.11.54-.8,1.33-1.41,2.24-1.72.76-.23,1.58-.12,2.25.3.34.21.64.47.9.78l.3.36.32.42.31.42c.1.13.19.26.27.38.23.33.4.69.52,1.07.11.36.15.74.1,1.12-.06.39-.2.77-.41,1.11-.27.39-.61.73-1,1-.38.3-.81.53-1.27.68-.38.12-.78.15-1.18.1-.37-.06-.73-.19-1.05-.39-.34-.21-.64-.48-.9-.79l-.3-.36-.32-.41-.31-.42-.25-.34Zm4-3c-.53-.73-1.56-.9-2.29-.36-.04.03-.09.07-.13.1-.75.49-.97,1.5-.48,2.26.03.05.06.09.1.13.16.24.34.49.55.76s.4.52.58.73c.28.37.7.61,1.16.67.45.02.9-.13,1.25-.42.37-.26.64-.65.73-1.09.06-.46-.06-.92-.34-1.29-.16-.23-.34-.49-.55-.76s-.38-.56-.56-.73h-.02Z"/>
      <path class="cls-22" d="m211.08,133.93c.07-.02.15-.02.22,0,.08.02.15.07.19.14,0,.03,0,.06,0,.09l.25,5.3,1.29,2.06c.09.13.05.31-.08.4,0,0,0,0-.01,0l-.75.48c-.07.03-.15.03-.22,0-.08-.02-.15-.06-.19-.13l-1.3-2.06-4.68-2.5-.07-.07c-.02-.07-.02-.16,0-.23.02-.07.07-.14.13-.18l.71-.45c.1-.07.22-.1.34-.08.07.01.14.04.2.07l3.18,1.69-.15-3.6c-.01-.07-.01-.14,0-.21.04-.12.11-.22.22-.28l.72-.45Z"/>
    </g>
    <g id="freepik--Test--inject-17">
      <path class="cls-4" d="m285.06,179.71l-20.31-11.71c.7-13.5-1.31-24.2-5.37-31.6h1.49c15.67-.32,25.61,15.68,24.19,43.31Z"/>
      <path class="cls-20" d="m285.06,179.71l-20.31-11.71c.7-13.5-1.31-24.2-5.37-31.6h1.49c15.67-.32,25.61,15.68,24.19,43.31Z"/>
      <path class="cls-4" d="m286.52,106.73c-5.84-3.2-12.4-4.84-19.05-4.78-11.61.05-23.12,2.16-34,6.22l-20.29-11.72c10.88-4.07,22.39-6.18,34-6.22,7.09-.01,14.06,1.86,20.19,5.42l19.15,11.08Z"/>
      <path class="cls-30" d="m286.52,106.73c-5.84-3.2-12.4-4.84-19.05-4.78-11.61.05-23.12,2.16-34,6.22l-20.29-11.72c10.88-4.07,22.39-6.18,34-6.22,7.09-.01,14.06,1.86,20.19,5.42l19.15,11.08Z"/>
      <path class="cls-4" d="m287.65,107.37s-.05,0-.07,0h0s-.05,0-.07,0h0c-.12-.07-.24-.15-.37-.21h0c-.17-.1-.35-.21-.53-.3-5.84-3.2-12.4-4.84-19.05-4.78-11.61.05-23.12,2.16-34,6.22h0l-6.87,21.27,7,13.49c8.07-3.93,16.86-6.16,25.83-6.54h1.49c15.67-.29,25.61,15.71,24.19,43.34h0l15-15.36,13.7-1.23c-1.49-27.53-11.32-46.99-26.25-55.9Z"/>
      <path class="cls-31" d="m287.65,107.37s-.05,0-.07,0h0s-.05,0-.07,0h0c-.12-.07-.24-.15-.37-.21h0c-.17-.1-.35-.21-.53-.3-5.84-3.2-12.4-4.84-19.05-4.78-11.61.05-23.12,2.16-34,6.22h0l-6.87,21.27,7,13.49c8.07-3.93,16.86-6.16,25.83-6.54h1.49c15.67-.29,25.61,15.71,24.19,43.34h0l15-15.36,13.7-1.23c-1.49-27.53-11.32-46.99-26.25-55.9Z"/>
      <path class="cls-25" d="m233.54,142.93c-2.24-3.84-5.26-9.48-7.42-13.44,1.95-6.26,4.83-15.34,6.91-21.47l.21.55c-6.74-3.96-13.43-8-20.08-12.13,6.91,3.68,13.76,7.45,20.55,11.32l.32.19-.11.36c-1.87,6.08-4.86,15.16-6.91,21.27v-.34c2,4,4.74,9.69,6.55,13.69h-.02Z"/>
      <path class="cls-19" d="m276.4,119.98c.06,0,.09.07.1.17,0,.11-.02.21-.07.31l-.49,1.09c-.05.1-.12.2-.21.27-.05.06-.13.09-.21.09l-1.52-.39-3.85,8.38c-.04.11-.11.2-.2.27-.08.07-.15.1-.21.08l-.69-.17c-.06,0-.09-.07-.1-.17,0-.1.02-.21.07-.3l3.84-8.38-1.51-.39c-.07,0-.1-.07-.11-.16,0-.11.02-.21.07-.31l.5-1.09c.04-.11.11-.2.2-.27.08-.07.15-.1.21-.08l4.18,1.05Z"/>
      <path class="cls-19" d="m277.57,131.36c.06.04.09.12.07.19,0,.11-.04.23-.1.32l-.59,1c-.05.1-.13.19-.22.25-.06.04-.15.04-.21,0l-3.27-1.78c-.06-.04-.09-.12-.07-.19,0-.11.03-.22.09-.32l5.41-9.54c.05-.09.12-.18.21-.24.06-.05.14-.07.21-.05l3.22,1.75c.06.05.09.13.07.2,0,.11-.04.22-.1.31l-.59,1.05c-.05.1-.13.18-.22.25-.06.04-.15.04-.21,0l-2.41-1.31-1.33,2.35,2.25,1.22c.06.04.09.12.07.19,0,.11-.04.23-.1.32l-.59,1c-.05.1-.12.19-.22.25-.06.04-.15.04-.21,0l-2.24-1.03-1.39,2.45,2.47,1.36Z"/>
      <path class="cls-19" d="m286.37,125.94c.28.27.47.62.56,1,.1.37.13.76.1,1.14-.04.39-.12.77-.26,1.13-.11.35-.27.69-.47,1-.05.1-.13.18-.23.23h-.19l-.44-.42c-.06-.06-.1-.15-.1-.24.02-.12.04-.23.08-.34.1-.28.14-.58.13-.88,0-.31-.15-.6-.38-.8-.1-.1-.23-.17-.36-.22-.13-.04-.28-.04-.41,0-.15.03-.29.1-.41.19-.16.11-.29.25-.39.41-.13.17-.23.37-.3.57-.06.17-.07.36-.05.54.04.22.1.43.18.63.1.23.22.52.37.85.16.33.28.69.35,1.05.05.33.05.67,0,1-.05.34-.15.68-.29,1-.17.38-.38.75-.62,1.09-.26.37-.58.71-.93,1-.3.25-.63.44-1,.57-.33.09-.67.09-1,0-.35-.08-.66-.26-.91-.51-.24-.23-.42-.52-.53-.83-.13-.35-.19-.72-.19-1.09,0-.42.07-.84.2-1.24.14-.45.35-.87.61-1.26.05-.1.13-.18.23-.23.06-.04.13-.04.19,0l.44.43c.06.06.1.15.1.24,0,.12-.04.23-.08.34l-.15.46c-.04.16-.06.32-.05.48,0,.17.05.33.11.49.07.18.19.34.33.47.12.12.25.22.4.29.14.07.29.1.45.09.16-.02.32-.07.46-.16.18-.12.33-.27.45-.45.13-.17.22-.37.26-.58.04-.19.04-.4,0-.59-.07-.24-.15-.47-.26-.69-.11-.25-.24-.55-.38-.9-.12-.3-.21-.61-.27-.93-.04-.31-.04-.62,0-.93.06-.35.17-.68.32-1,.19-.4.42-.78.67-1.14.26-.37.57-.71.92-1,.29-.25.63-.44,1-.56.3-.11.62-.14.93-.09.3.05.58.18.81.39Z"/>
      <path class="cls-19" d="m291.94,133.68c.04.08.04.16,0,.24-.03.11-.09.22-.16.31l-.76.89c-.06.08-.15.14-.24.18-.06.03-.13,0-.17-.05l-.87-1.41-5.8,6.89c-.06.08-.14.14-.24.17-.05.04-.12.04-.17,0l-.39-.64c-.04-.08-.04-.17,0-.25.03-.11.08-.21.16-.3l5.82-6.89-.87-1.41c-.03-.08-.03-.17,0-.25.03-.11.08-.21.16-.3l.75-.9c.06-.08.15-.14.24-.17.09,0,.15,0,.18.05l2.36,3.84Z"/>
    </g>
    <g id="freepik--Develop--inject-17">
      <polygon class="cls-4" points="269.12 239.73 284.51 241.1 291.4 255.62 271.1 243.91 269.12 239.73"/>
      <polygon class="cls-28" points="269.12 239.73 284.51 241.1 291.4 255.62 271.1 243.91 269.12 239.73"/>
      <path class="cls-4" d="m285.06,179.71c0,.36,0,.71-.05,1.06-1.17,19.17-7.51,40.23-16.83,58.88l-20.3-11.72c9.32-18.65,15.66-39.72,16.82-58.88,0-.35,0-.7.05-1.05l20.31,11.71Z"/>
      <path class="cls-4" d="m313.94,169.78c0,28.42-8.61,59.14-22.54,85.84l-6.89-14.52-16.33-1.45c9.32-18.65,15.66-39.71,16.83-58.88,0-.35,0-.7.05-1.06h0l15-15.36,13.7-1.23c.12,2.16.18,4.43.18,6.66Z"/>
      <path class="cls-12" d="m313.94,169.78c0,28.42-8.61,59.14-22.54,85.84l-6.89-14.52-16.33-1.45c9.32-18.65,15.66-39.71,16.83-58.88,0-.35,0-.7.05-1.06h0l15-15.36,13.7-1.23c.12,2.16.18,4.43.18,6.66Z"/>
      <path class="cls-25" d="m264.7,167.96c6.95,3.63,13.81,7.44,20.62,11.33l-.61.08,3.73-3.82c3.51-3.54,7.81-7.95,11.36-11.41l.11-.1h.13c4.57-.34,9.15-.64,13.73-.86-4.14.46-10.21,1.41-13.43,1.49-3.37,3.63-7.69,8-11.14,11.64l-3.78,3.82-.27.27c-6.88-4-13.72-8.1-20.45-12.38v-.06Z"/>
      <path class="cls-19" d="m284.84,224.34c.16-.43.39-.83.68-1.18.27-.3.59-.54.95-.72.37-.17.77-.26,1.18-.28.45-.03.91.01,1.35.11.56.12,1.12.26,1.66.44.42.13.82.32,1.19.56.31.21.58.48.77.8.18.3.29.65.3,1,0,.43-.07.87-.23,1.27l-.91,2.44c-.03.07-.08.13-.15.16-.08.02-.16.02-.24,0l-7.23-1.91c-.08-.02-.14-.07-.18-.14-.04-.07-.04-.14,0-.21l.86-2.34Zm3.68-.77c-.24-.03-.47-.03-.71,0-.22.01-.45.07-.65.16-.21.09-.39.23-.54.4-.17.2-.31.43-.4.68l-.48,1.3,5,1.33.5-1.34c.09-.23.14-.47.13-.72,0-.2-.07-.4-.17-.58-.11-.18-.26-.33-.43-.44-.2-.13-.41-.23-.63-.3-.51-.22-1.06-.36-1.62-.51v.02Z"/>
      <path class="cls-19" d="m294.48,216.69c.03-.08.09-.14.16-.17.08-.03.16-.03.24,0l.8.19c.08.02.15.06.19.13.03.06.03.14,0,.2l-1.41,4.29c-.02.08-.08.14-.15.17-.08.03-.16.03-.24,0l-7.3-1.69c-.08-.02-.15-.06-.19-.13-.03-.07-.03-.14,0-.21l1.38-4.21c.02-.07.08-.13.15-.16.08-.03.16-.03.24,0l.8.18c.08.02.15.06.19.13.04.06.04.15,0,.21l-1,3.15,1.8.42,1-2.94c.02-.08.08-.14.15-.17.08-.02.16-.02.24,0l.81.18c.08.02.14.06.18.13.04.06.04.15,0,.21l-1,2.94,1.88.43,1.08-3.28Z"/>
      <path class="cls-19" d="m295.04,211.88l-5-2.76c-.06-.04-.11-.09-.16-.14-.04-.07-.04-.17,0-.24l.22-.75c.02-.07.07-.13.14-.17.08-.02.16-.02.24,0h.07l6.53,3.66c.1.05.18.11.25.19.04.08.04.18,0,.26l-.23.79c-.02.09-.08.17-.16.21-.1.05-.22.08-.33.08l-7.81.76h-.12c-.08,0-.15-.05-.2-.12-.03-.06-.03-.14,0-.2l.21-.75c.02-.09.09-.17.17-.21l.21-.06,5.97-.55Z"/>
      <path class="cls-19" d="m298.35,202.73c.02-.07.07-.13.14-.17.08-.03.16-.03.24,0l.82.14c.08,0,.15.05.19.12.05.05.07.13.05.2l-1.1,4.35c-.02.08-.07.14-.14.18-.08.02-.16.02-.24,0l-7.37-1.3c-.08,0-.15-.05-.2-.12-.05-.06-.06-.13-.05-.2l1.08-4.28c.02-.07.07-.13.14-.17.08-.02.16-.02.24,0l.81.14c.08.02.15.06.2.12.05.06.07.14.05.21l-.81,3.2,1.82.32.76-3c.02-.07.07-.14.14-.17.08-.03.16-.03.24,0l.81.14c.08.02.15.06.2.12.03.06.03.14,0,.2l-.75,3,1.9.33.83-3.36Z"/>
      <path class="cls-19" d="m299.87,195.93c0-.08.06-.15.13-.18.07-.02.16-.02.23,0l.83.13c.08,0,.15.05.2.11.05.06.06.13.05.2l-.95,4.37c-.01.07-.06.14-.13.17-.07.05-.16.06-.24.05l-7.46-1.1c-.08,0-.15-.05-.2-.11-.05-.06-.07-.14-.05-.21l.17-.8c.01-.08.07-.15.14-.18.07-.04.15-.06.23-.05l6.33.94.72-3.34Z"/>
      <path class="cls-19" d="m296.53,193.96c-.41-.07-.81-.19-1.19-.36-.34-.15-.65-.38-.9-.66-.25-.29-.42-.63-.51-1-.1-.43-.1-.88,0-1.31.07-.44.23-.87.47-1.25.21-.33.5-.61.83-.82.34-.21.71-.36,1.1-.43.42-.09.85-.11,1.27-.08h.49l.55.06.55.07.49.07c.41.06.81.19,1.18.36.35.15.66.38.91.66.25.29.42.63.51,1,.09.43.09.87,0,1.3-.07.45-.23.88-.47,1.26-.22.33-.5.61-.83.82-.33.21-.7.36-1.09.43-.42.08-.85.11-1.27.07h-.49l-.55-.06-.55-.07-.5-.06Zm.86-4.53c-.48-.06-.97.05-1.38.31-.36.25-.6.64-.66,1.08-.09.41,0,.84.26,1.18.32.35.75.57,1.22.62l1,.13,1,.09c.48.07.97-.04,1.37-.31.36-.26.59-.65.65-1.08.1-.41,0-.84-.25-1.18-.31-.35-.74-.57-1.21-.61l-1-.14-1-.09Z"/>
      <path class="cls-19" d="m295.16,182.94c.04-1.37,1.19-2.45,2.57-2.41.12,0,.24.02.36.04.72,0,1.4.3,1.88.83.42.55.58,1.26.45,1.94l-.2,1.61,2.61.2c.08,0,.16.04.21.1.06.05.08.13.07.2l-.1.81c0,.08-.05.15-.11.19-.07.05-.16.07-.24.06l-7.55-.57c-.08,0-.15-.04-.21-.1-.06-.05-.08-.13-.07-.2l.33-2.7Zm3.6,1.9l.19-1.56c.06-.32,0-.65-.15-.94-.21-.27-.53-.42-.87-.41-.34-.06-.7.04-.95.28-.22.25-.34.56-.36.89l-.2,1.57,2.34.17Z"/>
    </g>
    <g id="freepik--Design--inject-17">
      <path class="cls-4" d="m268.18,239.65c-9.6,19.2-22.38,35.85-36,45.3-1.33.92-2.64,1.75-3.94,2.51l-20.3-11.72c1.29-.75,2.61-1.59,3.94-2.53,13.59-9.43,26.36-26.09,36-45.28l20.3,11.72Z"/>
      <path class="cls-21" d="m268.18,239.65c-9.6,19.2-22.38,35.85-36,45.3-1.33.92-2.64,1.75-3.94,2.51l-20.3-11.72c1.29-.75,2.61-1.59,3.94-2.53,13.59-9.43,26.36-26.09,36-45.28l20.3,11.72Z"/>
      <path class="cls-4" d="m291.4,255.62c-14,26.9-33.45,49.74-54.9,62.13l-8.23,4.8,7-21.55-7-13.49c1.3-.76,2.61-1.59,3.94-2.51,13.59-9.45,26.37-26.1,36-45.3l16.33,1.45,6.86,14.47Z"/>
      <path class="cls-2" d="m291.4,255.62c-14,26.9-33.45,49.74-54.9,62.13l-8.23,4.8,7-21.55-7-13.49c1.3-.76,2.61-1.59,3.94-2.51,13.59-9.45,26.37-26.1,36-45.3l16.33,1.45,6.86,14.47Z"/>
      <polygon class="cls-4" points="207.97 275.74 228.27 287.47 235.23 300.95 228.27 322.49 207.97 310.76 214.93 289.23 207.97 275.74"/>
      <polygon class="cls-28" points="207.97 275.74 228.27 287.47 235.23 300.95 228.27 322.49 207.97 310.76 214.93 289.23 207.97 275.74"/>
      <polygon class="cls-12" points="207.97 275.74 228.27 287.47 235.23 300.95 214.93 289.23 207.97 275.74"/>
      <path class="cls-25" d="m247.88,227.92c6.6,3.49,14.64,7.8,20.35,11.23,5.28.41,11.28,1,16.53,1.6l.09.19,3.31,7.32c1.08,2.45,2.18,4.9,3.23,7.36-1.24-2.37-2.43-4.77-3.65-7.16l-3.57-7.2.31.21c-5.2-.32-11.15-.81-16.34-1.33-6.86-3.84-13.59-8-20.26-12.22Z"/>
      <path class="cls-19" d="m245.85,289.02c.41-.37.88-.67,1.38-.89.4-.18.84-.28,1.28-.28.4,0,.8.09,1.16.27.37.2.71.45,1,.76.37.4.72.82,1.05,1.25.26.35.45.74.58,1.15.11.38.14.79.08,1.18-.07.43-.23.84-.47,1.2-.3.45-.66.85-1.08,1.2l-2.45,2.07c-.07.06-.15.08-.24.08-.08,0-.16-.03-.21-.09l-4.59-5.43c-.05-.06-.07-.14-.06-.22.02-.09.06-.16.13-.22l2.44-2.03Zm3.55,1c-.16-.16-.35-.3-.55-.4-.2-.09-.42-.14-.64-.14-.25,0-.5.05-.73.15-.29.13-.56.3-.79.51l-1.3,1.1,3.19,3.78,1.36-1.17c.24-.19.44-.42.61-.68.13-.21.22-.44.26-.68.03-.22.02-.44-.05-.65-.06-.22-.16-.42-.3-.6-.33-.44-.68-.85-1.06-1.25v.03Z"/>
      <path class="cls-19" d="m259.1,285.24c.06-.07.14-.11.23-.11.08-.01.16.01.22.07l.56.56c.06.06.08.14.07.22,0,.09-.05.17-.11.23l-3.94,3.94c-.07.06-.15.1-.24.11-.08,0-.16-.02-.22-.08l-5-5c-.05-.06-.08-.14-.07-.22,0-.09.04-.17.11-.23l3.87-3.87c.06-.06.14-.1.23-.11.08,0,.16.02.22.08l.55.55c.06.06.09.14.08.22,0,.09-.04.17-.11.23l-2.9,2.9,1.23,1.24,2.71-2.7c.06-.07.14-.1.23-.11.08-.01.16.02.22.08l.55.55c.06.06.09.14.08.22,0,.09-.04.17-.11.23l-2.7,2.7,1.29,1.3,2.95-3Z"/>
      <path class="cls-19" d="m258.36,276.44c.33-.38.71-.72,1.13-1,.33-.21.7-.38,1.08-.49.3-.09.62-.11.93-.06.24.03.47.12.67.25.07.05.11.13.1.22,0,.09-.04.17-.1.24l-.58.67c-.07.09-.17.16-.27.2-.09.02-.18.02-.27,0-.25-.02-.51.02-.74.12-.36.17-.67.42-.91.74-.14.15-.27.33-.37.51-.09.16-.16.33-.21.51-.03.15-.03.3,0,.45.02.13.09.25.19.34.11.1.25.17.4.18.17,0,.33-.05.47-.13.23-.13.45-.27.66-.43l.94-.73c.35-.29.72-.54,1.11-.77.29-.18.61-.3.94-.38.27-.06.54-.06.81,0,.59.17,1.05.62,1.25,1.2.1.32.13.67.07,1-.06.41-.2.81-.39,1.18-.24.46-.54.89-.88,1.28-.3.35-.63.66-1,.93-.33.25-.69.44-1.08.59-.32.11-.66.17-1,.16-.32-.02-.63-.13-.89-.32-.07-.05-.11-.13-.1-.21,0-.09.04-.17.1-.24l.58-.67c.07-.09.17-.16.27-.21.09-.03.18-.03.27,0,.12,0,.24,0,.36,0,.14,0,.29-.03.42-.09.17-.08.34-.17.49-.29.21-.16.41-.35.58-.56.16-.18.32-.38.45-.59.12-.18.21-.37.28-.58.06-.16.08-.34.07-.51,0-.16-.09-.3-.21-.4-.11-.11-.27-.15-.42-.13-.2.04-.38.12-.55.23-.21.14-.46.32-.75.54-.28.23-.61.48-1,.77-.32.23-.65.45-1,.63-.26.15-.55.25-.85.3-.26.06-.52.06-.78,0-.27-.1-.53-.25-.74-.45-.24-.21-.43-.48-.52-.79-.1-.32-.13-.66-.08-1,.05-.39.17-.76.34-1.11.19-.4.44-.77.73-1.1Z"/>
      <path class="cls-19" d="m268.54,276.39c-.05.07-.13.11-.21.13-.08.02-.17,0-.23-.05l-5.6-4.37c-.06-.05-.1-.13-.1-.21,0-.09.02-.17.07-.24l.64-.81c.05-.07.13-.12.22-.14.08-.02.16,0,.22.05l5.6,4.37c.07.05.11.13.11.21,0,.09-.03.18-.08.25l-.64.81Z"/>
      <path class="cls-19" d="m267.18,270.28c-.34-.25-.62-.56-.83-.92-.21-.34-.33-.73-.35-1.13-.03-.45.02-.9.17-1.33.19-.52.45-1.02.77-1.47.34-.52.75-.98,1.24-1.36.34-.27.73-.47,1.14-.6.3-.1.61-.13.92-.08.22.03.43.09.63.19.07.04.12.12.12.2,0,.09-.02.18-.07.25l-.59.85c-.04.07-.11.12-.18.15-.06.01-.11.01-.17,0h-.23c-.15.01-.31.05-.45.11-.21.09-.41.2-.59.34-.25.2-.47.44-.65.71-.33.44-.5.97-.5,1.51.02.47.26.91.64,1.18.22.17.46.35.72.53s.51.35.75.49c.41.31.95.41,1.44.26.5-.2.92-.55,1.21-1,.16-.24.3-.49.41-.76.1-.23.16-.47.16-.72,0-.24-.06-.47-.18-.67-.14-.23-.34-.43-.57-.58l-.07-.05-.88,1.27c-.05.08-.12.13-.21.15-.07.04-.16.04-.23,0l-.64-.44c-.07-.05-.11-.12-.12-.2,0-.09.02-.18.07-.25l1.66-2.4c.05-.07.12-.13.21-.15.07-.03.16-.03.23,0l1,.69c.35.23.64.54.86.89.21.35.34.74.37,1.14.03.46-.02.92-.17,1.35-.18.54-.44,1.05-.77,1.52-.31.47-.7.89-1.14,1.25-.34.29-.75.5-1.18.62-.39.11-.8.13-1.19.05-.41-.08-.81-.24-1.16-.47l-.38-.24-.43-.29-.43-.3c-.13-.11-.26-.2-.36-.29Z"/>
      <path class="cls-19" d="m279.94,259.17c-.05.11-.14.19-.25.24l-.22.07-5.73.85,3.95,2.23c.07.04.12.11.13.19.03.08.03.17,0,.25l-.51.9c-.04.07-.11.13-.19.16-.08.04-.16.04-.24,0l-6.18-3.5c-.07-.04-.12-.11-.14-.19-.01-.09,0-.18.05-.25l.43-.78c.06-.1.14-.18.25-.23l.22-.07,5.73-.85-4-2.23c-.07-.04-.11-.11-.13-.19-.01-.09,0-.18.05-.25l.5-.9c.04-.08.12-.13.2-.16.07-.04.16-.04.23,0l6.19,3.5c.07.04.12.11.13.19.02.09,0,.18-.05.25l-.42.77Z"/>
    </g>
    <g id="freepik--Plan--inject-17">
      <polygon class="cls-4" points="228.27 287.47 110.58 355.42 90.27 343.68 207.97 275.74 228.27 287.47"/>
      <polygon class="cls-6" points="228.27 287.47 110.58 355.42 90.27 343.68 207.97 275.74 228.27 287.47"/>
      <polygon class="cls-4" points="235.23 300.95 228.27 322.49 110.58 390.43 117.54 368.91 110.58 355.42 228.27 287.47 235.23 300.95"/>
      <polygon class="cls-28" points="235.23 300.95 228.27 322.49 110.58 390.43 117.54 368.91 110.58 355.42 228.27 287.47 235.23 300.95"/>
      <polygon class="cls-4" points="90.27 343.69 97.23 357.18 90.27 378.72 110.58 390.45 117.54 368.91 110.58 355.42 90.27 343.69"/>
      <polygon class="cls-16" points="90.27 343.69 97.23 357.18 90.27 378.72 110.58 390.45 117.54 368.91 110.58 355.42 90.27 343.69"/>
      <polygon class="cls-12" points="90.27 343.69 110.58 355.42 117.54 368.91 97.23 357.18 90.27 343.69"/>
      <path class="cls-25" d="m228.27,322.55c2.05-7.27,4.22-14.5,6.53-21.69v.35c-1.78-3.34-5.26-10.11-7-13.49l.18.19-5.06-3c-4.86-2.92-10.24-6.15-15-9.17,5,2.62,10.48,5.68,15.44,8.43l5.09,2.9.12.07.06.12,3.51,6.73,3.44,6.77.09.16c-2.37,7.24-4.85,14.44-7.45,21.59l.05.04Z"/>
      <path class="cls-19" d="m157.54,340.9c.94-.54,1.66-.66,2.18-.37s.78,1,.78,2.13c.02,1.07-.25,2.12-.78,3.05-.52.9-1.28,1.64-2.18,2.15l-1.86,1.07v3.45c0,.12-.03.24-.09.35-.05.1-.12.19-.22.25l-.94.54c-.07.04-.15.04-.22,0-.06-.06-.1-.15-.09-.24v-10c0-.12.03-.24.09-.35.05-.1.12-.19.22-.25l3.11-1.78Zm-1.86,6.1l1.8-1c.42-.25.79-.59,1.06-1,.28-.43.42-.94.4-1.45,0-.57-.13-.9-.39-1-.38-.04-.75.06-1.06.28l-1.8,1v3.17Z"/>
      <path class="cls-19" d="m168.03,343.74c.06-.05.16-.05.22,0,.06.06.1.15.09.24v1.1c0,.12-.03.24-.09.34-.05.1-.13.19-.22.25l-5.09,2.94c-.06.05-.16.05-.22,0-.06-.06-.1-.15-.09-.24v-10c0-.12.03-.24.09-.35.05-.1.13-.19.22-.25l.94-.54c.06-.05.16-.05.22,0,.08.06.11.15.1.24v8.47l3.83-2.2Z"/>
      <path class="cls-19" d="m174.14,331.32c.12-.07.21-.08.28,0,.08.08.13.19.16.3l2.84,8.13s0,.07,0,.11c0,.12-.03.24-.09.34-.05.1-.12.19-.22.25l-.84.49c-.15.09-.26.1-.32.05-.06-.05-.11-.11-.13-.18l-.5-1.43-3.66,2.12-.5,2c-.03.12-.07.23-.13.33-.07.14-.18.25-.32.32l-.84.48c-.07.04-.15.04-.22,0-.06-.06-.1-.15-.09-.24,0-.04,0-.08,0-.12l2.84-11.41c.04-.17.09-.33.16-.49.06-.12.16-.22.28-.29l1.3-.76Zm.64,6.42l-1.28-3.67-1.28,5.14,2.56-1.47Z"/>
      <path class="cls-19" d="m184.62,336.09c-.13.08-.23.09-.3,0l-.15-.13-3.23-4.52v6.37c0,.12-.03.24-.09.35-.05.1-.12.19-.22.25l-.94.54c-.06.05-.16.05-.22,0-.07-.06-.1-.15-.09-.24v-10c0-.12.03-.24.09-.34.05-.1.12-.19.22-.25l.81-.47c.13-.08.24-.09.3,0l.16.13,3.24,4.56v-6.37c0-.12.04-.24.1-.35.05-.1.12-.19.22-.25l.94-.54c.07-.04.15-.04.22,0,.06.06.1.15.09.24v10c0,.12-.03.24-.09.35-.05.1-.12.19-.22.25l-.84.42Z"/>
    </g>
  </g>
  <g id="freepik--Cloud--inject-17">
    <g id="freepik--cloud--inject-17">
      <path class="cls-5" d="m362.84,35.95h0l-.17-.1-.1-.06-3.81-2.24v-.27c0-4.67-1.58-8-4.05-9.32h0l-7.31-4.23h0c-2-1.16-4.63-1-7.5.6-1.33.79-2.55,1.76-3.62,2.87-.47-.49-1-.91-1.58-1.25h0l-7.07-4.07h0c-2.59-1.72-6.06-1.68-9.87.52-8,4.62-14.49,17-14.49,27.69,0,1.18.08,2.37.26,3.54l-1,.58c-5.09,2.94-9.22,10.82-9.22,17.62h0c0,3.75,1.26,6.42,3.25,7.57h0l7.41,4.27h0c1.6.92,3.68.85,5.95-.46l13.43-7.66,35.72-20.62c3.06-1.77,5.54-6.5,5.54-10.58h0c0-2.16-.67-3.68-1.77-4.4Z"/>
      <path class="cls-20" d="m362.84,35.95h0l-.17-.1-.1-.06-3.81-2.24v-.27c0-4.67-1.58-8-4.05-9.32h0l-7.31-4.23h0c-2-1.16-4.63-1-7.5.6-1.33.79-2.55,1.76-3.62,2.87-.47-.49-1-.91-1.58-1.25h0l-7.07-4.07h0c-2.59-1.72-6.06-1.68-9.87.52-8,4.62-14.49,17-14.49,27.69,0,1.18.08,2.37.26,3.54l-1,.58c-5.09,2.94-9.22,10.82-9.22,17.62h0c0,3.75,1.26,6.42,3.25,7.57h0l7.41,4.27h0c1.6.92,3.68.85,5.95-.46l13.43-7.66,35.72-20.62c3.06-1.77,5.54-6.5,5.54-10.58h0c0-2.16-.67-3.68-1.77-4.4Z"/>
      <path class="cls-27" d="m354.72,24h0c-2-1.12-4.6-1-7.43.65-1.4.82-2.67,1.83-3.79,3l-6.71-3.89-.66-.38.17-.17c1.08-1.1,2.31-2.05,3.64-2.83,2.87-1.65,5.49-1.76,7.5-.6h0l7.28,4.22Z"/>
      <path class="cls-1" d="m336.3,23.25c.17.17.33.36.49.55l-.66-.38.17-.17Z"/>
      <path class="cls-27" d="m334.53,21.89h0c-2.52-1.41-5.8-1.24-9.37.82s-7,5.79-9.5,10.21l-7.37-4.26c2.54-4.41,5.86-8.11,9.49-10.21,3.81-2.2,7.28-2.24,9.87-.52h0l6.88,3.96Z"/>
      <path class="cls-27" d="m310.94,53.95l-1,.6c-3.45,2-6.46,6.26-8,10.92l-7.38-4.27c1.16-3.6,3.23-6.85,6-9.43l3-2.06,7.38,4.24Z"/>
      <path class="cls-4" d="m359.07,36.14l-.53.31c.15-1.04.23-2.08.23-3.13,0-8.45-5.14-12.33-11.48-8.67-3.23,2.06-5.87,4.92-7.65,8.31-.28-10.17-6.65-14.76-14.48-10.24-8,4.62-14.49,17-14.49,27.7,0,1.18.09,2.36.27,3.53l-1,.6c-5.09,2.94-9.22,10.83-9.22,17.62h0c0,6.79,4.13,10.06,9.22,7.12l13.41-7.74h0l35.72-20.62c3.06-1.77,5.54-6.5,5.54-10.58h0c0-4.1-2.48-5.97-5.54-4.21Z"/>
      <path class="cls-7" d="m359.07,36.14l-.53.31c.15-1.04.23-2.08.23-3.13,0-8.45-5.14-12.33-11.48-8.67-3.23,2.06-5.87,4.92-7.65,8.31-.28-10.17-6.65-14.76-14.48-10.24-8,4.62-14.49,17-14.49,27.7,0,1.18.09,2.36.27,3.53l-1,.6c-5.09,2.94-9.22,10.83-9.22,17.62h0c0,6.79,4.13,10.06,9.22,7.12l13.41-7.74h0l35.72-20.62c3.06-1.77,5.54-6.5,5.54-10.58h0c0-4.1-2.48-5.97-5.54-4.21Z"/>
      <path class="cls-7" d="m306.34,78.46c-2.27,0-3.74-2.48-3.74-6.31,0-6.08,3.79-13.4,8.28-16l1-.57c.68-.39,1.04-1.17.92-1.94h0c-.16-1.07-.24-2.15-.24-3.23,0-10.06,6.07-21.75,13.55-26.06,1.44-.91,3.1-1.42,4.8-1.49,4,0,6.67,3.89,6.85,10.14h0c.03,1.04.9,1.86,1.95,1.83.66-.02,1.26-.38,1.58-.95h0c1.62-3.09,4.01-5.72,6.95-7.61,1.09-.68,2.33-1.07,3.61-1.12,3,0,5,3.2,5,8.16,0,.96-.07,1.92-.21,2.87h0c-.14,1.03.58,1.99,1.62,2.13.42.06.84-.03,1.2-.24l.53-.3c.37-.24.81-.38,1.25-.41,1,0,1.45,1.48,1.45,3,0,3.41-2.1,7.5-4.59,8.94l-49.14,28.37c-.8.5-1.71.79-2.65.83l.03-.04Z"/>
    </g>
  </g>
  <g id="freepik--Gears--inject-17">
    <g id="freepik--Gear--inject-17">
      <path class="cls-4" d="m107.58,49.07h0l-5.83-3.34h0c-.19-.1-.41-.1-.6,0l-4,1.79c-.07-.34-.03-.69.12-1l4.59-9.27c.26-.49.07-1.09-.41-1.35l-5-2.88h0l-5.8-3.33c-.47-.26-1.06-.12-1.37.32l-5.72,8.62c-.2.26-.46.45-.76.57l-.44-4.36c0-.21-.11-.41-.29-.53h0l-5.84-3.35h0c-.2-.09-.44-.07-.62.06l-7.74,4.53c-.5.32-.84.84-.93,1.43l-.77,8.57c-.09.61-.37,1.17-.8,1.61-1.54,1.42-2.98,2.95-4.31,4.56-.38.42-.97.59-1.52.43l-5-1.74c-.53-.17-1.1.05-1.39.52l-5.7,9.86c-.26.49-.15,1.09.25,1.47l4,3.43c.41.4.56.99.39,1.54-.73,1.96-1.34,3.96-1.8,6-.16.6-.51,1.12-1,1.5l-7.07,5c-.47.37-.76.93-.79,1.53v8.94c-.01.22.09.44.27.57h0l5.83,3.34h0c.19.09.41.09.6,0l4-1.8c.07.34.02.69-.12,1l-4.58,9.24c-.26.49-.07,1.09.41,1.35l7,4h0l3.79,2.19c.47.29,1.09.15,1.38-.32,0,0,0,0,0,0l5.72-8.61c.19-.26.46-.46.76-.58l.44,4.37c0,.22.12.42.3.53h0l5.83,3.34h0c.2.1.44.08.63-.05l7.75-4.47c.5-.33.83-.86.92-1.45l.78-8.62c.09-.61.37-1.17.8-1.61,1.54-1.41,2.98-2.93,4.3-4.55.38-.43.98-.59,1.53-.43l5,1.74c.53.16,1.1-.05,1.39-.52l5.7-9.86c.26-.49.15-1.09-.25-1.47l-4-3.44c-.41-.39-.57-.99-.39-1.53.73-1.96,1.33-3.96,1.79-6,.17-.59.52-1.12,1-1.5l7.07-5c.47-.37.76-.92.79-1.52v-8.89c.01-.23-.1-.45-.29-.58Zm-43.1,30.09c0-8.35,5.86-18.49,13.09-22.66,2.82-1.64,5.44-2.11,7.58-1.58,1.1,1.54,1.69,3.87,1.69,6.93,0,8.35-5.86,18.49-13.08,22.67-2.83,1.63-5.23,2.15-7.11,1.71-1.54-2.02-2.31-4.53-2.17-7.07Z"/>
      <path class="cls-20" d="m107.58,49.07h0l-5.83-3.34h0c-.19-.1-.41-.1-.6,0l-4,1.79c-.07-.34-.03-.69.12-1l4.59-9.27c.26-.49.07-1.09-.41-1.35l-5-2.88h0l-5.8-3.33c-.47-.26-1.06-.12-1.37.32l-5.72,8.62c-.2.26-.46.45-.76.57l-.44-4.36c0-.21-.11-.41-.29-.53h0l-5.84-3.35h0c-.2-.09-.44-.07-.62.06l-7.74,4.53c-.5.32-.84.84-.93,1.43l-.77,8.57c-.09.61-.37,1.17-.8,1.61-1.54,1.42-2.98,2.95-4.31,4.56-.38.42-.97.59-1.52.43l-5-1.74c-.53-.17-1.1.05-1.39.52l-5.7,9.86c-.26.49-.15,1.09.25,1.47l4,3.43c.41.4.56.99.39,1.54-.73,1.96-1.34,3.96-1.8,6-.16.6-.51,1.12-1,1.5l-7.07,5c-.47.37-.76.93-.79,1.53v8.94c-.01.22.09.44.27.57h0l5.83,3.34h0c.19.09.41.09.6,0l4-1.8c.07.34.02.69-.12,1l-4.58,9.24c-.26.49-.07,1.09.41,1.35l7,4h0l3.79,2.19c.47.29,1.09.15,1.38-.32,0,0,0,0,0,0l5.72-8.61c.19-.26.46-.46.76-.58l.44,4.37c0,.22.12.42.3.53h0l5.83,3.34h0c.2.1.44.08.63-.05l7.75-4.47c.5-.33.83-.86.92-1.45l.78-8.62c.09-.61.37-1.17.8-1.61,1.54-1.41,2.98-2.93,4.3-4.55.38-.43.98-.59,1.53-.43l5,1.74c.53.16,1.1-.05,1.39-.52l5.7-9.86c.26-.49.15-1.09-.25-1.47l-4-3.44c-.41-.39-.57-.99-.39-1.53.73-1.96,1.33-3.96,1.79-6,.17-.59.52-1.12,1-1.5l7.07-5c.47-.37.76-.92.79-1.52v-8.89c.01-.23-.1-.45-.29-.58Zm-43.1,30.09c0-8.35,5.86-18.49,13.09-22.66,2.82-1.64,5.44-2.11,7.58-1.58,1.1,1.54,1.69,3.87,1.69,6.93,0,8.35-5.86,18.49-13.08,22.67-2.83,1.63-5.23,2.15-7.11,1.71-1.54-2.02-2.31-4.53-2.17-7.07Z"/>
      <path class="cls-31" d="m56.21,91.55c-.12-.44-.56-.7-1-.58-.05.01-.1.03-.15.05l-2.91,1.31c.06.34.02.69-.12,1l-4.6,9.22c-.24.49-.06,1.08.41,1.36l7,4-1.18-.69c-.48-.26-.66-.86-.41-1.34l4.6-9.27c.22-.54.18-1.16-.11-1.67-.65-1.06-1.16-2.2-1.53-3.39Zm16.78,17.28c-.13-.13-.21-.31-.23-.5l-.76-7.52c-.03-.45-.42-.78-.86-.75-.05,0-.09.01-.14.02-1.22.27-2.48.4-3.73.38-.26,0-.51.05-.74.16l.44,4.37c0,.21.11.41.29.52h0l5.73,3.32Z"/>
      <path class="cls-31" d="m90.65,64.05c0,8.34-5.86,18.49-13.08,22.66-4.57,2.64-8.59,2.26-10.93-.48,1.88.45,4.29-.08,7.12-1.71,7.23-4.18,13.08-14.32,13.08-22.67,0-3-.59-5.39-1.69-6.93,3.33.81,5.5,4.05,5.5,9.13Z"/>
      <path class="cls-4" d="m90.66,29.73c-.47-.29-1.08-.14-1.37.33l-5.73,8.61c-.1.14-.23.27-.38.36l5.83,3.35c.15-.1.28-.23.38-.38l5.73-8.61c.28-.4.8-.55,1.25-.38l-5.71-3.28Zm11.08,16h0c-.19-.1-.41-.1-.6,0l-4,1.8c.04.24.11.48.23.7.62,1.02,1.12,2.11,1.48,3.25l.06.16c.04.13.11.26.21.36l.09.09c.07.05.15.1.23.13.14.04.29.04.43,0,.07-.01.13-.03.19-.06l6.88-3.08c.05-.03.11-.05.17-.06.08-.02.16-.02.24,0,.07,0,.14.03.2.07h0l-5.81-3.36Zm-25.5-14.73c-.21-.09-.45-.07-.63.06l-7.74,4.49c-.35.22-.62.55-.77.93l5.84,3.33c.16-.38.43-.71.78-.94l7.75-4.47c.17-.12.39-.15.59-.08l-5.82-3.32Zm-26.37,43.2c-.15.22-.33.41-.54.57l-7.08,5c-.19.15-.35.33-.47.54l5.81,3.34c.12-.21.29-.39.48-.54l7.08-5c.21-.17.4-.36.55-.58l-5.83-3.33Zm4.3-23.81c-.41.02-.78.23-1,.58l-5.69,9.86c-.12.22-.16.47-.13.72l5.82,3.35c-.03-.25.01-.51.13-.73l5.7-9.86c.2-.33.54-.54.92-.57l-5.75-3.35Z"/>
      <path class="cls-7" d="m90.66,29.73c-.47-.29-1.08-.14-1.37.33l-5.73,8.61c-.1.14-.23.27-.38.36l5.83,3.35c.15-.1.28-.23.38-.38l5.73-8.61c.28-.4.8-.55,1.25-.38l-5.71-3.28Zm11.08,16h0c-.19-.1-.41-.1-.6,0l-4,1.8c.04.24.11.48.23.7.62,1.02,1.12,2.11,1.48,3.25l.06.16c.04.13.11.26.21.36l.09.09c.07.05.15.1.23.13.14.04.29.04.43,0,.07-.01.13-.03.19-.06l6.88-3.08c.05-.03.11-.05.17-.06.08-.02.16-.02.24,0,.07,0,.14.03.2.07h0l-5.81-3.36Zm-25.5-14.73c-.21-.09-.45-.07-.63.06l-7.74,4.49c-.35.22-.62.55-.77.93l5.84,3.33c.16-.38.43-.71.78-.94l7.75-4.47c.17-.12.39-.15.59-.08l-5.82-3.32Zm-26.37,43.2c-.15.22-.33.41-.54.57l-7.08,5c-.19.15-.35.33-.47.54l5.81,3.34c.12-.21.29-.39.48-.54l7.08-5c.21-.17.4-.36.55-.58l-5.83-3.33Zm4.3-23.81c-.41.02-.78.23-1,.58l-5.69,9.86c-.12.22-.16.47-.13.72l5.82,3.35c-.03-.25.01-.51.13-.73l5.7-9.86c.2-.33.54-.54.92-.57l-5.75-3.35Z"/>
      <path class="cls-4" d="m107.85,58.55v-8.9c.05-.31-.15-.61-.46-.66-.14-.03-.29,0-.42.09l-6.89,3.11c-.42.19-.91,0-1.1-.42-.02-.04-.03-.08-.04-.12-.37-1.19-.89-2.34-1.54-3.41-.29-.51-.33-1.13-.1-1.67l4.59-9.27c.26-.49.07-1.09-.41-1.35l-5-2.88c-.47-.29-1.08-.14-1.37.33l-5.73,8.61c-.36.46-.91.73-1.5.74-1.25-.03-2.51.1-3.73.38-.44.1-.88-.17-.98-.62,0-.04-.01-.08-.02-.11l-.76-7.52c.02-.31-.22-.59-.53-.61-.14,0-.29.04-.4.13l-7.75,4.47c-.5.33-.84.86-.92,1.45l-.77,8.61c-.1.61-.39,1.18-.83,1.62-1.52,1.42-2.94,2.94-4.25,4.55-.38.42-.97.59-1.52.43l-5-1.74c-.53-.16-1.1.05-1.39.52l-5.69,9.86c-.26.49-.16,1.09.24,1.47l4,3.44c.42.39.57.99.39,1.53-.73,1.96-1.33,3.96-1.79,6-.17.59-.52,1.12-1,1.5l-7.08,5c-.47.38-.75.93-.79,1.53v8.91c-.04.32.18.61.5.65.13.02.27-.01.38-.08l6.9-3.11c.4-.2.89-.03,1.08.37.02.05.04.1.06.16.38,1.2.89,2.35,1.54,3.42.29.51.33,1.13.11,1.67l-4.6,9.27c-.25.48-.07,1.08.41,1.34l5,2.88c.47.29,1.09.15,1.38-.32,0,0,0,0,0,0l5.72-8.61c.36-.46.91-.74,1.5-.74,1.25.02,2.51-.11,3.73-.38.45-.1.89.19.99.64,0,.03.01.06.01.09l.75,7.52c-.02.31.22.59.53.61.14,0,.29-.04.4-.13l7.75-4.47c.5-.33.83-.86.92-1.45l.78-8.62c.09-.61.37-1.17.8-1.61,1.54-1.41,2.98-2.93,4.3-4.55.38-.43.98-.59,1.53-.43l5,1.74c.53.16,1.1-.05,1.39-.52l5.7-9.86c.26-.49.15-1.09-.25-1.47l-4-3.44c-.41-.39-.57-.99-.39-1.53.73-1.96,1.33-3.96,1.79-6,.17-.59.52-1.12,1-1.5l7.07-5c.47-.38.74-.94.76-1.54Zm-30.28,28.12c-7.23,4.17-13.09.79-13.09-7.55s5.86-18.45,13.09-22.57,13.08-.79,13.08,7.55-5.86,18.45-13.08,22.61v-.04Z"/>
      <path class="cls-24" d="m107.85,58.55v-8.9c.05-.31-.15-.61-.46-.66-.14-.03-.29,0-.42.09l-6.89,3.11c-.42.19-.91,0-1.1-.42-.02-.04-.03-.08-.04-.12-.37-1.19-.89-2.34-1.54-3.41-.29-.51-.33-1.13-.1-1.67l4.59-9.27c.26-.49.07-1.09-.41-1.35l-5-2.88c-.47-.29-1.08-.14-1.37.33l-5.73,8.61c-.36.46-.91.73-1.5.74-1.25-.03-2.51.1-3.73.38-.44.1-.88-.17-.98-.62,0-.04-.01-.08-.02-.11l-.76-7.52c.02-.31-.22-.59-.53-.61-.14,0-.29.04-.4.13l-7.75,4.47c-.5.33-.84.86-.92,1.45l-.77,8.61c-.1.61-.39,1.18-.83,1.62-1.52,1.42-2.94,2.94-4.25,4.55-.38.42-.97.59-1.52.43l-5-1.74c-.53-.16-1.1.05-1.39.52l-5.69,9.86c-.26.49-.16,1.09.24,1.47l4,3.44c.42.39.57.99.39,1.53-.73,1.96-1.33,3.96-1.79,6-.17.59-.52,1.12-1,1.5l-7.08,5c-.47.38-.75.93-.79,1.53v8.91c-.04.32.18.61.5.65.13.02.27-.01.38-.08l6.9-3.11c.4-.2.89-.03,1.08.37.02.05.04.1.06.16.38,1.2.89,2.35,1.54,3.42.29.51.33,1.13.11,1.67l-4.6,9.27c-.25.48-.07,1.08.41,1.34l5,2.88c.47.29,1.09.15,1.38-.32,0,0,0,0,0,0l5.72-8.61c.36-.46.91-.74,1.5-.74,1.25.02,2.51-.11,3.73-.38.45-.1.89.19.99.64,0,.03.01.06.01.09l.75,7.52c-.02.31.22.59.53.61.14,0,.29-.04.4-.13l7.75-4.47c.5-.33.83-.86.92-1.45l.78-8.62c.09-.61.37-1.17.8-1.61,1.54-1.41,2.98-2.93,4.3-4.55.38-.43.98-.59,1.53-.43l5,1.74c.53.16,1.1-.05,1.39-.52l5.7-9.86c.26-.49.15-1.09-.25-1.47l-4-3.44c-.41-.39-.57-.99-.39-1.53.73-1.96,1.33-3.96,1.79-6,.17-.59.52-1.12,1-1.5l7.07-5c.47-.38.74-.94.76-1.54Zm-30.28,28.12c-7.23,4.17-13.09.79-13.09-7.55s5.86-18.45,13.09-22.57,13.08-.79,13.08,7.55-5.86,18.45-13.08,22.61v-.04Z"/>
      <g class="cls-33">
        <path class="cls-19" d="m95.94,33.6c.06-.02.12-.02.18,0l5,2.88c.17.1.23.31.14.49l-4.59,9.26c-.33.75-.28,1.61.13,2.31.62,1.03,1.12,2.12,1.47,3.27.18.63.76,1.06,1.41,1.07.22,0,.44-.05.64-.14l6.84-3.08v8.89c-.03.39-.21.75-.51,1l-7.07,5c-.61.48-1.06,1.14-1.26,1.89-.45,2.01-1.04,3.99-1.76,5.92-.28.8-.05,1.69.57,2.26l4,3.44c.17.17.21.43.11.64l-5.67,9.85c-.11.15-.29.25-.48.25h-.14l-5-1.74c-.2-.07-.4-.1-.61-.1-.62,0-1.22.26-1.63.73-1.31,1.59-2.72,3.09-4.24,4.49-.54.54-.89,1.24-1,2l-.77,8.62c-.07.38-.28.72-.6.94l-7.7,4.44-.75-7.47c-.06-.77-.71-1.35-1.48-1.34-.12-.01-.23-.01-.35,0-1.06.23-2.14.36-3.23.36h-.39c-.78,0-1.52.38-2,1l-5.73,8.61c-.07.1-.19.16-.32.16-.06.04-.14.05-.21.05l-5-2.87c-.16-.11-.22-.31-.15-.49l4.59-9.27c.33-.74.29-1.6-.13-2.3-.62-1.03-1.11-2.13-1.47-3.27-.18-.63-.75-1.07-1.41-1.08-.22,0-.43.05-.63.14l-6.8,3.14v-8.89c.03-.39.22-.75.51-1l7.08-5c.61-.47,1.05-1.14,1.25-1.89.45-2.01,1.05-3.99,1.77-5.92.28-.82.04-1.73-.61-2.3l-4-3.44c-.16-.17-.21-.42-.11-.64l5.7-9.86c.1-.16.28-.25.47-.25h.14l5,1.74c.2.06.41.1.62.1.61.03,1.21-.21,1.63-.65,1.31-1.59,2.73-3.08,4.24-4.48.54-.54.89-1.24,1-2l.77-8.62c.07-.38.28-.71.6-.93l7.7-4.45.75,7.48c.11.74.75,1.28,1.49,1.26.12.02.23.02.35,0,1.06-.24,2.14-.36,3.23-.37h.42c.78-.01,1.52-.38,2-1l5.72-8.61c.07-.1.19-.16.32-.16h0m-24.26,55.48c2.19-.07,4.31-.72,6.17-1.87,7.4-4.27,13.42-14.69,13.42-23.23.12-2.61-.64-5.18-2.16-7.3-1.38-1.75-3.51-2.75-5.74-2.7-2.19.07-4.32.72-6.17,1.88-7.4,4.27-13.41,14.69-13.41,23.23,0,6.07,3.1,10,7.89,10m24.22-56.22c-.35,0-.67.17-.86.46l-5.73,8.61c-.36.45-.89.73-1.47.74h-.39c-1.13,0-2.26.13-3.37.38-.07,0-.14,0-.21,0-.43.01-.79-.32-.82-.75l-.76-7.52c0-.38-.26-.6-.55-.6-.14,0-.27.05-.38.12l-7.75,4.47c-.5.33-.84.86-.92,1.45l-.77,8.61c-.08.61-.35,1.19-.77,1.64-1.52,1.42-2.94,2.94-4.25,4.55-.29.31-.69.49-1.12.49-.14,0-.27-.02-.4-.06l-5-1.74c-.11-.04-.23-.06-.35-.06-.41.01-.79.23-1,.58l-5.69,9.86c-.26.49-.16,1.09.24,1.47l4,3.44c.42.39.57.99.39,1.53-.73,1.96-1.33,3.96-1.79,6-.17.59-.52,1.12-1,1.5l-7.08,5c-.47.38-.75.93-.79,1.53v8.91c0,.4.23.65.55.65.11,0,.23-.03.33-.08l6.9-3.11c.11-.05.24-.08.36-.08.37,0,.69.25.78.61.38,1.2.89,2.35,1.54,3.42.29.51.33,1.13.11,1.67l-4.6,9.27c-.25.48-.07,1.08.41,1.34l5,2.88c.47.29,1.09.15,1.38-.32,0,0,0,0,0,0l5.72-8.61c.36-.45.89-.73,1.47-.74h.39c1.13,0,2.26-.13,3.37-.38.07,0,.14,0,.21,0,.43-.01.8.33.82.76l.76,7.52c0,.38.26.59.55.59.13,0,.27-.04.38-.11l7.75-4.47c.5-.33.83-.86.92-1.45l.78-8.62c.09-.61.37-1.17.8-1.61,1.54-1.41,2.98-2.93,4.3-4.55.29-.32.7-.49,1.13-.49.14,0,.27.02.4.06l5,1.74c.12.02.23.02.35,0,.41,0,.78-.22,1-.57l5.7-9.86c.26-.49.15-1.09-.25-1.47l-4-3.44c-.41-.39-.56-.99-.39-1.53.73-1.96,1.33-3.96,1.79-6,.17-.59.52-1.12,1-1.5l7.07-5c.47-.37.76-.92.79-1.52v-8.9c0-.41-.23-.65-.55-.65-.11,0-.23.03-.33.08l-6.89,3.11c-.12.05-.24.08-.37.08-.37-.01-.69-.26-.78-.62-.37-1.19-.89-2.34-1.54-3.41-.29-.51-.33-1.13-.1-1.67l4.59-9.27c.26-.49.07-1.09-.41-1.35l-5-2.88c-.16-.09-.33-.13-.51-.13h-.09Zm-24.22,55.61c-4.29,0-7.24-3.42-7.24-9.34,0-8.35,5.86-18.49,13.09-22.66,1.76-1.1,3.77-1.72,5.84-1.79,4.29,0,7.24,3.42,7.24,9.34,0,8.34-5.86,18.49-13.08,22.66-1.76,1.1-3.78,1.71-5.85,1.79Z"/>
      </g>
    </g>
    <g id="freepik--gear--inject-17">
      <path class="cls-4" d="m153.48,87.55c.11-.72.44-1.38.94-1.9l3.84-3.54c.49-.5.73-1.19.65-1.89l-.72-4.2c-.03-.24-.17-.45-.37-.58h0l-4.55-2.63h0c-.26-.14-.57-.11-.8.07l-1.65,1.09,1.6-4.32c.13-.43-.08-.9-.48-1.1h0l-4.56-2.63h0c-.09-.06-.19-.1-.3-.12l-2.89-.65c-.65-.12-1.31.19-1.64.76l-2.73,5.19c-.26.43-.63.78-1.08,1l-.12-.41c-.06-.21-.19-.39-.37-.51h0l-4.57-2.64h0c-.28-.15-.63-.1-.86.12l-4.34,3.41c-.53.47-.83,1.14-.82,1.84l.26,4.13c0,.72-.23,1.43-.68,2-.71.85-1.38,1.75-2,2.67-.42.56-1.07.89-1.77.9l-2.79-.14c-.68,0-1.3.39-1.6,1l-2.62,5.88c-.24.52-.04,1.13.45,1.41h0l3.09,1.78c.1.25.13.53.07.8-.21.93-.37,1.87-.48,2.81-.11.72-.44,1.38-.94,1.9l-3.81,3.5c-.49.5-.72,1.2-.64,1.89l.72,4.2c.03.23.15.44.35.56h0l4.59,2.64h0c.25.13.56.1.78-.08l1.65-1.09-1.59,4.32c-.16.43,0,.91.38,1.17h0l4.58,2.64h0c.1.06.21.11.32.14l2.9.65c.65.12,1.31-.18,1.64-.76l2.72-5.19c.26-.43.64-.77,1.09-1l.12.41c.05.21.18.4.37.51h0l4.53,2.62h.05c.28.12.6.07.83-.13l4.34-3.42c.53-.46.83-1.14.83-1.84l-.26-4.13c0-.72.23-1.43.67-2,.71-.85,1.39-1.75,2-2.67.41-.56,1.07-.89,1.76-.9l2.79.14c.68,0,1.3-.39,1.6-1l2.63-5.88c.25-.57-.01-1.24-.58-1.49,0,0,0,0,0,0l-2.25-1c-.59-.27-.91-.92-.77-1.55.23-.87.39-1.76.5-2.76Zm-23.16,12.76c-.85-4.94,2.27-11.94,7-15.64,1.4-1.2,3.11-1.96,4.94-2.2.26.58.44,1.19.54,1.82.86,4.94-2.27,11.94-7,15.64-1.4,1.19-3.11,1.95-4.93,2.2-.26-.57-.45-1.17-.55-1.79v-.03Z"/>
      <path class="cls-20" d="m153.48,87.55c.11-.72.44-1.38.94-1.9l3.84-3.54c.49-.5.73-1.19.65-1.89l-.72-4.2c-.03-.24-.17-.45-.37-.58h0l-4.55-2.63h0c-.26-.14-.57-.11-.8.07l-1.65,1.09,1.6-4.32c.13-.43-.08-.9-.48-1.1h0l-4.56-2.63h0c-.09-.06-.19-.1-.3-.12l-2.89-.65c-.65-.12-1.31.19-1.64.76l-2.73,5.19c-.26.43-.63.78-1.08,1l-.12-.41c-.06-.21-.19-.39-.37-.51h0l-4.57-2.64h0c-.28-.15-.63-.1-.86.12l-4.34,3.41c-.53.47-.83,1.14-.82,1.84l.26,4.13c0,.72-.23,1.43-.68,2-.71.85-1.38,1.75-2,2.67-.42.56-1.07.89-1.77.9l-2.79-.14c-.68,0-1.3.39-1.6,1l-2.62,5.88c-.24.52-.04,1.13.45,1.41h0l3.09,1.78c.1.25.13.53.07.8-.21.93-.37,1.87-.48,2.81-.11.72-.44,1.38-.94,1.9l-3.81,3.5c-.49.5-.72,1.2-.64,1.89l.72,4.2c.03.23.15.44.35.56h0l4.59,2.64h0c.25.13.56.1.78-.08l1.65-1.09-1.59,4.32c-.16.43,0,.91.38,1.17h0l4.58,2.64h0c.1.06.21.11.32.14l2.9.65c.65.12,1.31-.18,1.64-.76l2.72-5.19c.26-.43.64-.77,1.09-1l.12.41c.05.21.18.4.37.51h0l4.53,2.62h.05c.28.12.6.07.83-.13l4.34-3.42c.53-.46.83-1.14.83-1.84l-.26-4.13c0-.72.23-1.43.67-2,.71-.85,1.39-1.75,2-2.67.41-.56,1.07-.89,1.76-.9l2.79.14c.68,0,1.3-.39,1.6-1l2.63-5.88c.25-.57-.01-1.24-.58-1.49,0,0,0,0,0,0l-2.25-1c-.59-.27-.91-.92-.77-1.55.23-.87.39-1.76.5-2.76Zm-23.16,12.76c-.85-4.94,2.27-11.94,7-15.64,1.4-1.2,3.11-1.96,4.94-2.2.26.58.44,1.19.54,1.82.86,4.94-2.27,11.94-7,15.64-1.4,1.19-3.11,1.95-4.93,2.2-.26-.57-.45-1.17-.55-1.79v-.03Z"/>
      <path class="cls-31" d="m126.02,109.55c-.33-.52-1.02-.68-1.54-.35,0,0,0,0,0,0l-2.19,1.44-1.59,4.32c-.16.43,0,.91.38,1.17l4.52,2.61c-.36-.27-.49-.73-.34-1.15l2-5.3c.18-.65,0-1.34-.45-1.83-.29-.28-.55-.58-.78-.91Zm13.35,6.61c-.18-.11-.31-.29-.36-.5l-1-3.25c-.16-.53-.71-.83-1.24-.68-.04.01-.09.03-.13.05-.58.24-1.17.44-1.78.59-.2.06-.39.13-.57.23l.13.43c.06.21.19.39.37.5h0l4.58,2.63Z"/>
      <path class="cls-31" d="m140.38,102.55c-4.06,3.19-8,2.89-9.5-.44,1.82-.24,3.53-1,4.93-2.19,4.7-3.7,7.83-10.7,7-15.64-.11-.62-.29-1.23-.55-1.81,2.58-.23,4.58,1.32,5.11,4.44.84,4.98-2.29,11.98-6.99,15.64Z"/>
      <path class="cls-4" d="m124.31,83.37c-.25.12-.52.17-.79.17l-2.8-.13c-.42,0-.83.14-1.15.42l4.56,2.64c.33-.27.74-.42,1.16-.43l2.8.14c.27,0,.54-.04.79-.15l-4.57-2.66Zm9.42-14.88c-.28-.15-.62-.11-.85.11l-4.35,3.41c-.34.31-.59.7-.71,1.14l4.57,2.64c.12-.44.37-.84.71-1.14l4.34-3.41c.23-.22.58-.26.86-.11h0l-4.57-2.64Zm-15.09,30.53l-3.8,3.5c-.29.3-.5.68-.59,1.09l4.56,2.63c.1-.41.3-.79.6-1.09l3.8-3.48-4.57-2.65Zm28.8-33.16c-.1-.06-.2-.1-.31-.12l-2.89-.65c-.65-.11-1.3.19-1.64.76l-2.73,5.19c-.15.27-.36.51-.61.7l4.57,2.63c.25-.19.46-.43.61-.7l2.73-5.18c.33-.58.99-.89,1.64-.77l2.89.66c.11.02.21.06.3.11l-4.56-2.63Zm5.83,7h0c-.26-.14-.57-.11-.8.07l-1.65,1.09-.37,1c-.18.65,0,1.35.46,1.84.27.28.52.59.74.91l.2.22.17.13c.12.07.25.12.39.15.17.05.34.05.51,0,.1-.02.2-.06.28-.12l3.84-2.6c.09-.05.19-.1.29-.13.1-.03.22-.03.32,0h.18l-4.56-2.56Z"/>
      <path class="cls-7" d="m124.31,83.37c-.25.12-.52.17-.79.17l-2.8-.13c-.42,0-.83.14-1.15.42l4.56,2.64c.33-.27.74-.42,1.16-.43l2.8.14c.27,0,.54-.04.79-.15l-4.57-2.66Zm9.42-14.88c-.28-.15-.62-.11-.85.11l-4.35,3.41c-.34.31-.59.7-.71,1.14l4.57,2.64c.12-.44.37-.84.71-1.14l4.34-3.41c.23-.22.58-.26.86-.11h0l-4.57-2.64Zm-15.09,30.53l-3.8,3.5c-.29.3-.5.68-.59,1.09l4.56,2.63c.1-.41.3-.79.6-1.09l3.8-3.48-4.57-2.65Zm28.8-33.16c-.1-.06-.2-.1-.31-.12l-2.89-.65c-.65-.11-1.3.19-1.64.76l-2.73,5.19c-.15.27-.36.51-.61.7l4.57,2.63c.25-.19.46-.43.61-.7l2.73-5.18c.33-.58.99-.89,1.64-.77l2.89.66c.11.02.21.06.3.11l-4.56-2.63Zm5.83,7h0c-.26-.14-.57-.11-.8.07l-1.65,1.09-.37,1c-.18.65,0,1.35.46,1.84.27.28.52.59.74.91l.2.22.17.13c.12.07.25.12.39.15.17.05.34.05.51,0,.1-.02.2-.06.28-.12l3.84-2.6c.09-.05.19-.1.29-.13.1-.03.22-.03.32,0h.18l-4.56-2.56Z"/>
      <path class="cls-4" d="m158.94,80.25l-.72-4.2c-.01-.38-.33-.68-.71-.67-.16,0-.32.07-.44.18l-3.84,2.53c-.52.33-1.21.17-1.54-.35-.23-.33-.48-.63-.75-.92-.46-.49-.63-1.18-.45-1.83l2-5.3c.19-.52-.09-1.09-.61-1.28-.04-.01-.07-.02-.11-.03l-2.89-.65c-.66-.12-1.32.18-1.65.76l-2.72,5.19c-.37.6-.96,1.04-1.64,1.23-.61.16-1.21.36-1.79.59-.5.23-1.1,0-1.32-.5-.02-.04-.03-.08-.05-.12l-1-3.25c-.07-.4-.45-.66-.85-.59-.14.03-.28.1-.38.2l-4.34,3.41c-.52.47-.82,1.14-.82,1.84l.26,4.13c0,.72-.23,1.43-.68,2-.71.86-1.38,1.75-2,2.67-.42.55-1.07.88-1.77.89l-2.79-.14c-.68,0-1.3.39-1.6,1l-2.62,5.88c-.26.55-.02,1.21.54,1.46.01,0,.03.01.04.02l2.25,1c.59.27.91.91.78,1.55-.21.92-.38,1.86-.49,2.8-.1.72-.43,1.39-.94,1.91l-3.84,3.53c-.49.51-.72,1.2-.65,1.9l.73,4.19c.01.38.33.68.71.67.16,0,.31-.06.43-.17l3.84-2.53c.52-.33,1.21-.18,1.55.34,0,0,0,0,0,0,.23.32.47.62.74.91.47.49.64,1.18.45,1.83l-2,5.3c-.19.52.07,1.09.59,1.28.04.01.08.03.12.04l2.9.65c.65.12,1.31-.18,1.64-.76l2.72-5.19c.38-.6.97-1.05,1.65-1.24.61-.16,1.2-.35,1.78-.59.5-.23,1.1,0,1.32.5.02.04.03.08.05.13l1,3.25c.07.39.44.66.83.59.15-.02.29-.1.39-.2l4.34-3.42c.53-.46.83-1.14.83-1.84l-.26-4.13c0-.72.23-1.43.67-2,.71-.85,1.39-1.75,2-2.67.41-.56,1.07-.89,1.76-.9l2.79.14c.68,0,1.3-.39,1.6-1l2.63-5.88c.25-.57-.01-1.24-.58-1.49,0,0,0,0,0,0l-2.25-1c-.59-.27-.91-.92-.77-1.55.21-1,.37-1.89.48-2.81.11-.72.44-1.38.94-1.9l3.84-3.54c.5-.48.75-1.17.68-1.86Zm-18.56,22.3c-4.71,3.7-9.21,2.69-10.06-2.25s2.27-11.94,7-15.64,9.2-2.69,10,2.25-2.24,11.98-6.94,15.64Z"/>
      <path class="cls-24" d="m158.94,80.25l-.72-4.2c-.01-.38-.33-.68-.71-.67-.16,0-.32.07-.44.18l-3.84,2.53c-.52.33-1.21.17-1.54-.35-.23-.33-.48-.63-.75-.92-.46-.49-.63-1.18-.45-1.83l2-5.3c.19-.52-.09-1.09-.61-1.28-.04-.01-.07-.02-.11-.03l-2.89-.65c-.66-.12-1.32.18-1.65.76l-2.72,5.19c-.37.6-.96,1.04-1.64,1.23-.61.16-1.21.36-1.79.59-.5.23-1.1,0-1.32-.5-.02-.04-.03-.08-.05-.12l-1-3.25c-.07-.4-.45-.66-.85-.59-.14.03-.28.1-.38.2l-4.34,3.41c-.52.47-.82,1.14-.82,1.84l.26,4.13c0,.72-.23,1.43-.68,2-.71.86-1.38,1.75-2,2.67-.42.55-1.07.88-1.77.89l-2.79-.14c-.68,0-1.3.39-1.6,1l-2.62,5.88c-.26.55-.02,1.21.54,1.46.01,0,.03.01.04.02l2.25,1c.59.27.91.91.78,1.55-.21.92-.38,1.86-.49,2.8-.1.72-.43,1.39-.94,1.91l-3.84,3.53c-.49.51-.72,1.2-.65,1.9l.73,4.19c.01.38.33.68.71.67.16,0,.31-.06.43-.17l3.84-2.53c.52-.33,1.21-.18,1.55.34,0,0,0,0,0,0,.23.32.47.62.74.91.47.49.64,1.18.45,1.83l-2,5.3c-.19.52.07,1.09.59,1.28.04.01.08.03.12.04l2.9.65c.65.12,1.31-.18,1.64-.76l2.72-5.19c.38-.6.97-1.05,1.65-1.24.61-.16,1.2-.35,1.78-.59.5-.23,1.1,0,1.32.5.02.04.03.08.05.13l1,3.25c.07.39.44.66.83.59.15-.02.29-.1.39-.2l4.34-3.42c.53-.46.83-1.14.83-1.84l-.26-4.13c0-.72.23-1.43.67-2,.71-.85,1.39-1.75,2-2.67.41-.56,1.07-.89,1.76-.9l2.79.14c.68,0,1.3-.39,1.6-1l2.63-5.88c.25-.57-.01-1.24-.58-1.49,0,0,0,0,0,0l-2.25-1c-.59-.27-.91-.92-.77-1.55.21-1,.37-1.89.48-2.81.11-.72.44-1.38.94-1.9l3.84-3.54c.5-.48.75-1.17.68-1.86Zm-18.56,22.3c-4.71,3.7-9.21,2.69-10.06-2.25s2.27-11.94,7-15.64,9.2-2.69,10,2.25-2.24,11.98-6.94,15.64Z"/>
      <g class="cls-33">
        <path class="cls-19" d="m148.52,68.39h.13l2.9.65c.09.01.17.06.21.14.04.08.04.18,0,.26l-2,5.3c-.27.9-.04,1.87.6,2.55.25.26.47.54.68.84.35.51.92.81,1.53.82.36,0,.71-.1,1-.3l3.84-2.52h.07v.07l.73,4.2c.03.46-.12.92-.43,1.26l-3.84,3.51c-.63.63-1.03,1.45-1.16,2.33-.11.92-.26,1.83-.47,2.73-.2.96.29,1.94,1.18,2.35l2.25,1c.21.09.32.33.23.55,0,0,0,.01,0,.02l-2.62,5.88c-.19.34-.54.56-.93.57h0l-2.79-.14h-.11c-.9.03-1.73.47-2.26,1.2-.63.91-1.29,1.79-2,2.61-.55.71-.84,1.59-.83,2.49l.26,4.13c-.02.48-.22.93-.57,1.25l-4.3,3.41-.09.06s-.04-.06-.05-.1l-1-3.25c-.2-.71-.86-1.21-1.6-1.2-.24,0-.47.04-.69.13-.55.22-1.11.41-1.69.56-.87.25-1.62.81-2.09,1.59l-2.66,5.15c-.17.25-.45.41-.75.42h-.13l-2.9-.64c-.09-.02-.16-.07-.21-.15-.04-.08-.04-.18,0-.26l2-5.3c.28-.89.05-1.86-.59-2.54-.25-.26-.48-.54-.69-.84-.34-.5-.91-.81-1.52-.82-.35,0-.7.1-1,.29l-3.84,2.53h-.06s0-.05,0-.08l-.72-4.19c-.04-.47.11-.93.43-1.27l3.84-3.53c.63-.64,1.03-1.46,1.16-2.34.11-.92.26-1.83.47-2.73.21-.96-.28-1.93-1.17-2.34l-2.26-1c-.22-.1-.32-.35-.22-.57,0,0,0,0,0,0l2.62-5.88c.19-.34.55-.56.94-.58h0l2.79.14h.1c.9-.04,1.73-.47,2.27-1.19.62-.91,1.28-1.79,2-2.62.56-.71.85-1.58.84-2.48l-.4-4.07c0-.48.21-.93.56-1.25l4.34-3.42h.09s0,.07,0,.1l1,3.25c.2.71.86,1.21,1.6,1.2.24,0,.47-.05.69-.14.56-.25,1.13-.46,1.72-.64.87-.23,1.62-.8,2.08-1.58l2.73-5.19c.16-.26.44-.42.74-.42m-13.55,37.19c2.15-.12,4.2-.96,5.83-2.37,4.88-3.84,8.12-11.15,7.23-16.3-.54-3.17-2.53-5.06-5.33-5.06-2.15.13-4.2.96-5.83,2.38-4.88,3.83-8.12,11.14-7.23,16.3.54,3.16,2.54,5.05,5.33,5.05m13.55-37.81c-.56,0-1.08.3-1.36.79l-2.72,5.19c-.37.6-.96,1.04-1.64,1.23-.61.16-1.21.36-1.79.59-.14.06-.28.09-.43.09-.43,0-.81-.29-.94-.71l-1-3.25c-.07-.33-.35-.58-.69-.6-.2,0-.39.08-.54.21l-4.34,3.41c-.52.47-.82,1.14-.82,1.84l.26,4.13c0,.72-.23,1.43-.68,2-.71.86-1.38,1.75-2,2.67-.41.53-1.03.86-1.7.89h-.07l-2.79-.14h-.06c-.66.03-1.25.41-1.54,1l-2.62,5.88c-.26.55-.02,1.21.54,1.46.01,0,.03.01.04.02l2.25,1c.59.27.91.91.78,1.55-.22.92-.38,1.86-.48,2.8-.11.72-.44,1.39-.95,1.91l-3.84,3.53c-.49.51-.72,1.2-.65,1.9l.73,4.19c.01.35.3.64.65.66.18,0,.35-.06.49-.16l3.84-2.53c.18-.12.38-.18.59-.18.4,0,.78.2,1,.53.23.32.47.63.74.92.47.48.64,1.18.45,1.82l-2,5.3c-.19.52.07,1.09.59,1.28.04.01.08.03.12.04l2.9.65c.09.01.19.01.28,0,.56,0,1.08-.31,1.36-.79l2.72-5.19c.38-.6.97-1.05,1.65-1.24.61-.16,1.2-.35,1.78-.59.14-.05.28-.08.43-.08.43,0,.81.29.94.71l1,3.25c.06.33.35.58.69.59.19,0,.38-.08.53-.2l4.34-3.42c.53-.46.83-1.14.83-1.84l-.26-4.13c0-.72.23-1.43.67-2,.71-.85,1.39-1.75,2-2.67.4-.54,1.02-.87,1.69-.9h.07l2.79.14h.07c.66-.03,1.24-.41,1.53-1l2.63-5.88c.25-.57-.01-1.24-.58-1.49,0,0,0,0,0,0l-2.25-1c-.59-.27-.91-.92-.77-1.55.21-1,.37-1.89.48-2.81.11-.72.44-1.38.94-1.9l3.84-3.54c.49-.5.73-1.19.65-1.89l-.72-4.2c-.02-.35-.31-.64-.66-.65-.18,0-.35.06-.49.16l-3.84,2.53c-.17.11-.37.18-.58.18-.4,0-.78-.2-1-.53-.23-.33-.48-.63-.75-.92-.46-.49-.63-1.18-.45-1.83l2-5.3c.19-.52-.09-1.09-.61-1.28-.04-.01-.07-.02-.11-.03l-2.89-.65c-.1,0-.19,0-.29,0l.03.03Zm-13.55,37.08c-2.35,0-4.14-1.55-4.65-4.48-.85-4.94,2.27-11.94,7-15.64,1.51-1.32,3.4-2.1,5.4-2.22,2.36,0,4.15,1.54,4.65,4.47.85,4.94-2.27,11.94-7,15.64-1.5,1.33-3.41,2.11-5.41,2.23h.01Z"/>
      </g>
    </g>
  </g>
  <g id="freepik--speech-bubble-2--inject-17">
    <g id="freepik--speech-bubble--inject-17">
      <g id="freepik--speech-bubble--inject-17-2" data-name="freepik--speech-bubble--inject-17">
        <path class="cls-4" d="m369.7,118.94l-2.84-5.39,2.28-6.61v-4l-7,4v4l3,5.22c.05.08.12.15.21.18h0l4.35,2.6Z"/>
        <path class="cls-12" d="m369.7,118.94l-2.84-5.39,2.28-6.61v-4l-7,4v4l3,5.22c.05.08.12.15.21.18h0l4.35,2.6Z"/>
        <path class="cls-4" d="m386.43,70.79c-.08-1.48-.86-2.83-2.1-3.64l-1.71-1c-1.32-.67-2.88-.67-4.2,0l-26.23,15.17c-1.24.81-2.02,2.16-2.1,3.64v28.85c.08,1.48.86,2.83,2.1,3.64l1.71,1c1.32.66,2.88.66,4.2,0l8.44-4.9,3,5.21c.13.22.42.28.63.15.09-.05.15-.13.19-.23l3.17-9.17,10.8-6.25c1.24-.81,2.02-2.16,2.1-3.64v-28.83Z"/>
        <path class="cls-12" d="m350.09,113.82c.08,1.48.86,2.83,2.1,3.64l1.71,1c1.2.6,2.6.66,3.85.16-1,.38-1.75-.18-1.75-1.38v-28.86c.03-.73.24-1.44.62-2.07l-5.91-3.41c-.38.63-.59,1.34-.62,2.07v28.85Z"/>
        <path class="cls-14" d="m386.36,70.19c-.25-.89-1.06-1.18-2-.62l-26.23,15.17c-.62.39-1.13.93-1.48,1.57l-5.9-3.41c.35-.64.85-1.18,1.47-1.57l26.22-15.17c1.33-.66,2.88-.66,4.21,0l1.71,1c1.05.7,1.77,1.79,2,3.03Z"/>
      </g>
      <path id="freepik--Check--inject-17" class="cls-19" d="m379.05,79.19c-1.16-.49-2.5.04-2.99,1.2,0,0,0,.01,0,.02l-8.64,20.55-2.06-2c-.91-.88-2.35-.86-3.23.05-.88.91-.86,2.35.05,3.23l4.47,4.31c.42.42,1,.65,1.59.64.92.01,1.75-.54,2.1-1.39l9.94-23.64c.48-1.16-.07-2.48-1.22-2.97Z"/>
    </g>
  </g>
  <g id="freepik--speech-bubble-1--inject-17">
    <g id="freepik--speech-bubble--inject-17-3" data-name="freepik--speech-bubble--inject-17">
      <g id="freepik--Bubble--inject-17">
        <path class="cls-4" d="m92.24,129.77c-3-1.71-7.17-1.45-11.76,1.2-9.23,5.33-16.71,18.29-16.71,29,0,5.32,1.86,9.07,4.89,10.81l5.71,3.29c3,1.74,7.19,1.49,11.8-1.18,9.23-5.34,16.77-18.34,16.77-29,0-5.31-1.86-9.05-4.87-10.8l-5.83-3.32Z"/>
        <path class="cls-14" d="m92.24,129.77c-3-1.71-7.17-1.45-11.76,1.2-9.23,5.33-16.71,18.29-16.71,29,0,5.32,1.86,9.07,4.89,10.81l5.71,3.29c3,1.74,7.19,1.49,11.8-1.18,9.23-5.34,16.77-18.34,16.77-29,0-5.31-1.86-9.05-4.87-10.8l-5.83-3.32Z"/>
        <path class="cls-4" d="m76.88,174.25c-1.04,1.69-2.47,3.11-4.17,4.14-1.9,1.11-4.08,1.66-6.28,1.58-.1,0-.2-.02-.29-.07l-5.69-3.27c-.28-.15-.38-.5-.23-.77.05-.1.13-.17.23-.23,2.93-1.6,4.88-4.54,5.22-7.86l11.21,6.48Z"/>
        <path class="cls-12" d="m76.88,174.25c-1.04,1.69-2.47,3.11-4.17,4.14-1.9,1.11-4.08,1.66-6.28,1.58-.1,0-.2-.02-.29-.07l-5.69-3.27c-.28-.15-.38-.5-.23-.77.05-.1.13-.17.23-.23,2.93-1.6,4.88-4.54,5.22-7.86l11.21,6.48Z"/>
        <path class="cls-4" d="m93.64,131.96c-2.65.1-5.22.88-7.47,2.28-9.23,5.31-16.71,18.31-16.71,28.95-.1,2.75.56,5.47,1.91,7.86-.33,3.32-2.28,6.27-5.22,7.86-.27.16-.36.51-.2.78.1.17.28.28.48.28h.12c2.16.06,4.29-.49,6.16-1.58,1.49-.91,2.77-2.11,3.78-3.53.73.17,1.48.26,2.23.26,2.64-.1,5.21-.88,7.45-2.28,9.23-5.29,16.77-18.29,16.77-28.95,0-7.56-3.82-11.93-9.3-11.93Z"/>
      </g>
      <path class="cls-19" d="m76.26,158.67c0-.08.02-.17.06-.24,0,0,1.41-2.93,2.18-4.47.67-1.33,1.29-2.42,2-2.25.31.07.42.46.53.88.07.49.32.93.7,1.24.79.49,1.93-.95,2.5-2s1.16-2.94.44-3.58c-.35-.27-.81-.35-1.23-.22-.36.05-.7.11-.89-.2-.45-.74.1-1.88.8-3.18.83-1.51,2.4-4.28,2.41-4.3.05-.08.12-.15.2-.19.06-.02.13,0,.16.07.47.84.99,1.64,1.57,2.41,1.37,1.88,2.07.92,2.57.23.2-.33.32-.7.35-1.08.12-.7.33-1.37.65-2,.57-1.09,1.67-1.92,2.71-1.13.48.38.77.96.77,1.57.02.65-.13,1.29-.44,1.86-.31.6-.73,1.13-1.24,1.58-.28.22-.5.51-.65.84-.31.86-.73,2,1.28,2.69.81.29,1.64.51,2.49.66.06,0,.1.07.12.15,0,.1-.01.2-.06.29,0,0-1.41,2.93-2.18,4.47-.67,1.33-1.29,2.42-2,2.25-.31-.07-.42-.46-.53-.88-.07-.49-.32-.93-.7-1.24-.8-.5-1.81.73-2.5,2s-1.16,2.93-.44,3.58c.35.27.81.35,1.23.22.36-.06.7-.11.89.2.45.74-.1,1.88-.8,3.18-.83,1.51-2.4,4.27-2.41,4.3-.05.08-.12.14-.2.18-.06.03-.13,0-.16-.06,0,0,0,0,0,0-.47-.84-.99-1.64-1.57-2.41-1.37-1.88-2.06-.93-2.57-.23-.2.33-.32.7-.35,1.08-.11.7-.33,1.37-.65,2-.57,1.1-1.67,1.92-2.71,1.14s-.9-2.34-.33-3.43c.31-.6.73-1.13,1.24-1.58.28-.22.5-.51.65-.84.31-.86.73-2-1.28-2.69-.81-.28-1.64-.51-2.49-.67-.06,0-.1-.06-.12-.14v-.06Z"/>
    </g>
  </g>
  <g id="freepik--character-2--inject-17">
    <g id="freepik--Character--inject-17">
      <g id="freepik--Bottom--inject-17">
        <path class="cls-13" d="m249.52,131.94s-4.89,9.21-5.63,13c-.76,3.92-1.92,5.09-1.84,9.47,0,1,.26,2.89.28,3.66.07.63-.39,1.2-1.02,1.27-.07,0-.14,0-.21,0-1.8.12-4.25-3.47-5.14-7.14-.84-4.22-1.42-8.49-1.73-12.78.07-.96.39-1.89.94-2.69.29-.47.63-.91,1-1.32.82-1.64,1.56-4.86,2.36-7.06l10.99,3.59Z"/>
        <path class="cls-25" d="m230.31,142.55c-.28.37-.5.79-.65,1.23-.15.78,1.3,3.61,1.88,4.64.82,1.4,1.07,3.07.68,4.65-.34,2.58.27,5.2,1.71,7.37,1.92,3.02,4.71,5.38,8,6.77,4.06,1.83,5.84-.06,5.84-.06,0,0,1.6-1.83.92-2.75s-18.38-21.85-18.38-21.85Z"/>
        <path class="cls-9" d="m236.17,135.37c-.13,0-.35-.09-.74.26-.14.13-1.18,1.9-2,2.8s-2.72,2.53-3.16,4.1c.55,3.2,3.2,5.73,3.23,8.69s-.38,6.35,3.68,10.5,8.7,5.13,10.51,4.41,1.92-2.51,0-6.19c-2-3.9-2.59-11.86-2.59-11.86-.07-1.12-.07-2.23,0-3.35.2-1.08.48-2.14.84-3.18.16-.49.16-1.02,0-1.51-.27-.44-.66-.79-1.13-1-.71-.44-1.46-.8-2.24-1.08-.79-.27-1.66-.27-2.45,0-.57.21-1.06.59-1.64.74-.8.2-1.65-.06-2.19-.68-.55-.55-.68-1.4-.32-2.09l.2-.56Z"/>
        <path class="cls-22" d="m234.94,158.55c1.71-2.11,4.43-3.13,7.1-2.64,4.84.65,6.18,3.28,6.72,4.8.64,1.8,1.12,5-1,5.6-2.29.67-4.75.05-8.41-2.39-2.04-1.23-3.6-3.13-4.41-5.37Z"/>
        <path class="cls-22" d="m237.84,144.35c.13.08.29.11.44.06.8-.28,4.87-.57,6.88,1.82.33-.19.33-.63,0-1.28-2.1-1.46-4.72-1.96-7.22-1.4-.24.08-.37.34-.29.58.04.11.11.2.21.26l-.02-.04Z"/>
        <path class="cls-22" d="m245.27,149.06c.19-.43.16-.93-.09-1.34-2.08-1.31-4.6-1.73-7-1.19-.24.08-.37.34-.29.58.04.11.11.2.21.26.13.08.29.11.44.06.81-.27,4.67-.54,6.73,1.63Z"/>
        <path class="cls-22" d="m246.35,155.72c.09-.62-.05-1.26-.38-1.79-2.1-1.42-4.7-1.91-7.18-1.36-.24.08-.37.34-.29.58,0,0,0,.02.01.03.04.1.11.18.2.24.14.07.3.07.44,0,.85-.24,5.34-.55,7.2,2.3Z"/>
        <path class="cls-22" d="m238.42,150.39c.13.09.29.11.44.06.79-.27,4.78-.56,6.82,1.75.16-.49.08-1.03-.21-1.46-2.08-1.31-4.6-1.73-7-1.19-.24.08-.37.34-.29.58,0,0,0,.02.01.03.05.1.13.18.23.23Z"/>
        <path class="cls-13" d="m250.3,141.39s.36,9.88,1.13,16.82c.56,5,4.5,7.12,7.84,10.29.72.69,2.35,2,2.95,2.51.5.4.59,1.13.19,1.63-.06.07-.12.13-.19.19-1.25,1.4-7,2.24-10.38.17s-6.78-6.83-8.86-8.56c-.78-.63-1.52-1.29-2.23-2-.68-.69-.57-1.42-.7-2.25-.06-.4-.44-2.44-.44-2.44-.6-1.94-2.17-6.92-2.87-9.17l13.56-7.19Z"/>
        <path class="cls-25" d="m239.24,167.11c-.01.48.06.95.21,1.4.35.73,3.28,2.21,4.39,2.73,1.53.66,2.75,1.9,3.4,3.44,1.3,2.35,3.4,4.15,5.91,5.08,3.43,1.36,7.18,1.66,10.78.87,4.5-.88,4.4-3.52,4.4-3.52,0,0,.15-2.47-1-2.83s-28.09-7.17-28.09-7.17Z"/>
        <path class="cls-9" d="m239.63,157.72c-.12.06-.21.15-.32.66,0,.2.17,2.27.07,3.47s-.73,3.71-.14,5.26c2.41,2.32,6.15,2.85,8,5.27s3.54,5.47,9.45,6.51,9.92-.54,11-2.21-.49-3.26-3.63-5.39c-3.74-2.54-9-8.38-9-8.38-.45-.53-.87-1.09-1.27-1.66-.69-1.08-1.04-2.34-1-3.62,0-.58-.09-1.07-.7-1.32-.29-.1-.59-.14-.9-.13-1.39-.03-2.78.17-4.11.59-.65.2-1.29.46-1.9.76-.48.24-1.19.5-1.44,1-.09.23-.12.48-.08.72.07.8.2,1.6.41,2.38.04.11.04.23,0,.34-.2.38-1.43-1.26-1.6-1.46-.36-.46-.84-.81-1.39-1-.52-.12-.94-.5-1.11-1l-.34-.79Z"/>
        <path class="cls-22" d="m252.85,177.55c.14-2.76,1.8-5.22,4.31-6.37,4.43-2.32,6.3-.65,7.67.28,1.63,1.11,4.45,3.38,3.06,5.14s-3.56,2.64-8.1,2.79c-2.46.19-4.9-.46-6.94-1.84Z"/>
        <path class="cls-22" d="m246.62,164.17c.16,0,.31-.09.4-.22.5-.7,3.72-3.34,6.85-2.55.16-.36-.11-.72-.75-1.09-2.65.01-5.18,1.14-6.95,3.12-.15.21-.1.49.11.64,0,0,.02.01.03.02.09.05.2.08.31.08Z"/>
        <path class="cls-22" d="m255.69,163.67c-.12-.47-.45-.86-.9-1.05-2.5.14-4.85,1.27-6.53,3.13-.15.21-.1.5.11.66.1.07.21.1.33.08.16,0,.31-.08.41-.21.48-.68,3.53-3.19,6.58-2.61Z"/>
        <path class="cls-22" d="m260.64,168.55c-.3-.58-.8-1.02-1.41-1.26-2.6.06-5.07,1.19-6.81,3.12-.15.22-.09.52.13.67,0,0,0,0,0,0,.09.05.2.08.31.07.16,0,.31-.08.4-.21.53-.75,4.08-3.66,7.37-2.39Z"/>
        <path class="cls-22" d="m250.79,168.82c.16,0,.31-.09.4-.22.49-.69,3.64-3.28,6.74-2.57-.17-.51-.56-.91-1.06-1.09-2.5.15-4.85,1.28-6.53,3.14-.15.21-.1.49.11.64,0,0,.02.01.03.02.09.06.2.08.31.08Z"/>
        <path class="cls-29" d="m231.84,78.68s17.92,10.86,26.19,20.42c3,3.42,4.76,6.37,1,14.6-2.89,6.34-7.24,14.89-11.74,23l-36.63-49.44,21.18-8.58Z"/>
        <path class="cls-9" d="m247.3,136.75l-22.75-40.79.87-.09c4.78-1.78,7-8,7-8,.28,2.89-.62,5.77-2.48,8,2.54,2.08,8.26,6.79,17.05,14.16,1.53,1.29,4.4,3.71,4.18,8.17-.32,6.32-.95,13.14-.95,13.14l-2.92,5.41Z"/>
        <path class="cls-29" d="m231.87,78.68h0l-38.53,3.64c-.25,4.59.64,12.27,3.82,17.63,2.31,3.89,5,6.32,14.43,12,8.83,5.28,16.75,9.71,18.77,10.94,1.52.93,1.26,5.14,1.86,9.26,1.21,8.38,5.55,21,5.55,21,4.54,1.04,9.3.17,13.17-2.42,0,0-.56-18.68-1-24.85-.52-7.4-.36-9.23-3.82-13-3-3.23-20.72-17-20.72-17,0,0,9.27-8.47,6.47-17.2Z"/>
        <path class="cls-9" d="m198.41,81.84c-.13,6.3.47,11.12,4.74,16,3-1.79,2.5-3.63,1.6-6.92-.27-1-.58-2.11-.82-3.37-.41-2.03-.63-4.1-.65-6.17h.53c.02,2.06.23,4.1.64,6.12.24,1.24.55,2.35.81,3.33.9,3.28,1.49,5.48-1.75,7.46,1.09,1.17,2.26,2.25,3.51,3.24,6.49,5.18,15.72,11.36,21.24,15,1.92,1.29,3.45,2.31,4.23,2.87,3.19,2.29,3.37,4.13,3.14,9.68-.29,6.95,3.31,17.47,4.93,24.47h-.55c-1.69-7.2-5.36-17.83-4.91-24.5.37-5.62-.05-7.15-2.92-9.2-.78-.56-2.29-1.58-4.22-2.86-5.52-3.7-14.76-9.89-21.27-15.09-8-6.37-9-12-8.81-20l.53-.06Z"/>
      </g>
      <g id="freepik--Top--inject-17">
        <path class="cls-13" d="m261.44,53.29c-1.38,1.06-2.83,2.71-5.19,4.6s-6,5.18-9.38,7.14-5.11,2.75-9.28-1.69c-3.8-4.25-7.29-8.77-10.43-13.52l.31-16.18c3.54,1.13,5.56,3.06,7.71,6.46,4.06,6.41,6.81,10.55,9.16,14.24,0,0,10.07-5.72,11.38-6.64,1-.67,1.73-1.67,2.08-2.82.3-.96.65-1.9,1.06-2.82.41-1,.57-1.35,1.05-2.57s.86-3.3,1-3.76,1.06-.46,1.71.81c.29.8.38,1.66.26,2.5,0,.76-.28,1.68-.06,1.8s1.31-.41,2.4-.66,2-.7,3.24-.33c.76.17,1.23.93,1.06,1.69-.01.06-.03.13-.06.19-.15.29-.37.54-.65.72.42-.04.84.09,1.15.37.5.61.5,1.48,0,2.09.47.01.86.37.91.84.12.71,0,1.41-.67,1.68,0,0,.58.14.62.49.1.58-.12,1.17-.57,1.55-.63.28-1.31.44-2,.47,0,0-.11.25-.79.59-.72.46-1.48.86-2.27,1.2-1.32.34-2.58.87-3.75,1.56Z"/>
        <path class="cls-26" d="m244.34,54.34c-1.82,1.19-3.08,3.07-3.47,5.21-.26-2.38.92-4.69,3-5.87l.47.66Z"/>
        <path class="cls-4" d="m219.44,33.39c8.29-1.62,11.8,1.81,13.28,3.33s4.09,5.84,5.66,8.24,3.24,4.92,3.24,4.92c0,0,0,6.15-7.81,9.32l-6.87-9.2-7.5-16.61Z"/>
        <path class="cls-26" d="m266.61,48.3c.31-.05.62-.15.91-.28.29-.09.58-.16.87-.22.6-.12,1.2-.23,1.8-.37-.61,0-1.22.09-1.83.17-.31.04-.61.1-.91.19-.27.12-.56.2-.85.24-.28,0-.56-.08-.81-.22-.27-.09-.52-.25-.72-.45-.08-.12-.14-.24-.17-.38-.03-.13,0-.27.09-.38.14-.16.32-.28.53-.33.21.06.42.11.63.13.34-.02.68-.1,1-.24.31-.13.63-.25.93-.39.62-.28,1.24-.55,1.84-.86-.65.2-1.28.43-1.91.66-.6.28-1.24.47-1.89.57-.32-.02-.64-.09-.93-.23-.3-.13-.58-.3-.85-.49-.27-.16-.43-.47-.39-.78.03-.17.12-.33.25-.45h.23c.38-.06.77-.07,1.17-.13.4-.05.79-.16,1.15-.33.72-.33,1.39-.74,2-1.24-.32.22-.65.41-1,.57-.34.19-.7.35-1.06.49-.36.14-.73.24-1.11.28-.38.05-.77.05-1.17.11l-.58.08c-.18,0-.25,0-.34-.19-.11-.35-.02-.74.24-1,.49-.59,1.16-1.02,1.91-1.2h0c.06-.17.15-.32.26-.46.11-.14.23-.27.36-.4-.14.11-.28.23-.41.36-.12.13-.22.27-.3.43-.78.15-1.48.56-2,1.16-.13.16-.24.34-.3.54-.09.21-.09.46,0,.67.05.11.12.21.22.28h.05c.77,2.04-.11,4.34-2.05,5.34.76-.27,1.45-.72,2-1.31.47-.47.81-1.05,1-1.69l.22.32c-.01.05-.01.11,0,.16.02.16.08.32.16.46.21.25.48.44.78.56.18.09.37.16.57.22-.05.07-.07.15-.08.24,0,.14.03.28.1.4.14.22.31.42.5.59.1.09.2.17.31.24.11.07.24.13.37.15.25.05.5.08.76.07l-.7-.26c-.1-.05-.2-.1-.29-.16-.1-.07-.19-.15-.28-.23-.18-.16-.34-.33-.5-.51-.12-.14-.17-.33-.14-.52.12.02.24.03.36.02Z"/>
        <path class="cls-22" d="m192.5,59.55c-.06.76-.08,1.57-.09,2.41,0-.84,0-1.65.09-2.41-.05.86-.07,1.8-.07,2.76v-1.65c0-.09,0-.17,0-.26v-.85c0-.28,0-.62.05-.93v-1.07s0-.09,0-.14v-.28c.11-1.27.24-2.52.44-3.71.63-5.1.53-11.11,5.13-14.19,3.63-1.5,6.87-2.64,12-4.6,3.79-1.48,7.94-1.78,11.9-.86,2.27.11,4.44.96,6.19,2.41,5.08,4.59,5.75,12.06,5.8,18.51l.19,13.15c.17,4.31-.23,8.84,1.56,12.86,0,.14.11.27,0,.45v.17c-1.79,3.87-5.39,6.83-9.12,8.79-7.46,4-24.59,6.89-32.47,3.62-1-5.6-1-11.41-1.36-17.1.03-4.98-.6-12.08-.24-17.08Z"/>
        <path class="cls-10" d="m217.6,34.55c1.45.04,2.9.21,4.32.49h.15c1.98.1,3.88.83,5.41,2.09,4.68,4.22,5.35,11.26,5.39,17.59l.19,13.19c0,.89.05,1.78.06,2.68,0,3.4.08,6.92,1.43,10.22l-.05.06.07.31c-1.93,3.41-4.85,6.14-8.38,7.84-5.33,2.87-15.6,5-23.39,4.89-2.5.02-4.98-.34-7.37-1.08-.57-4.05-.91-8.14-1-12.23-.06-1.35-.12-2.69-.19-4s-.14-3-.23-4.66c-.17-3.16-.36-6.65-.33-9.67h0v-.09h0v-2.53l-1.18-.1h0l1.25.06v-1l.06-.79v-.61c.12-1.43.26-2.58.43-3.66.09-.73.17-1.47.24-2.23.43-4.26.88-8.66,4.25-11,2.41-1,4.64-1.82,7.44-2.87l4.41-1.66c2.23-.88,4.62-1.3,7.02-1.24m-25.1,25h0m25.12-26.31c-2.53-.03-5.03.44-7.38,1.37-5.13,2-8.37,3.1-12,4.6-4.6,3.08-4.5,9.09-5.13,14.19-.2,1.19-.33,2.44-.44,3.71v.28s0,.09,0,.14v1s0,.06,0,.09c0,.31,0,.62-.05.93s0,.57,0,.85c0,.09,0,.17,0,.26v1.65c0-1,0-1.9.07-2.76-.05.76-.08,1.57-.09,2.41,0-.84,0-1.65.09-2.41-.36,4.94.27,12.06.45,17.06.32,5.69.36,11.5,1.36,17.1,2.72.98,5.58,1.46,8.47,1.41,8.32.15,18.65-2.15,24-5,3.73-2,7.33-4.92,9.12-8.79v-.17c.13-.18.05-.31,0-.45-1.79-4-1.39-8.55-1.56-12.86l-.19-13.15c-.05-6.45-.72-13.92-5.8-18.51-1.75-1.45-3.92-2.3-6.19-2.41-1.49-.29-3-.46-4.52-.51l-.21-.03Z"/>
        <g id="freepik--Head--inject-17">
          <path class="cls-25" d="m206.82,31.82c-.48-3-3.93-6.88-5.24-9.5s-2-4.49-1.83-6.85c.11-1.4,1-3.29,2.05-3.67-.91-3.47,1.16-7.03,4.63-7.94.08-.02.16-.04.25-.06.98-.19,1.94-.45,2.88-.77,1.13-.46,1.4-1.36,2.32-2.12,1.58-1.31,4.21-1.31,5.19.72,1.06-1.34,2.47-1.29,4.1-.85,1.42.34,2.34,1.73,2.1,3.17,1.37-.86,3.18-.46,4.04.91.14.21.24.45.32.69.14,1-.07,1.75.54,2.6.39.7,1.27.96,1.97.57.17-.09.32-.22.44-.37.21,1.35-.33,2.36-1.79,2.27.5.76.63,1.7.35,2.57-.37,1.1-1.38,1.85-2.54,1.89-.06.73-.29,1.43-.67,2.05-.45.64-1.05,1.16-1.74,1.52-2.27.88-4.64,1.49-7.05,1.8l-2.83.55c-.16,0-1,.07-1.12.22l-6.37,10.6Z"/>
          <path class="cls-13" d="m202.72,27.19c2.09,1.28,3.93-.8,3.93-.8l-.56,10.84c1.75,3.81,8.73,6.42,13,4.89,2.73-1,1.62-3.14,0-5.15l.09-2.81c.9.02,1.8-.02,2.69-.13,2.35-.29,4.13-2.17,4.84-4.7.78-3.3.92-6.71.41-10.06-.15-.81-.18-1.64-.1-2.46.19-1.79-.03-3.6-.66-5.29-2.56-2.11-8.52-2.9-14.12.42.6,3.32-.72,5.93-3.14,7.16.1.89.18,3.15-1.29,3.09-1.06,0-1.11-1.37-2.18-2.55s-3.61-1.53-4.61.18c-1.37,2.53-.64,5.69,1.7,7.37Z"/>
          <path class="cls-25" d="m212.19,17.4l-7.06,1.84c.43.29.78.68,1,1.15l6.16-1.35-.1-1.64Z"/>
          <path class="cls-9" d="m228.41,16.38c-1.67-.2-3.37-.07-5,.36-1.44.55-1.93,1.11-2.74,1.16s-1.45-.47-3-.86c-1.63-.25-3.3-.22-4.92.1-.56,0-1,.23-1,1s.53.82.66,1.41c.33,2.19.91,5,3.83,4.69,4.67-.22,2.84-5.14,4.72-5,.7.14.69,1.54,1.18,2.54.22.47.53.89.91,1.25,1.82,1.62,4.9.44,5.18-1.43.2-.95.32-1.92.37-2.89.12-.53.49-.72.49-1.44-.15-.47-.42-.87-.68-.89Zm-9.47,4.5c-.08.57-.3,1.1-.65,1.56h0c-1.08,1.49-4.22,1.3-4.76-.65h0c0-.1-.08-.21-.11-.31-.26-.84-.63-2.64-.22-3.18.76-.9,4.48-.94,5.6.32.28.72.33,1.51.14,2.26Zm8.85-.78c.11,1.46-.98,2.73-2.43,2.85-.9.07-1.78-.32-2.33-1.05-.65-1.04-.86-2.29-.6-3.48.63-.68,1.48-1.11,2.4-1.23.93-.26,1.93-.13,2.77.35.34.31.26,1.8.17,2.56h.02Z"/>
          <path class="cls-26" d="m219.73,21.05l.75,4.71,3.66-1.21c-.13-.23-2.08-4.47-3.48-5.3-.72,0-.72.89-.93,1.8Z"/>
          <path class="cls-26" d="m219.13,34.16c-3.67-.22-7.41-.94-9.31-3.66-.88-1.4-1.62-2.88-2.19-4.43.13,1.93.65,3.81,1.53,5.54,1.4,2.31,4.09,3.62,9.92,4.19l.05-1.64Z"/>
          <path class="cls-25" d="m217.06,19.85c.03.58-.42,1.08-1,1.12-.6.02-1.1-.44-1.12-1.04,0,0,0-.01,0-.02-.02-.58.44-1.06,1.01-1.08.58-.02,1.06.44,1.07,1.01h.03Z"/>
          <path class="cls-25" d="m216.61,14.74l-2.27,1.17c-.32-.65-.07-1.43.57-1.77.62-.31,1.37-.06,1.68.55,0,.01.01.03.02.05Z"/>
          <path class="cls-11" d="m216.73,25.96l3.43,1.13c-.34.96-1.38,1.47-2.35,1.17-.92-.31-1.42-1.31-1.11-2.23,0-.02.02-.05.03-.07Z"/>
          <path class="cls-23" d="m218.7,28.31c-.32-.92-1.11-1.59-2.07-1.76-.04.78.44,1.48,1.18,1.73.29.08.6.09.89.03Z"/>
          <path class="cls-25" d="m225.51,15.02l-2.41-.91c.21-.65.91-1.01,1.56-.8.02,0,.04.01.06.02.67.26,1.02,1.01.79,1.69Z"/>
          <path class="cls-25" d="m225.35,19.64c-.08.55-.58.93-1.13.85s-.93-.58-.85-1.13c.07-.49.49-.86.98-.86.58.03,1.03.53,1,1.12,0,0,0,.02,0,.02Z"/>
        </g>
        <g id="freepik--Laptop--inject-17">
          <path class="cls-10" d="m266.26,95.55v.5c.01.72-.37,1.4-1,1.76l-36.11,20.27c-.3.18-.65.27-1,.26-.35,0-.7-.1-1-.28l-19.51-11.44c-.63-.38-1.01-1.06-1-1.79v-.69h0c0,.09.05.18.13.23l21.31,12.65,38.18-21.47Z"/>
          <path class="cls-25" d="m228.09,117.02v1.36c.35,0,.7-.09,1-.26l36.11-20.27c.63-.36,1.01-1.04,1-1.76v-.54l-38.11,21.47Z"/>
          <path class="cls-15" d="m206.82,104.3c-.06-.03-.09-.09-.09-.16,0-.07.04-.14.1-.17l37.11-20.85c.18-.11.4-.16.61-.15.19,0,.38.06.54.16l21,12.46-38,21.34-21.27-12.63Z"/>
          <path class="cls-10" d="m244.57,83.05c.17,0,.34.06.49.15l20.88,12.35-37.85,21.25-21.23-12.6s-.02-.06,0-.09c-.02-.03-.02-.07,0-.1l37.14-20.85c.17-.1.37-.15.57-.14m0-.16c-.23-.01-.46.04-.66.15l-37.13,20.86c-.13.07-.18.24-.1.37.02.04.06.08.1.1l21.31,12.65,38.17-21.44-21.11-12.53c-.17-.1-.37-.16-.57-.17h-.01Z"/>
          <polygon class="cls-10" points="227.92 115.21 216.53 108.46 250.29 89.5 261.74 96.22 227.92 115.21"/>
          <polygon class="cls-10" points="261.74 96.22 261.3 96.47 250.28 90.01 216.97 108.72 216.53 108.46 250.29 89.5 261.74 96.22"/>
          <polygon class="cls-31" points="261.74 96.22 261.3 96.47 250.28 90.01 216.97 108.72 216.53 108.46 250.29 89.5 261.74 96.22"/>
          <polygon class="cls-10" points="222.5 96.75 222.71 96.87 228.29 100.18 238.36 94.53 238.57 94.42 232.77 90.98 222.5 96.75"/>
          <polygon class="cls-31" points="222.5 96.75 222.71 96.87 228.29 100.18 238.36 94.53 238.57 94.42 232.77 90.98 222.5 96.75"/>
          <polygon class="cls-10" points="222.71 96.87 228.29 100.18 238.36 94.53 232.77 91.22 222.71 96.87"/>
          <g id="freepik--Arm--inject-17">
            <path class="cls-13" d="m182.58,74.64c2.35-8.68,3.7-16.52,6-23.07,1.34-3.88,1.83-9.25,9.6-11.59,4.75,3.8,3.8,14.06,2.95,16.6l-5.45,19.91s1.35,1.72,5.88,6.33c3.84,3.92,5.71,5.35,10.19,6.14,4.48.79,4.88.49,7.17,1.65,1.22.61,4,2,5,2.57s2.59,2.4,4.14,3.68-.49,1.86-1.64,1.45c-1.23-.49-2.39-1.13-3.45-1.91-.96-.53-1.96-.97-3-1.33.27,1.18.42,2.37.45,3.58,0,.64.06,1.44-.53,1.88-.43.23-.9.39-1.38.48-.03.23-.13.45-.3.61-.34.23-.76.31-1.17.24-.22-.03-.44-.08-.65-.14-.09.42-.39.75-.79.89-.91.23-1.86.22-2.76-.05l-1.42-.85c-.43-.25-.81-.4-1-.7s.46-1.09,1-1.14c.59-.03,1.18.04,1.75.21-.21-.49-.35-1.01-.43-1.54-.44-.8-3.94-.21-7-.91-2.29-.53-3.9-2.73-4.86-3.35-4.71-2.93-9.23-6.14-13.54-9.63-5.82-4.61-6.02-5.35-4.76-10.01Z"/>
            <path class="cls-26" d="m219.06,93.06c.38.62.66,1.3.86,2l.59.24c-.31-.89-.8-1.96-1.45-2.24Zm-2.05.67c.2.24.36.51.48.8.13.28.23.58.31.88.15.6.26,1.22.32,1.84.08.62.15,1.25.22,1.87.07.63.11,1.26.12,1.89.14-.62.19-1.26.16-1.9,0-.64-.05-1.28-.14-1.91-.06-.64-.2-1.27-.41-1.88-.2-.62-.57-1.17-1.06-1.59h0Zm-1.16,2.41c-.14-.62-.44-1.19-.87-1.66.17.25.3.53.38.83.08.3.16.6.22.9.12.6.23,1.21.32,1.82.19,1.22.36,2.44.44,3.69.1-.62.13-1.24.1-1.87-.02-.63-.08-1.25-.18-1.87-.09-.62-.23-1.24-.41-1.84h0Zm-4.46,3.73c.26.02.52.07.77.15.21.08.41.17.6.27,0,.07,0,.15,0,.22.03.11.09.21.16.3.13.18.3.3.51.37-.12-.15-.22-.32-.29-.5-.03-.08-.06-.16-.07-.25,0-.07,0-.14,0-.21v-.14l-.14-.07c-.23-.1-.47-.17-.72-.2-.27-.05-.56-.03-.82.06h0Z"/>
            <path class="cls-4" d="m198.32,39.25c-5.09,2-7.06,3-9,8.64-2.36,6.86-5.12,17.29-5.12,17.29,0,0,1.71,2.54,6.69,3.9s7.26.11,7.26.11c0,0,2.66-8.7,3.7-12.32s1.84-14.32-3.53-17.62Z"/>
          </g>
          <path class="cls-25" d="m228.67,117.33c.68.27,1.45.22,2.09-.14l35.95-20.18c.63-.36,1.07-.98,1.2-1.69l4.18-23.25c.01-.13.01-.27,0-.4.01-.65-.24-1.28-.7-1.74l-37.35,21c-.47.26-.79.72-.89,1.25l-4.48,25.15Z"/>
          <path class="cls-29" d="m228.09,117.02l.24.14c.11.07.22.12.34.17l4.52-25.17c.1-.53.42-.99.89-1.25l37.35-21c-.15-.14-.31-.26-.49-.36l-37.43,21c-.46.26-.79.72-.88,1.24l-4.54,25.23Z"/>
          <path class="cls-9" d="m233.55,91.38l-.58-.34c-.17.23-.29.49-.34.77l-4.54,25.21.24.14c.11.07.22.12.34.17l4.52-25.17c.05-.29.18-.55.36-.78Z"/>
          <path class="cls-4" d="m249.03,96.05c.58-1.94,1.89-3.58,3.65-4.58,1.74-1,2.92-.51,2.64,1.05-.58,1.94-1.89,3.59-3.65,4.59-1.73.97-2.92.5-2.64-1.06Z"/>
        </g>
      </g>
    </g>
  </g>
  <g id="freepik--character-3--inject-17">
    <g id="freepik--character--inject-17">
      <g id="freepik--bottom--inject-17">
        <g id="freepik--bottom--inject-17-2" data-name="freepik--bottom--inject-17">
          <polygon class="cls-25" points="405.01 293.08 402.72 291.84 405.05 291.28 405.01 293.08"/>
          <path class="cls-25" d="m381.64,296.55s28.08-11.52,28.36-9.64c.06.38.04.76-.06,1.13.02-.04.05-.07.08-.1l-.64,3.47c-1.27.96-2.78,1.53-4.37,1.65v-1.8c-.86.32-1.69.73-2.48,1.21-1.82,1.11-3,3.13-5,5.46-1.43,1.69-3.9,2.42-7.54,2.8-3.91.41-7.31-.47-8.24-1.55-.48-.8-.52-1.79-.11-2.63Z"/>
          <path class="cls-11" d="m382.43,295.95c.85-.87,1.75-1.69,2.68-2.47,1.31-1.16,2.69-2.25,4.11-3.27.71-.47,1.38-.99,2-1.57.5-.5,1-1,1.43-1.57,1.23-1.53,2.31-3.18,3.21-4.93.73-1.29,1.08-2.77,1-4.25.01-4.14-.23-8.27-.74-12.38l13.31.21c-.47,2.1-.74,5.69-1,8.09-.44,3.64-.57,4.45.71,8.15.51,1.04.85,2.15,1,3.29,0,1.88-1.5,3.44-3.17,4.29-1.38.71-2.95,1-4.29,1.74-1.37.87-2.58,1.98-3.57,3.27-1,1.16-1.77,2.55-3.1,3.34-1.41.77-2.96,1.24-4.56,1.4-2.01.28-4.04.31-6.05.08-2.88-.33-4.98-1.46-2.97-3.42Z"/>
          <path class="cls-9" d="m393.42,290.62c-1.28-.79-2.83-.99-4.27-.55-2.1,1.55-3.83,2.93-5.06,3.89-1.49,1.17-2.8,2.24-2.8,3.64,0,2.2,8.46,3.18,13.28,1.27,1.48-.46,2.72-1.47,3.46-2.83,0,0-.59-3.1-4.61-5.42Zm16.41-7.29c-.67-1.44-.92-2.17-.92-2.17-2.92,2.03-4.32,5.62-3.54,9.09,1.74-.27,3.28-1.25,4.27-2.7.86-1.26.94-2.89.19-4.22Z"/>
          <path class="cls-25" d="m430.36,286.14c-.78,1.25.23,6,.05,9.37-.16,3.07-1,8.41,0,11.44,1.12,3.59,3.39,7.76,7.61,4.39,2.62-2.08,4.12-4.78,4.47-9.19.25-3.07-1-7.31-2-11.08-1.22-4.39-1.69-6.74-1.69-6.74l-8.44,1.81Z"/>
          <path class="cls-11" d="m439.02,263.55c.3,7.15-.53,12.17-.58,16.75.02,2.08.24,4.15.66,6.19.6,2.92,1.62,7,2,8.88.6,2.64,1.06,4.31.14,7.28-.08.23-.18.46-.3.67-1.27,2.45-4.52,4.3-5.56,4-.43.55-1.15.8-1.83.64l-.35-.09c-.12-.03-.23-.08-.34-.14-.86-.47-1.49-1.28-1.73-2.24-.07-.21-.13-.43-.17-.65-.46-2.48-.51-5.02-.14-7.51.06-2.15,0-4.31-.16-6.46-.25-5.08-.82-10.13-1.71-15.14-.7-2.81-1.56-6.34-2.47-10.1l12.54-2.08Z"/>
          <path class="cls-9" d="m441.78,298.78c-2.56-1.13-10-1.28-11.17,2.33,0,3.4-.05,5.71,2.09,8.67,2.86,3.94,6.59-.23,8-2.88,1.18-2.53,1.55-5.37,1.08-8.12Z"/>
          <path class="cls-9" d="m429.34,170.09c3.62,6.49,6.53,12,7.48,29.09,1.06,19.33.9,26.69,1,29s1.6,6.62,2.88,18.11-.07,39.34-.07,39.34c0,0-.9,1.88-5.3,2.31-2.2.31-4.43-.04-6.43-1,0,0-7.83-34.86-9.38-41.78-2.19-9.79-5.42-29.18-5.42-29.18l-2,16.3s1.29,6.34.12,16.43-3.32,29.4-3.32,29.4c-1.81,1.17-3.86,1.91-6,2.18-2.28.28-4.59-.22-6.56-1.42,0,0-3.93-40-4-51.43s.8-39.95,4.27-56.89l32.73-.46Z"/>
          <path class="cls-25" d="m398.94,186.93c1.76,4.71,8.06,8,10.82,8.61l2.83,20.19-.46,16.54,2-16.3-3.24-24.14s-7.69-.49-11.95-4.9Zm26.13-2.49c.46,1.85.89,3.71,1.34,5.57s.88,3.73,1.36,5.61c0-1.93-.14-3.87-.43-5.78-.27-1.91-.63-3.81-1.09-5.69-.46-1.88-1.02-3.73-1.69-5.55-.65-1.83-1.5-3.58-2.52-5.23.59,1.84,1.12,3.68,1.62,5.52s.95,3.66,1.39,5.55h.02Zm3.22-3.6c.63,1.11,1.23,2.24,1.84,3.37l1.78,3.45c-.14-1.31-.45-2.6-.91-3.83-.46-1.23-1.01-2.43-1.64-3.58-.64-1.14-1.36-2.24-2.15-3.29-.79-1.05-1.67-2.03-2.64-2.91.58,1.18,1.22,2.31,1.85,3.43s1.24,2.24,1.85,3.36h.02Zm-2.49,52.21c-1.14-5.91-2-11.89-2.79-17.87s-1.59-12-2.47-18c.41,6,.89,12.06,1.53,18.08s1.4,12,2.54,18,2.42,11.85,3.7,17.76,2.62,11.81,4,17.69c-.96-6-2-11.96-3.11-17.88-1.07-5.92-2.26-11.87-3.42-17.78h.02Zm-27.65-19.91l.87-15.78c-.77,5.22-1.37,10.46-1.82,15.71-.43,5.26-.84,10.5-.82,15.83.22,5.3.66,10.53,1.13,15.78s1,10.49,1.69,15.72c-.19-5.27-.43-10.54-.74-15.79l-.46-7.88c-.15-2.62-.33-5.26-.4-7.86s.07-5.23.17-7.85.23-5.26.36-7.88h.02Z"/>
        </g>
      </g>
      <g id="freepik--top--inject-17">
        <path class="cls-11" d="m357.81,142.89c.57.12,1.11.32,1.63.58-1.14-.67-2.11-1.61-2.82-2.73-.11-.21-.16-.44-.16-.67,0-.19.15-.72.46-.82l-.83-1c-.32-.38-1-1.3-.28-1.61s1.29.06,2.08.57c-.32-.3-.53-.69-.62-1.12,0-.78.57-1.16,2-.31s5.12,3.16,8.17,3.44c.55.05,1.63.3,2.12,0h0c.68-.45-.16-1.38-.51-1.77-.34-.38-.65-.77-.93-1.19-.33-.46-.57-.97-.71-1.52-.13-.56-.01-1.14.33-1.6.2-.23.49-.4.74-.18,1,.91,2,1.78,3,2.68,1,.82,1.92,1.73,2.75,2.71.9,1.16,1.57,2.72,2.89,4.34,1.82,2.17,3.88,4.13,6.14,5.84,1.87,1.53,5,4.3,5,4.3,0,0,5-9.36,7-13.08,3.64-6.79,6.8-8.55,13-9.4l-1.63,15.45s-6.71,14.29-9.31,18.94-4.95,5.4-6.73,5.19h0c-5.59-.74-9.67-8-17.44-18.51-1.14-1.58-2.89-2.6-4.83-2.8-1-.1-2.2-.29-2.88-.39-1.05-.2-2.08-.49-3.08-.86-1.64-.63-1.67-.5-4-2.4-.29-.23-1.42-1.28-1.32-1.63.08-.33.42-.54.75-.46,0,0,.01,0,.02,0Z"/>
        <path class="cls-18" d="m359.44,143.47c.73.4,1.49.73,2.27,1,.77.29,1.57.48,2.36.78-.84-.06-1.66-.22-2.46-.49-.81-.27-1.55-.71-2.17-1.29Z"/>
        <path class="cls-18" d="m374.1,145.45c0-.16-.03-.32-.08-.47-.1-.3-.24-.59-.43-.84-.35-.51-.83-.93-1.38-1.22-1.23-.66-2.71-.63-3.91.07,0,0-.07.15,0,.14,1.22-.35,2.52-.26,3.69.24.94.59,1.61,1.51,1.88,2.59,0,.1.13.07.15,0,.05-.16.08-.34.08-.51Z"/>
        <path class="cls-18" d="m365.29,140.91c-1.28-.46-2.53-1.02-3.74-1.66-1.16-.58-2.28-1.25-3.4-1.89h0c1.08.9,2.26,1.67,3.53,2.27,1.17.53,2.38.95,3.62,1.28h-.01Z"/>
        <path class="cls-18" d="m365.19,143.21c-1.28-.47-2.53-1.03-3.74-1.67-.46-.23-.92-.48-1.37-.73-.46-.23-.9-.49-1.32-.78l-.39-.27c-.16-.12-.32-.23-.49-.33-.19-.09-.4-.14-.61-.15h0c.26.06.5.17.71.33.15.1.29.21.42.33l.37.28c.39.3.79.57,1.21.82.53.32,1.07.62,1.62.89,1.17.53,2.38.95,3.62,1.28,0,0-.02,0-.03,0Z"/>
        <path class="cls-9" d="m408.94,129.96c-6.48.77-9.3,2-11.9,6-2.44,3.8-8.84,16.41-8.84,16.41l-5.47-4.41s.36,1.64-1.49,4.64c-1.07,1.77-2.84,3.01-4.87,3.4,1.96,3.06,4.12,5.99,6.45,8.77,3.12,3.55,6.28,6.19,9.68,5.09s5-4.38,7-8.24,7.63-16,7.63-16l1.81-15.66Z"/>
        <path class="cls-25" d="m393.94,162.29c-.68-3.64-3-8.11-5.81-9.88l.69-1.35c4.31,2.92,5.2,7.92,5.12,11.23Z"/>
        <g id="freepik--head--inject-17">
          <path class="cls-25" d="m421.17,126.26c.42-.27.87-.49,1.34-.66,2.39-.84,5.06.25,7.26-1.22,1.34-.91,2.19-2.38,2.3-4,.94.86,2.38.88,3.34.05-.8.23-1.88,0-2.08-.82s.63-1.51,1.19-2.16c.9-1.13,1.16-2.64.68-4-.47-1.42-1.86-2-2.08-3.57-.04-.92.04-1.84.25-2.74.18-1.78-.3-3.56-1.36-5-.48-.67-1.07-1.24-1.76-1.69-.19-.12-2.62-1.11-2.63-.82.02-2.87-2.03-5.34-4.86-5.85-.85-.13-1.71-.06-2.55-.17-1.82-.22-3.29-1.42-5-1.73-1.61-.3-3.27-.1-4.77.56-1.39.66-2.07,1.88-3.26,2.73s-3,.87-4.54,1.28c-2.12.47-3.75,2.14-4.17,4.27-.19,1.58.49,3.33-.35,4.67-.37.47-.77.92-1.19,1.34-.69.9-.93,2.06-.65,3.16.28,1.22,1.16,2,1.56,3.17.28.69.13,1.48-.4,2-.57.45-1.66.11-1.66-.62-.35.71-.12,1.57.54,2,.78.47,1.69.65,2.59.52-.39,1.48-.73,3.22.23,4.41s2.65,1.23,3.86,2.08c.71.65,1.38,1.34,2,2.07,1.35,1.23,3.23,1.7,5,1.25,1.75-.47,2.86-1.43,4.63-.64,1.26.56,2.52,1.32,3.89,1.17.95-.16,1.85-.52,2.65-1.04Z"/>
          <path class="cls-11" d="m410.4,131.48c.42-.41.95-.7,1.52-.84.59-.1.63-.75.68-1.8v-1.63c-1.91.26-3.85-.25-5.38-1.43-2.28-1.82-3.63-5.57-3.61-9.68.09-1.56.29-3.11.6-4.64-.4-3.63-.15-4.29.62-6.22,1.39-3.06,5.18-4.33,7-1.19,4.58-3.92,10.05.72,10.11,6.35-.44,4.66,1,4.83,1.91,4.82,1.2-2.95,4.2-3,5.55-1.23,1.21,1.64,1.3,4.24-.79,6.72s-4.5,1-4.55.56c0,0-.07,6.27-.06,7.52s.32,2.62,1.89,3.06h0c.7.14,1.38.4,2,.77-.21.17-.4.35-.57.55-.53.68-1.33,1.29-3.29,3.83-5.19,2.16-10.2,4.73-15,7.66-1.09-2.62-2.01-5.31-2.77-8.05,1.19-1.86,2.58-3.58,4.14-5.13Z"/>
          <path class="cls-18" d="m415.2,119.2l-3.5,1.11c.28.96,1.28,1.52,2.24,1.24,0,0,0,0,0,0,.98-.32,1.54-1.36,1.26-2.35Z"/>
          <path class="cls-23" d="m414.94,120.01c-.96-.02-1.79.64-2,1.57.33.1.67.1,1,0,.68-.22,1.18-.82,1.28-1.53l-.28-.04Z"/>
          <path class="cls-25" d="m405.31,109.96l2.69-.86c-.19-.72-.93-1.15-1.65-.96-.03,0-.06.02-.08.02-.75.25-1.17,1.04-.96,1.8Z"/>
          <path class="cls-25" d="m418.08,110.01l-2.66-1c.24-.72,1.03-1.11,1.75-.87.02,0,.04.01.05.02.73.3,1.1,1.1.86,1.85Z"/>
          <path class="cls-25" d="m408.66,112.63c.04.63-.43,1.19-1.06,1.25-.61.07-1.16-.36-1.24-.97,0-.01,0-.02,0-.03-.04-.64.44-1.19,1.07-1.25.61-.07,1.16.37,1.23.98,0,0,0,.01,0,.02Z"/>
          <path class="cls-25" d="m417.02,112.4c.04.65-.44,1.22-1.09,1.28-.62.07-1.19-.38-1.26-1-.04-.65.44-1.21,1.09-1.28.62-.08,1.18.37,1.26.99,0,0,0,0,0,.01Z"/>
          <path class="cls-18" d="m412.62,127.21c4.48-.44,8.77-1.66,9.87-4.39-.11,1.64-1.08,3.09-2.55,3.81-2.26,1.2-4.78,1.85-7.34,1.89l.02-1.31Z"/>
          <polygon class="cls-18" points="407.96 116.04 412.08 117.55 412.62 109.82 407.96 116.04"/>
        </g>
        <g id="freepik--Chest--inject-17">
          <path class="cls-19" d="m397.43,162.03c.14-2.36.12-4.73-.05-7.09-1.74-1.91-2.77-4.37-2.92-6.95,0-4.11,1.8-6.91,6.09-11,2.48-2.38,5.19-4.51,8.1-6.35h3.27s-2.15,4.07-.89,6.63c6.74-.51,12.51-3.4,14.87-5.42l5.61,1.1s3.41,7.18,2,13.12c-.74,3.21-2.22,8.66-3.42,13-1.13,4.17-.71,8.6,1.19,12.48l.52,1.06c1.62,3.35,3.75,9.49,3.75,9.49,0,0-9.4,4.22-24.85,2.34s-16.74-4.6-16.74-4.6l2.89-13.44c.31-1.44.5-2.9.58-4.37Z"/>
          <path class="cls-10" d="m423.13,155.06c-1.26,3.16-4.25,5.28-7.65,5.43-3.26.24-6.4-1.29-8.22-4,0,0,.93,6.29,8.39,5.47s7.48-6.9,7.48-6.9Z"/>
          <path class="cls-29" d="m424.42,130.72s-6,11.35-8.07,17.49-1.32,11.14-1.05,22.41c.21,8.67.65,21.77.65,21.77,0,0,16.43.39,21.75-6.74-1.17-4.35-5-14.54-6-17.33s-.36-5.19,1.64-11.47,4.95-9.65,5.05-14.35c-.04-3.6-1.56-7.02-4.2-9.47l-9.77-2.31Z"/>
          <path class="cls-29" d="m412.47,130.14c-.05.21-.2.4-.39.5,0,0-11.54,10.28-12.74,21.35s-2.83,35.33-2.83,35.33c-1.33-.88-2.49-1.99-3.44-3.27.69-5,3.19-24.85,2.8-27.15s-5.61-7.69-.35-14.91,13.39-12,13.39-12l3.64-.4c-.01.19-.04.37-.08.55Z"/>
          <path class="cls-9" d="m407.22,132.55c-.74.61-1.46,1.23-2.17,1.86-1.42,1.28-2.83,2.56-4.19,3.9-.68.67-1.36,1.34-2,2-.33.34-.66.7-1,1.06-.37.37-.65.81-.84,1.29-.14.5-.19,1.02-.15,1.53.03.49.11.98.22,1.46.2.89.48,1.76.82,2.6-.82.89-1.5,1.9-2,3-.06.16-.11.33-.14.5-.02.17-.02.34,0,.51,0,.33,0,.63.09.95.08.61.18,1.23.29,1.83.42,2.44,1,4.85,1.54,7.25-.39-2.43-.78-4.87-1.12-7.31-.09-.61-.16-1.22-.22-1.83,0-.3-.05-.61-.06-.9-.02-.27.03-.55.13-.8.53-1.08,1.22-2.07,2.05-2.94l.12-.14-.07-.18c-.34-.87-.61-1.76-.81-2.67-.1-.45-.17-.91-.19-1.37-.05-.44-.01-.88.1-1.3.16-.4.39-.77.7-1.08.3-.36.62-.71.94-1.06.64-.7,1.3-1.37,2-2,1.33-1.36,2.67-2.71,4-4s2.72-2.66,4.18-3.89c-.76.48-1.5,1.09-2.22,1.73Z"/>
          <path class="cls-9" d="m426.22,147.99l.05-1.51.11-3c.12-4,.22-8.06.24-12.1-.33,4-.56,8.06-.79,12.09l-.15,3-.07,1.51v.37c.02.09.02.19,0,.28-.07.2-.18.38-.33.53-.71.65-1.54,1.14-2.45,1.46-.94.38-1.9.69-2.89.93l-.33.08.11.32c.44,1.24.82,2.5,1.12,3.78.07.32.13.64.17,1,.05.29.05.59,0,.88v.08l-.06.11-.84,1.53c-.63,1.16-1.28,2.32-1.89,3.5l-1.86,3.53,2.08-3.4c.7-1.14,1.36-2.29,2-3.43l.5-.98.26-.43.19-.33v-.15c.09-.36.11-.73.06-1.1-.03-.34-.09-.67-.16-1-.27-1.2-.6-2.39-1-3.55.89-.2,1.77-.47,2.63-.79,1.01-.34,1.93-.89,2.69-1.63.2-.22.35-.48.45-.76.04-.15.07-.3.07-.46l.09-.36Z"/>
        </g>
        <g id="freepik--arm--inject-17">
          <path class="cls-9" d="m434.21,133.03c5.34,1.15,7.34,4.51,9.44,11.58,2.86,9.66,5.34,19.15,5.77,23.95l-12.55-3.95-6.25-13.9s-2.13-11.06,3.59-17.68Z"/>
          <polygon class="cls-4" points="406.47 185.71 434.05 182.54 439.56 147.55 411.98 150.71 406.47 185.71"/>
          <polygon class="cls-12" points="406.47 185.71 434.05 182.54 439.56 147.55 411.98 150.71 406.47 185.71"/>
          <polygon class="cls-22" points="407.54 184.2 433.97 181.16 439.11 148.53 412.68 151.57 407.54 184.2"/>
          <path class="cls-4" d="m411.29,174.4l3.48-22,24.79-4.85-5.51,35-26.22,5.1c-.35.09-.7-.11-.8-.46-.03-.11-.03-.22,0-.33l1.76-11.16c.08-.49.45-.89.94-1l1.56-.3Z"/>
          <path class="cls-11" d="m449.24,168.55c-.12,3.61-.7,4.19-4.73,6.06s-14.12,4.61-22.06,5.08c-5.17.3-7.81,0-9.78-.92-3.59-1.56-5.6-5.42-4.81-9.25-.76-2.52.55-2.81,1.64-3l-.26,1.62c1.29.94,2.8,1.55,4.38,1.77,2.13.12.24-2.45-.08-4s-.21-2.38,1-3c.69,0,.88,1,3,3.21,1.56,1.68,2.72,4.69,5.26,4.44,2-.19,14-5.2,14-5.2l.7-4.48,11.74,7.67Z"/>
          <path class="cls-9" d="m449.42,168.55c.06,2.25-.38,3.41-1.45,4.34s-5.43,2.78-8.09,3.6-9.61,2.41-10.94,2.6c1.45-2.08,1.27-6.3.19-8.24s-2.64-1.53-2.64-1.53l10.3-4.17,1-6.14,11.63,9.54Z"/>
        </g>
      </g>
    </g>
  </g>
  <g id="freepik--character-1--inject-17">
    <g id="freepik--character--inject-17-2" data-name="freepik--character--inject-17">
      <g id="freepik--bottom--inject-17-3" data-name="freepik--bottom--inject-17">
        <path class="cls-25" d="m10.74,358.55v1.25c.12.66.5,1.25,1.06,1.63,1.4,1.23,4.63,2.06,7.2,1.66,1.61-.13,3.13-.82,4.28-1.95,1.34-1.22,2.42-2.58,3-3,1.35-.96,2.85-1.67,4.44-2.12,2.15-.68,6.3-2,8.06-5.13,1.03-1.63,1.39-3.61,1-5.5l-29.04,13.16Z"/>
        <path class="cls-29" d="m25.72,343.47c-4.63,1.22-9.08,8.85-14.35,6.38-.28,3-1.31,5-.63,8.68,2,3,7.55,3.86,10.69,2.15,1.61-1.06,2.18-2.19,3.75-3.33,1.28-.86,2.69-1.5,4.18-1.92,1.71-.58,3.38-1.28,5-2.07,5.29-3,6.66-8,4.25-10.61-1.9-2.07-5.56-1.2-12.89.72Z"/>
        <path class="cls-22" d="m27.94,342.89l.66-.17c2.32,0,4.53.94,6.13,2.61,1.7,1.78,2,5.38,2,6.29l-.16.14s.12.76,1.25-.72c1.34-1.57,2.09-3.55,2.11-5.61-.06-2.29-1.42-4-4.3-4-2.08-.07-7.76.99-7.69,1.46Z"/>
        <path class="cls-25" d="m36.16,370.95c-.03.58,0,1.17.12,1.74.3.41.74.68,1.23.78,2.46.75,5.06.82,7.51,1.55,1.61.47,3.19,1.05,4.73,1.73,1.51.77,3.08,1.42,4.7,1.93,3.61,1,7.91,1,10.59,0,5-1.91,4.76-3.53,4.74-5.35s-33.62-2.38-33.62-2.38Z"/>
        <path class="cls-29" d="m37.25,358.84c-.93,3.7-2,9.25-1.09,12.11,1,1.1,4.41,1.84,7.4,2.36,2.78.44,5.45,1.41,7.86,2.85,5.74,2.74,15.47,2.22,18.19-1.89,1.86-5.92-9.35-6.35-15.82-11-1.62-1.16-1.88-2.25-2.35-4.05,0,.01-10.37.61-14.19-.38Z"/>
        <path class="cls-22" d="m55.03,377.36c-.93-2.46-.46-5.23,1.23-7.25,1.72-1.95,4.27-2.95,6.85-2.7,2.17.57,4.17,1.64,5.83,3.14,1.21,1.34,1.75,3.51-.38,5.12s-6.33,3.29-13.53,1.69Z"/>
        <path class="cls-9" d="m11.6,312.17c.45-7.78,3.37-14.21,3.3-18.5-.13-8.26.3-13.73-.37-20.59-.68-6.15-.88-12.35-.59-18.53.33-5.17,1.24-9.45,1.94-15.95,0,0,40.17-2.54,41,12.63s-.24,53.84-.74,60.51c-.3,6.76-3.79,44.09-3.89,48.86-6.93,5-15.58.85-15.58.85-1-16.93-4.2-27.57-1.19-42.52l-1.79-22.08s-6.4,40.38-8.83,53.09c-3.49,4.78-12,3-13.57,0,.24-15.63-.24-28.33.31-37.77Z"/>
        <path class="cls-25" d="m33.69,296.85l-1.75-25.3c-4.62-1.16-8.73-3.8-11.71-7.51,1.28,4.89,6.66,9.23,10.1,10.49l1.1,17.18-.76,23.75,3.02-18.61Z"/>
      </g>
      <g id="freepik--top--inject-17-2" data-name="freepik--top--inject-17">
        <polygon class="cls-17" points="40.17 192.87 38.77 203.12 24.85 202.42 26.35 191.31 40.17 192.87"/>
        <path class="cls-23" d="m45.72,173.69c1.07,1.37,4.4,5.47,4.53,6.26l-2.72,1.67-1.81-7.93Z"/>
        <path class="cls-17" d="m37.94,163.38c4.3-.46,7.09,2.59,8.34,11.75.05.36.58.92,1,2.29,1.72,5.88.76,11.48-.24,13-2.49,2-5.26,2.75-9.28,2.41-3.03-.28-10.82-1.22-14.82-5.35-4.65-4.86-7-12.19-3.7-16,4.7-5.34,16.37-7.84,18.7-8.1Z"/>
        <path class="cls-23" d="m47.07,190.39c-.55.82-4.44,2.85-6.92,3v-1.92c2.34-.06,4.67-.42,6.92-1.08Z"/>
        <path class="cls-25" d="m38.83,179.44c-.13.43-.58.67-1.01.54-.17-.05-.33-.16-.43-.31-.45-.66-.98-1.27-1.57-1.82-.75-.61-1.69-.93-2.66-.9-3.62.28-2.73,5-1,6.7,2.9,2.71,4.45.36,4.45.36,0,0,2.08,4.61-1,7.3,0,0-5.24,2.27-9.36,1-2.57-2.6-4.98-5.37-7.21-8.27-4.91-6.77-4.92-13.46-1.77-15.37-.18-2.41,1.12-6,6.05-8.1,4.7-2,7.84-1.79,11.24-1.6s7.57,1.74,10.73-.89c.79,1.93.59,4.12-.53,5.88,1.1-.44,2.34.09,2.79,1.18.4,1,0,2.14-.94,2.67.7.4,1.03,1.23.77,2-.27.75-.97,1.27-1.77,1.31-.72.04-1.44,0-2.14-.14-1,2.78-4.12,3.75-6,3.63,0,0,.29.38.33.43s.2.32.3.48c.18.32.32.65.44,1,.28.71.42,1.47.4,2.23,0,.23-.04.47-.11.69Z"/>
        <path class="cls-29" d="m22.94,197.02c-5.18-.24-10.31,1.29-13.45,8.49-3,6.81-7.16,16.65-8.69,21.6-.75,2.41-2.12,4.58,2.38,8.83,4.18,3.82,8.8,7.12,13.76,9.84l4.52-9.69-7.07-6.78,3.12-6.49,5.43-25.8Z"/>
        <path class="cls-25" d="m14.4,229.31c-1.01,1.58-2.47,2.81-4.19,3.54,2,.48,4.17-1.66,4.84-2.92l-.65-.62Z"/>
        <path class="cls-4" d="m19.17,198.55c-3.61,2-6.36,8.77-6.09,14.41.17,3.57,1.42,12.77,2.49,20.92.33,2.56-.69,6.89-1.16,12.09-.35,3.86-.79,7.94-.79,7.94,0,0,5.23,6,18.53,6.81,17,1,25.18-3.41,25.18-3.41,0,0-.6-13.53-1-24.47-.61-16.24-.65-21-3.18-26.52-.84-1.63-1.72-5.27-4.49-6-2.19-.57-7.24-1.78-9.24-2.08-3.28.84-11.79.91-13.89-.88v-.47c-3.59-.03-4.13.42-6.36,1.66Z"/>
        <g class="cls-32">
          <path class="cls-19" d="m19.17,198.55c-3.61,2-6.36,8.77-6.09,14.41.17,3.57,1.42,12.77,2.49,20.92.33,2.56-.69,6.89-1.16,12.09-.35,3.86-.79,7.94-.79,7.94,0,0,5.23,6,18.53,6.81,17,1,25.18-3.41,25.18-3.41,0,0-.6-13.53-1-24.47-.61-16.24-.65-21-3.18-26.52-.84-1.63-1.72-5.27-4.49-6-2.19-.57-7.24-1.78-9.24-2.08-3.28.84-11.79.91-13.89-.88v-.47c-3.59-.03-4.13.42-6.36,1.66Z"/>
        </g>
        <g id="freepik--arm--inject-17-2" data-name="freepik--arm--inject-17">
          <path class="cls-23" d="m102.94,186.95c1.86-2.34,2.85-3.32,3.86-3.91s4.38-3.16,5.74-3.91c.86-.47,1.62.9.71,2.22-1.14,1.25-2.36,2.42-3.67,3.49-.9,1.18-1.66,2.46-2.26,3.82l-4.38-1.71Z"/>
          <path class="cls-17" d="m83.1,218.08c-2,1.11-3.89.82-10.54.47-4.75-.26-11.32-.45-22.48-1.49-4.18-4.18-5.19-11.48-1-16,4.34-1,17.5,4.28,31.55,4,0,0,13.85-6.33,15.37-7.46s4.33-7,5.39-8.77c1.43-2.35,2.45-2.35,3.47-2.46,3.32-.36,4.09-.28,4.88,0,.48.18.84.59.95,1.09.88-.12,2.14-.48,2.68.87.17.35.28.72.34,1.11.22-.02.45.04.63.17.93.63.46,3.78-.13,4.68-.56.64-1.37,1.01-2.22,1-.89.1-.72-.88-.72-.88l-1.18.39c-2.12,2.53-1.29,6.23-4.52,7.94-1.39.51-2.73,1.16-4,1.92-7.91,6.28-15.93,11.99-18.47,13.42Z"/>
          <path class="cls-23" d="m110.66,187.43l-4,.23,3.79-.74c.1.16.17.33.21.51Z"/>
          <path class="cls-23" d="m113.68,189.41l-4.52.58,4.39-1.09c.06.16.11.34.13.51Z"/>
          <path class="cls-23" d="m113.61,191.48c-.08.26-.24.5-.46.67-.2.18-.43.33-.68.45l.05-.06c-.06.26-.12.52-.19.78l-.12-.1c.24-.09.5-.09.74,0,.22.1.4.27.53.47-.16-.17-.35-.29-.57-.36-.2-.07-.42-.07-.62,0l-.16.08v-.17c.06-.26.12-.52.19-.78h0c.24-.11.47-.25.68-.4.25-.14.46-.34.61-.58Z"/>
          <path class="cls-23" d="m112.59,192.35c-.51.21-1.02.39-1.55.53,0,.36-.11.71-.32,1-.2.32-.42.63-.66.93l1.18-.39s.15-.61,1.18-1.1l.17-.97Z"/>
          <path class="cls-29" d="m48.25,200.24c2.88.05,5.75.45,8.53,1.2,2.58.7,12,2.48,14.76,2.74s9.07.59,9.07.59l8.38-3.62s1.48.51,3,3.62.51,7.22.51,7.22c0,0-7.4,5.1-9,6.14s-2.53,1.29-5,1.1-19-1.2-20.89-1c-1.27.17-2.46.69-3.46,1.49-1.05.61-3.87-.43-5.67-3.16s-5.54-12.32-.23-16.32Z"/>
        </g>
      </g>
    </g>
  </g>
</svg>