<?xml version="1.0" encoding="UTF-8"?>
<svg id="Layer_1" data-name="Layer 1" xmlns="http://www.w3.org/2000/svg" viewBox="0 0 618.3 392.95">
  <defs>
    <style>
      .cls-1, .cls-2, .cls-3, .cls-4, .cls-5, .cls-6, .cls-7, .cls-8, .cls-9, .cls-10, .cls-11, .cls-12, .cls-13, .cls-14, .cls-15, .cls-16, .cls-17, .cls-18, .cls-19, .cls-20, .cls-21 {
        stroke-width: 0px;
      }

      .cls-1, .cls-2, .cls-6, .cls-10, .cls-11, .cls-12, .cls-17, .cls-21 {
        isolation: isolate;
      }

      .cls-1, .cls-11 {
        opacity: .3;
      }

      .cls-2, .cls-6, .cls-11, .cls-12, .cls-14, .cls-17 {
        fill: #fff;
      }

      .cls-2, .cls-21 {
        opacity: .4;
      }

      .cls-3 {
        fill: #773737;
      }

      .cls-4 {
        fill: #407bff;
      }

      .cls-5 {
        fill: #895555;
      }

      .cls-6 {
        opacity: .7;
      }

      .cls-7 {
        fill: #eec1bb;
      }

      .cls-9 {
        fill: #e0e0e0;
      }

      .cls-10, .cls-17 {
        opacity: .2;
      }

      .cls-12 {
        opacity: .5;
      }

      .cls-13 {
        fill: #de5753;
      }

      .cls-15 {
        fill: #d4827d;
      }

      .cls-16 {
        fill: #a24e3f;
      }

      .cls-18 {
        fill: #b97964;
      }

      .cls-19 {
        fill: #263238;
      }

      .cls-20 {
        fill: #ebebeb;
      }
    </style>
  </defs>
  <g id="Speech_Bubble" data-name="Speech Bubble">
    <g>
      <path class="cls-4" d="m582.41,143.78c-.08-.07-.15-.16-.24-.23l-6.35.09,2.15-5.61c-3.69-7.16-2.83-16.14,2.86-22.5,7.37-8.24,20.03-8.94,28.26-1.57,8.24,7.37,8.94,20.03,1.57,28.26-7.37,8.24-20.03,8.94-28.26,1.57h0Zm35.34-19.18c.14,0,.24-.14.22-.27-.69-6.53-4.92-12.65-10.8-15.58-.12-.06-.27,0-.33.11s-.01.27.11.34c5.72,2.86,9.85,8.82,10.52,15.19.01.13.12.22.25.22h.03Zm.34,5.74c.24-1,.27-2.05.08-3.06-.02-.14-.15-.23-.29-.2-.14.02-.23.15-.2.29.17.94.14,1.92-.08,2.85-.03.13.05.27.19.3h.06c.11,0,.22-.08.24-.19h0Z"/>
      <polygon class="cls-14" points="595.36 137.38 586.19 130.55 588.57 127.35 594.73 131.93 603.18 121.85 606.24 124.41 595.36 137.38"/>
    </g>
  </g>
  <g id="Magnifying_Glass" data-name="Magnifying Glass">
    <g>
      <path class="cls-4" d="m464.57,156.97c-6.74,16.33-23.16,26.53-40.79,25.32-4.44-.3-8.8-1.33-12.9-3.05-21-8.68-30.98-32.74-22.29-53.74s32.74-30.98,53.74-22.29c20.99,8.68,30.97,32.74,22.29,53.73l-.05.02h0Z"/>
      <path class="cls-6" d="m464.57,156.97c-6.74,16.33-23.16,26.53-40.79,25.32-4.44-.3-8.8-1.33-12.9-3.05-21-8.68-30.98-32.74-22.29-53.74s32.74-30.98,53.74-22.29c20.99,8.68,30.97,32.74,22.29,53.73l-.05.02h0Z"/>
    </g>
    <path class="cls-2" d="m459.03,116.6l-71.92,29.84c-.1-.61-.19-1.2-.26-1.81-.46-3.91-.33-7.86.38-11.73h0l62.11-25.77c3.75,2.58,7.03,5.78,9.69,9.47Zm3.84,6.67l-73.83,30.64c2.1,5.75,5.5,10.94,9.94,15.16l67.62-28.04c.13-6.13-1.14-12.2-3.73-17.76h0Z"/>
    <path class="cls-19" d="m444.34,97.52s-.08-.03-.13-.05c-23.54-9.69-50.47,1.54-60.15,25.08-9.32,22.64.72,48.41,22.44,58.96-2.94,4.53-4.81,9.6-7.56,14.2-1.51,2.64-20.64,39.5-22.07,42.17l-2.18,4c-.92,1.47-1.02,3.26-.27,4.84.77,1.77,2.91,2.72,4.9,2.19,1.82-.44,3.29-1.62,3.98-3.19l2.08-4.05c1.41-2.68,20.23-39.67,21.56-42.4,2.29-4.95,4.5-9.95,6.35-15.1,22.42,6.83,46.78-4.35,55.94-26.43,9.76-23.51-1.39-50.47-24.9-60.23h.01Zm19.37,57.94c-8.44,20.5-31.89,30.27-52.39,21.83-.02,0-.05-.02-.07-.03v.05c-20.49-8.47-30.23-31.93-21.76-52.42s31.93-30.23,52.42-21.76c20.45,8.45,30.2,31.85,21.8,52.32h0Z"/>
    <path class="cls-19" d="m465.56,106.29c-.78.57-1.53-.73-.76-1.3,5.06-3.7,10.12-7.41,15.19-11.11.78-.57,1.53.73.76,1.3-5.06,3.7-10.12,7.41-15.19,11.11h0Zm4.58,7.28h11.87c.97,0,.97-1.5,0-1.5h-11.87c-.97,0-.97,1.5,0,1.5h0Zm-9.75-13.36c.67-4.02,1.34-8.03,2.01-12.05.16-.94-1.29-1.35-1.45-.4-.67,4.02-1.34,8.03-2.01,12.05-.16.94,1.29,1.35,1.45.4h0Z"/>
  </g>
  <g id="Light_bulb" data-name="Light bulb">
    <g>
      <path class="cls-4" d="m184.03,17.67c-14.58-.17-26.54,11.51-26.71,26.09-.09,7.91,3.37,15.45,9.43,20.53,1.12.92,2.82,2.03,2.78,4.34,0,.07.12,5.77.12,5.77h27.77s.12-5.92.12-5.99c0-2.03,1.57-2.91,2.73-3.82,6.14-4.92,9.76-12.34,9.86-20.21.17-14.58-11.51-26.54-26.09-26.71h0Z"/>
      <path class="cls-2" d="m184.03,17.67c-14.58-.17-26.54,11.51-26.71,26.09-.09,7.91,3.37,15.45,9.43,20.53,1.12.92,2.82,2.03,2.78,4.34,0,.07.12,5.77.12,5.77h27.77s.12-5.92.12-5.99c0-2.03,1.57-2.91,2.73-3.82,6.14-4.92,9.76-12.34,9.86-20.21.17-14.58-11.51-26.54-26.09-26.71h0Z"/>
      <path class="cls-17" d="m197.15,29.05c0,5.14-6.02,9.32-13.48,9.32s-13.48-4.18-13.48-9.32,6.02-9.33,13.48-9.33,13.48,4.18,13.48,9.33Z"/>
      <path class="cls-14" d="m163.38,54.23c-2.34-4.01-3.25-8.75-2.58-13.34.68-4.59,2.92-8.86,6.32-12.03l.34.37c-3.32,3.09-5.51,7.26-6.17,11.74s.23,9.1,2.51,13.02l-.43.25h0Z"/>
      <path class="cls-19" d="m191.32,68.79c-1.33-3.51-2.45-7.13-3.33-10.81-1.35,1.15-2.82,1.73-4.25,1.67-1.14-.06-2.28-.52-3.45-1.4-.19,3.57-.79,7.12-1.79,10.54l-.96-.28c1.06-3.59,1.65-7.32,1.79-11.07-.19-.18-.37-.36-.56-.56-2.97-3.09-4.36-6.93-3.71-10.26.25-1.29,1.03-2.57,2.23-2.54,1.09.03,1.88,1.08,2.25,2.96.63,3.29.9,6.63.81,9.97,1.21,1.06,2.35,1.6,3.45,1.65,1.66.08,3.07-.95,3.94-1.78-.64-2.83-1.15-5.7-1.52-8.6-.13-1.06-.24-2.09,0-3.11.29-1.25,1.1-2.2,2.07-2.41,1.68-.37,3.03,1.41,3.49,3.34.9,3.8-.24,8.13-2.9,11.03-.01.01-.03.03-.04.04.9,3.84,2.04,7.61,3.43,11.26l-.93.35h-.02Zm-14.09-23.73c-.57,0-1.05.89-1.21,1.73-.57,2.96.67,6.41,3.32,9.24.02-2.95-.25-5.91-.81-8.82-.2-1.03-.64-2.13-1.29-2.15h-.01Zm11.47-1.35c-.07,0-.14,0-.21.02-.67.14-1.14.93-1.3,1.65-.2.85-.1,1.79.02,2.76.34,2.63.79,5.24,1.35,7.82,2.11-2.62,3.01-6.41,2.24-9.63-.32-1.34-1.17-2.62-2.1-2.62Z"/>
      <path class="cls-19" d="m198.99,72.73h-30.77c-.89,0-1.6.72-1.6,1.6v.14c0,.77.55,1.42,1.27,1.57-.43.29-.72.78-.72,1.34v.03c0,.72.48,1.32,1.13,1.52-.41.29-.69.77-.69,1.31v.03c0,.89.72,1.6,1.6,1.6h.68c-.43.29-.72.78-.72,1.34v.03c0,.89.72,1.6,1.6,1.6h3.15c2.28,3.4,6.18,6.57,10.05,6.35,3.74-.22,7.28-3,9.22-6.35h3.23c.89,0,1.6-.72,1.6-1.6v-.03c0-.56-.29-1.05-.72-1.34h.68c.89,0,1.6-.72,1.6-1.6v-.03c0-.54-.27-1.02-.69-1.31.65-.2,1.13-.8,1.13-1.52v-.03c0-.56-.29-1.05-.72-1.34.73-.15,1.27-.8,1.27-1.57v-.14c0-.89-.72-1.6-1.6-1.6h.02Z"/>
      <path class="cls-11" d="m198.99,72.73h-30.77c-.89,0-1.6.72-1.6,1.6v.14c0,.77.55,1.42,1.27,1.57-.43.29-.72.78-.72,1.34v.03c0,.72.48,1.32,1.13,1.52-.41.29-.69.77-.69,1.31v.03c0,.89.72,1.6,1.6,1.6h.68c-.43.29-.72.78-.72,1.34v.03c0,.89.72,1.6,1.6,1.6h25.66c.89,0,1.6-.72,1.6-1.6v-.03c0-.56-.29-1.05-.72-1.34h.68c.89,0,1.6-.72,1.6-1.6v-.03c0-.54-.27-1.02-.69-1.31.65-.2,1.13-.8,1.13-1.52v-.03c0-.56-.29-1.05-.72-1.34.73-.15,1.27-.8,1.27-1.57v-.14c0-.89-.72-1.6-1.6-1.6h.01Z"/>
    </g>
    <path class="cls-19" d="m169.02,8.14c-.34-.34.19-.87.53-.53,2.01,2.01,4.01,4.01,6.02,6.02.34.34-.19.87-.53.53-2.01-2.01-4.01-4.01-6.02-6.02h0Zm15.8,3.61V.36c0-.48-.75-.48-.75,0v11.39c0,.48.75.48.75,0h0Zm8.33,2.9c2.17-2.17,4.34-4.34,6.51-6.51.34-.34-.19-.87-.53-.53-2.17,2.17-4.34,4.34-6.51,6.51-.34.34.19.87.53.53h0Z"/>
  </g>
  <g id="Document">
    <g>
      <rect class="cls-19" x="13.22" y="29.2" width="100.95" height="69.63" rx="3.83" ry="3.83" transform="translate(-10.54 115.43) rotate(-79.85)"/>
      <rect class="cls-14" x="16.42" y="32.29" width="94.58" height="63.27" transform="translate(-10.44 115.37) rotate(-79.85)"/>
      <path class="cls-1" d="m56.02,11.37c-.29.44-2.73,8.9-2.73,8.9,0,0,36.89,7.24,36.46,7.15-.44-.09.62-9.9.47-9.93s-34.19-6.12-34.19-6.12h-.01Z"/>
      <path class="cls-4" d="m13.38,39.81c-7.79-5.91-9.31-17.02-3.39-24.81s17.02-9.31,24.81-3.39c6.01,4.57,8.27,12.22,6.27,19.07l2.82,4.51-5.53.99c-.06.08-.11.16-.17.24-5.91,7.79-17.02,9.31-24.81,3.39Zm-9.11-14.08c.14,0,.24-.13.23-.27-.49-5.63,2.09-11.49,6.57-14.94.11-.08.13-.24.05-.35-.09-.11-.24-.13-.35-.05-4.61,3.54-7.27,9.58-6.77,15.38.01.13.12.23.25.23,0,0,.01,0,.02,0Zm.97,5.15c.13-.06.18-.21.12-.33-.35-.76-.53-1.61-.55-2.45,0-.14-.1-.27-.25-.25-.14,0-.25.12-.25.25.01.91.22,1.83.59,2.65.04.09.13.15.23.15.03,0,.07,0,.1-.02h.01Z"/>
      <path class="cls-12" d="m13.38,39.81c-7.79-5.91-9.31-17.02-3.39-24.81s17.02-9.31,24.81-3.39c6.01,4.57,8.27,12.22,6.27,19.07l2.82,4.51-5.53.99c-.06.08-.11.16-.17.24-5.91,7.79-17.02,9.31-24.81,3.39Zm-9.11-14.08c.14,0,.24-.13.23-.27-.49-5.63,2.09-11.49,6.57-14.94.11-.08.13-.24.05-.35-.09-.11-.24-.13-.35-.05-4.61,3.54-7.27,9.58-6.77,15.38.01.13.12.23.25.23,0,0,.01,0,.02,0Zm.97,5.15c.13-.06.18-.21.12-.33-.35-.76-.53-1.61-.55-2.45,0-.14-.1-.27-.25-.25-.14,0-.25.12-.25.25.01.91.22,1.83.59,2.65.04.09.13.15.23.15.03,0,.07,0,.1-.02h.01Z"/>
      <polygon class="cls-14" points="22.95 33.44 14.84 27.4 16.95 24.56 22.39 28.62 29.87 19.7 32.57 21.96 22.95 33.44"/>
      <path class="cls-19" d="m90.64,58.81l-47.01-9,.31-1.62,47.01,9-.31,1.62Zm-8.44,37.62l-47.12-8.44-.29,1.62,47.12,8.44.29-1.62Zm1.33-6.3l-47.12-8.44-.29,1.62,47.12,8.44.29-1.62Zm1.33-6.3l-47.12-8.44-.29,1.62,47.12,8.44.29-1.62Zm1.33-6.3l-47.12-8.44-.29,1.62,47.12,8.44.29-1.62Zm1.33-6.3l-47.12-8.44-.29,1.62,47.12,8.44.29-1.62Zm-6.36,31.23l-47.12-8.44-.29,1.62,47.12,8.44.29-1.62Zm9.09-40.4l-47.01-9-.31,1.62,47.01,9,.31-1.62Zm-1.89,4.77l-47.01-9-.31,1.62,47.01,9,.31-1.62Zm5.9-30.4l-47.01-9-.31,1.62,47.01,9,.31-1.62Zm-2.26,10.1l-47.01-9-.31,1.62,47.01,9,.31-1.62Zm-29.09-10.67l-16.56-3.17-.31,1.62,16.56,3.17.31-1.62Zm30.26,5.74l-28.51-5.46-.31,1.62,28.51,5.46.31-1.62Zm-32.18,4.51l-16.56-3.17-.31,1.62,16.56,3.17.31-1.62Zm30.26,5.74l-28.51-5.46-.31,1.62,28.51,5.46.31-1.62Z"/>
      <polygon class="cls-19" points="77.25 10.83 78.98 6.19 70.71 4.71 70.62 9.65 57.65 7.32 55.53 19.17 88.49 25.07 90.62 13.23 77.25 10.83"/>
    </g>
  </g>
  <g id="Text_4" data-name="Text 4">
    <rect class="cls-4" x="341.24" y="196.82" width="118.02" height="41.74"/>
    <path class="cls-14" d="m373.41,215.63h-2.35v-1.39h6.41v1.39h-2.35v5.97h-1.7v-5.97h0Zm10.67,4.6v1.37h-5.7v-7.36h5.56v1.37h-3.87v1.6h3.42v1.32h-3.42v1.7h4.01Zm2.09,1.26c-.54-.16-.98-.36-1.31-.62l.58-1.28c.32.23.69.42,1.12.56s.87.21,1.3.21c.48,0,.84-.07,1.07-.22.23-.14.35-.33.35-.57,0-.18-.07-.32-.2-.44-.14-.12-.31-.21-.53-.28-.21-.07-.5-.15-.87-.23-.56-.13-1.02-.27-1.38-.4s-.66-.35-.92-.64-.38-.69-.38-1.18c0-.43.12-.81.35-1.16s.58-.62,1.05-.83c.47-.2,1.04-.3,1.71-.3.47,0,.93.06,1.38.17s.84.27,1.18.48l-.53,1.29c-.68-.39-1.36-.58-2.04-.58-.48,0-.83.08-1.06.23s-.34.36-.34.61.13.44.39.56.66.24,1.2.36c.56.13,1.02.27,1.38.4.36.13.66.34.92.63.26.29.38.68.38,1.17,0,.42-.12.8-.35,1.15-.23.35-.59.62-1.06.83-.47.2-1.04.3-1.71.3-.58,0-1.14-.08-1.69-.24v.02Zm7.39-5.86h-2.35v-1.39h6.41v1.39h-2.35v5.97h-1.7v-5.97h0Zm4.97-1.39h1.7v7.36h-1.7v-7.36Zm10.2,0v7.36h-1.4l-3.67-4.47v4.47h-1.68v-7.36h1.41l3.66,4.47v-4.47h1.68Zm6.72,3.56h1.56v2.99c-.4.3-.86.53-1.39.69-.53.16-1.05.24-1.59.24-.76,0-1.45-.16-2.06-.49s-1.09-.78-1.43-1.36c-.35-.58-.52-1.23-.52-1.96s.17-1.38.52-1.96c.35-.58.83-1.03,1.44-1.36.62-.33,1.31-.49,2.08-.49.64,0,1.23.11,1.75.33.53.22.97.53,1.32.95l-1.09,1.01c-.53-.55-1.16-.83-1.9-.83-.47,0-.89.1-1.25.29-.36.2-.65.47-.85.83s-.3.77-.3,1.23.1.86.3,1.22.49.64.85.84c.36.2.77.3,1.23.3.49,0,.93-.11,1.32-.32v-2.16h0Z"/>
    <rect class="cls-1" x="450.1" y="196.77" width="9.16" height="41.74"/>
  </g>
  <g id="Text_3" data-name="Text 3">
    <rect class="cls-4" x="222.83" y="149.31" width="127.71" height="41.74"/>
    <path class="cls-14" d="m235.11,165.17h1.7v7.36h-1.7v-7.36Zm10.14,7.36v-4.41l-2.18,3.64h-.77l-2.16-3.54v4.32h-1.6v-7.36h1.41l2.75,4.57,2.71-4.57h1.4l.02,7.36h-1.6.02Zm8.22-7.03c.48.22.85.53,1.11.93.26.4.39.87.39,1.42s-.13,1.01-.39,1.41c-.26.4-.63.71-1.11.92-.48.21-1.05.32-1.7.32h-1.48v2.03h-1.7v-7.36h3.19c.65,0,1.22.11,1.7.33h0Zm-.63,3.29c.27-.22.4-.53.4-.94s-.13-.73-.4-.95-.66-.33-1.17-.33h-1.39v2.55h1.39c.51,0,.9-.11,1.17-.33Zm3.33-3.61h1.7v5.97h3.69v1.39h-5.39v-7.36Zm12.05,5.99v1.37h-5.7v-7.36h5.56v1.37h-3.87v1.6h3.42v1.32h-3.42v1.7h4.01Zm8.05,1.37v-4.41l-2.18,3.64h-.77l-2.16-3.54v4.32h-1.6v-7.36h1.41l2.75,4.57,2.71-4.57h1.4l.02,7.36h-1.6.02Zm9.04-1.37v1.37h-5.7v-7.36h5.56v1.37h-3.87v1.6h3.42v1.32h-3.42v1.7h4.01Zm8.1-5.99v7.36h-1.4l-3.67-4.47v4.47h-1.68v-7.36h1.41l3.66,4.47v-4.47h1.68Zm3.27,1.39h-2.35v-1.39h6.41v1.39h-2.35v5.97h-1.7v-5.97h0Zm9.45,4.39h-3.42l-.65,1.58h-1.75l3.28-7.36h1.68l3.29,7.36h-1.79l-.65-1.58h.01Zm-.54-1.29l-1.17-2.82-1.17,2.82h2.34Zm4.9-3.1h-2.35v-1.39h6.41v1.39h-2.35v5.97h-1.7v-5.97h0Zm4.97-1.39h1.7v7.36h-1.7v-7.36Zm4.95,6.99c-.61-.33-1.09-.78-1.44-1.36s-.52-1.23-.52-1.95.17-1.37.52-1.95c.35-.58.83-1.03,1.44-1.36.61-.33,1.3-.49,2.07-.49s1.45.16,2.06.49,1.09.78,1.44,1.36.53,1.23.53,1.95-.17,1.37-.53,1.95c-.35.58-.83,1.03-1.44,1.36-.61.33-1.3.49-2.06.49s-1.45-.16-2.07-.49Zm3.24-1.26c.35-.2.62-.48.82-.84s.3-.76.3-1.22-.1-.86-.3-1.22c-.2-.36-.47-.64-.82-.84s-.74-.3-1.18-.3-.83.1-1.18.3-.63.48-.83.84c-.2.36-.3.76-.3,1.22s.1.86.3,1.22c.2.36.47.64.83.84.35.2.74.3,1.18.3s.83-.1,1.18-.3Zm10.88-5.73v7.36h-1.4l-3.67-4.47v4.47h-1.68v-7.36h1.41l3.66,4.47v-4.47h1.68Z"/>
    <rect class="cls-1" x="341.37" y="149.31" width="9.16" height="41.74"/>
  </g>
  <g id="Text_2" data-name="Text 2">
    <path class="cls-4" d="m241.89,141.72h-118.02v-41.31h118.02v41.31Zm-91.13,3.43h33.95c.97,0,.97-1.5,0-1.5h-33.95c-.97,0-.97,1.5,0,1.5h0Z"/>
    <path class="cls-14" d="m158.3,117.16h3.34c.8,0,1.5.15,2.12.46s1.09.73,1.43,1.29c.34.55.51,1.2.51,1.93s-.17,1.38-.51,1.93c-.34.55-.82.98-1.43,1.29s-1.32.46-2.12.46h-3.34v-7.36h0Zm3.26,5.96c.74,0,1.32-.2,1.76-.61.44-.41.66-.97.66-1.67s-.22-1.26-.66-1.67-1.03-.62-1.76-.62h-1.56v4.56h1.56Zm11.12.03v1.37h-5.7v-7.36h5.56v1.37h-3.87v1.6h3.42v1.32h-3.42v1.7h4.01Zm2.09,1.26c-.54-.16-.98-.36-1.31-.62l.58-1.28c.32.23.69.42,1.12.56s.87.21,1.3.21c.48,0,.84-.07,1.07-.22.23-.14.35-.33.35-.57,0-.18-.07-.32-.21-.44s-.31-.21-.53-.28c-.21-.07-.5-.15-.87-.23-.56-.13-1.02-.27-1.38-.4s-.66-.35-.92-.64-.38-.69-.38-1.18c0-.43.12-.81.35-1.16.23-.35.58-.62,1.05-.83.47-.2,1.04-.3,1.71-.3.47,0,.93.06,1.38.17.45.11.84.27,1.18.48l-.53,1.29c-.68-.39-1.36-.58-2.04-.58-.48,0-.83.08-1.06.23s-.34.36-.34.61.13.44.39.56.66.24,1.2.36c.56.13,1.02.27,1.38.4.36.13.66.34.92.63.26.29.38.68.38,1.17,0,.42-.12.8-.35,1.15-.23.35-.59.62-1.06.83-.47.2-1.04.3-1.71.3-.58,0-1.14-.08-1.69-.24l.02.02Zm5.98-7.25h1.7v7.36h-1.7v-7.36Zm8.42,3.56h1.56v2.99c-.4.3-.86.53-1.39.69-.53.16-1.05.24-1.59.24-.76,0-1.45-.16-2.06-.49s-1.09-.78-1.43-1.36c-.35-.58-.52-1.23-.52-1.96s.17-1.38.52-1.96c.35-.58.83-1.03,1.44-1.36.62-.33,1.31-.49,2.08-.49.64,0,1.23.11,1.75.33.53.22.97.53,1.32.95l-1.09,1.01c-.53-.55-1.16-.83-1.9-.83-.47,0-.89.1-1.25.29-.36.2-.65.47-.85.83s-.3.77-.3,1.23.1.86.3,1.22c.2.36.49.64.85.84.36.2.77.3,1.23.3.49,0,.93-.11,1.32-.32v-2.16h0Zm9.88-3.56v7.36h-1.4l-3.67-4.47v4.47h-1.68v-7.36h1.41l3.66,4.47v-4.47h1.68Z"/>
    <rect class="cls-1" x="232.73" y="100.41" width="9.16" height="41.31"/>
  </g>
  <g id="Text_1" data-name="Text 1">
    <polygon class="cls-4" points="119.21 96.66 1.19 96.23 1.19 55.35 119.21 55.35 119.21 96.66"/>
    <path class="cls-14" d="m17.95,79.59l-1.42-2.05h-1.57v2.05h-1.7v-7.36h3.18c.65,0,1.22.11,1.7.33s.85.53,1.11.92.39.87.39,1.42-.13,1.02-.39,1.41c-.26.4-.64.7-1.12.91l1.65,2.36h-1.83Zm-.43-5.64c-.27-.22-.66-.33-1.17-.33h-1.39v2.56h1.39c.51,0,.9-.11,1.17-.34.27-.22.4-.54.4-.95s-.13-.73-.4-.95h0Zm9.17,4.27v1.37h-5.7v-7.36h5.56v1.37h-3.87v1.6h3.42v1.32h-3.42v1.7h4.01Zm9.29,2.15c-.24.29-.53.52-.87.67-.34.15-.71.23-1.12.23-.55,0-1.04-.12-1.48-.35-.44-.23-.95-.65-1.51-1.25-.67-.08-1.26-.3-1.78-.64s-.93-.79-1.22-1.33-.44-1.14-.44-1.8c0-.72.17-1.37.52-1.95s.83-1.03,1.44-1.36,1.3-.49,2.07-.49,1.45.17,2.06.49c.61.33,1.09.78,1.44,1.36.35.58.53,1.23.53,1.95,0,.85-.24,1.6-.72,2.25s-1.12,1.09-1.91,1.35c.18.18.35.31.51.39s.34.12.53.12c.46,0,.86-.18,1.2-.55l.76.9h0Zm-6.4-3.25c.2.36.47.64.83.84.35.2.74.3,1.18.3s.83-.1,1.18-.3c.35-.2.63-.48.83-.84.2-.36.3-.76.3-1.22s-.1-.86-.3-1.22-.47-.64-.83-.84c-.35-.2-.74-.3-1.18-.3s-.83.1-1.18.3c-.35.2-.63.48-.83.84-.2.36-.3.76-.3,1.22s.1.86.3,1.22Zm8.12,1.71c-.59-.58-.88-1.41-.88-2.49v-4.12h1.7v4.06c0,1.32.55,1.98,1.64,1.98.53,0,.94-.16,1.22-.48s.42-.82.42-1.5v-4.06h1.68v4.12c0,1.08-.29,1.91-.88,2.49-.59.58-1.4.87-2.45.87s-1.87-.29-2.45-.87Zm7.47-6.61h1.7v7.36h-1.7v-7.36Zm8.13,7.36l-1.42-2.05h-1.57v2.05h-1.7v-7.36h3.18c.65,0,1.22.11,1.7.33s.85.53,1.11.92.39.87.39,1.42-.13,1.02-.39,1.41c-.26.4-.64.7-1.12.91l1.65,2.36h-1.83Zm-.43-5.64c-.27-.22-.66-.33-1.17-.33h-1.39v2.56h1.39c.51,0,.9-.11,1.17-.34.27-.22.4-.54.4-.95s-.13-.73-.4-.95h0Zm9.17,4.27v1.37h-5.7v-7.36h5.56v1.37h-3.87v1.6h3.42v1.32h-3.42v1.7h4.01Zm8.05,1.37v-4.41l-2.18,3.64h-.77l-2.15-3.54v4.32h-1.6v-7.36h1.41l2.75,4.57,2.71-4.57h1.4l.02,7.36h-1.6,0Zm9.04-1.37v1.37h-5.7v-7.36h5.56v1.37h-3.87v1.6h3.42v1.32h-3.42v1.7h4.01Zm8.1-5.99v7.36h-1.4l-3.67-4.47v4.47h-1.68v-7.36h1.41l3.66,4.47v-4.47h1.68,0Zm3.27,1.39h-2.35v-1.39h6.41v1.39h-2.35v5.97h-1.7v-5.97h0Zm5.65,5.86c-.54-.16-.98-.36-1.31-.61l.58-1.28c.31.23.69.42,1.12.56s.87.21,1.3.21c.48,0,.84-.07,1.07-.22.23-.14.35-.34.35-.57,0-.17-.07-.32-.2-.44-.14-.12-.31-.21-.53-.28-.21-.07-.5-.15-.87-.23-.56-.13-1.02-.27-1.38-.4-.36-.13-.66-.35-.92-.64s-.38-.69-.38-1.18c0-.43.12-.81.35-1.16.23-.35.58-.62,1.05-.83.47-.2,1.04-.3,1.71-.3.47,0,.93.06,1.38.17.45.11.84.27,1.18.48l-.53,1.29c-.68-.39-1.36-.58-2.04-.58-.48,0-.83.08-1.06.23s-.34.36-.34.61.13.44.39.56c.26.12.66.24,1.2.36.56.13,1.02.27,1.38.4.36.13.66.34.92.63s.38.68.38,1.17c0,.42-.12.8-.35,1.15-.23.35-.59.62-1.06.83-.47.2-1.04.3-1.71.3-.58,0-1.14-.08-1.69-.24h0Z"/>
    <rect class="cls-1" x="110.05" y="55.35" width="9.16" height="41.31"/>
  </g>
  <g id="Arrows">
    <path class="cls-4" d="m107.96,114.38l4.99,4.85-4.99,4.85-4.99,4.85v-5.42c-.83.03-1.77.06-2.83.06-1.82,0-3.92-.07-6.12-.3-6.14-.62-12.6-1.67-18.14-6.85-2.84-2.66-4.71-5.84-5.72-9.72l8.2-2.14c.61,2.35,1.63,4.1,3.32,5.67,3.29,3.08,7.17,3.99,13.2,4.61,3.2.33,6.17.28,8.09.19v-5.49l4.99,4.85h0Zm101.25,43.87v5.49c-1.92.09-4.89.14-8.09-.19-6.03-.61-9.91-1.53-13.2-4.61-1.68-1.58-2.7-3.33-3.32-5.67l-8.2,2.14c1.01,3.88,2.88,7.06,5.72,9.72,5.54,5.18,11.99,6.23,18.14,6.85,2.2.22,4.3.3,6.12.3,1.06,0,2-.03,2.83-.06v5.42l4.99-4.85,4.99-4.85-4.99-4.85-4.99-4.85h0Zm106.23,48.72v5.49c-1.92.09-4.89.14-8.09-.19-6.03-.61-9.91-1.53-13.2-4.61-1.68-1.58-2.7-3.33-3.32-5.67l-8.2,2.14c1.01,3.88,2.88,7.06,5.72,9.72,5.54,5.18,11.99,6.23,18.14,6.85,2.2.22,4.3.3,6.12.3,1.06,0,2-.03,2.83-.06v5.42l4.99-4.85,4.99-4.85-4.99-4.85-4.99-4.85h0Zm142.92,50.06l-4.99-4.85v5.49c-1.92.09-4.89.14-8.09-.19-6.03-.61-9.91-1.53-13.2-4.61-1.68-1.58-2.7-3.33-3.32-5.67l-8.2,2.14c1.01,3.88,2.88,7.06,5.72,9.72,5.54,5.18,11.99,6.23,18.14,6.85,2.2.22,4.3.3,6.12.3,1.06,0,2-.03,2.83-.06v5.42l4.99-4.85,4.99-4.85-4.99-4.85h0Z"/>
  </g>
  <g id="Character_2" data-name="Character 2">
    <g>
      <g>
        <path class="cls-18" d="m516.25,195.24s-9.6,25.72-9.04,25.93c.56.21-21.8,6.95-21.8,6.95l3.58,7.3s28.71-6.08,30.63-8.45c1.92-2.37,8.71-29.85,8.71-29.85l-12.08-1.88h0Z"/>
        <path class="cls-4" d="m530.38,168.09c5.06,3.69,7.79,15.18-7.87,37.53l-14.32-8.63s6-11.19,10.61-20.84c7.54-10.48,11.59-8.07,11.59-8.07h-.01Z"/>
        <path class="cls-2" d="m530.38,168.09c5.06,3.69,7.79,15.18-7.87,37.53l-14.32-8.63s6-11.19,10.61-20.84c7.54-10.48,11.59-8.07,11.59-8.07h-.01Z"/>
        <path class="cls-4" d="m530.26,167.7c4.02-.25,18.86-.56,35.29,2.74l.29,61.65s.43,8.34,1.49,16.71c-17.18,6.64-39.26,4.67-50.21-2.15.12.27.82-6.61,1.89-16.68,1.88-17.75,4.9-45.43,7.83-61.4.08-.39,3.01-.84,3.41-.87h.01Z"/>
        <path class="cls-2" d="m530.26,167.7c4.02-.25,18.86-.56,35.29,2.74l.29,61.65s.43,8.34,1.49,16.71c-17.18,6.64-39.26,4.67-50.21-2.15.12.27.82-6.61,1.89-16.68,1.88-17.75,4.9-45.43,7.83-61.4.08-.39,3.01-.84,3.41-.87h.01Z"/>
        <polygon class="cls-10" points="522.13 202.05 524.71 182.05 518.72 203.34 521.56 205.05 522.13 202.05"/>
        <polygon class="cls-10" points="564.13 205.47 563.22 205.59 559.96 189.6 561.47 207.55 564.34 208.01 564.13 205.47"/>
        <path class="cls-18" d="m574.18,192.33c1.03,1.53,7.6,37.45,7.6,37.45l-11.98,2.55-5.9-34.06,10.28-5.94Z"/>
        <path class="cls-4" d="m565.55,170.44s6.85,1.27,8.4,9.38c1.43,7.46,5.46,24.05,5.46,24.05l-16.19,2.1-3.26-19.41,5.59-16.12h0Z"/>
        <path class="cls-2" d="m565.55,170.44s6.85,1.27,8.4,9.38c1.43,7.46,5.46,24.05,5.46,24.05l-16.19,2.1-3.26-19.41,5.59-16.12h0Z"/>
      </g>
      <polygon class="cls-18" points="509.52 368.4 503.12 385.67 497.32 383.8 499.32 365.57 509.52 368.4"/>
      <path class="cls-19" d="m502.31,381.39l-2.95.44-.2-1.48c-.18-1.28-.88-2.09-2.16-1.92-.63.08-1.95,1.16-2,2.05-.14,2.38-2.38,3.14-2.38,3.14,0,0-6.18,4.06-8.14,4.17-1.28.07-2.47.56-3.34,1.97-.25.4-.48.88-.67,1.44-.08.23-.16.48-.23.74-.07.26-.13.54-.19.83l4.65.03,9.31.07h0s1.22-.22,2.09-.36c.29-.05.54-.09.7-.1.16-.02.34,0,.53.05.56.13,1.16.45,1.16.45l5.26.04s.1-.87.25-2.14h0c.07-.57.14-1.22.22-1.91.34-2.96.87-6.68.96-7.52.16-1.47-2.85.02-2.85.02h-.02Z"/>
      <path class="cls-4" d="m489.55,385.11c.07-.06.17-.07.24-.02.34.23.63.56.83.97.1.22-.21.42-.32.2-.17-.36-.42-.65-.73-.86-.1-.07-.12-.21-.03-.29h.01Zm1.11-.64c-.09.08-.07.23.03.29.3.2.55.49.73.86.1.22.42.01.32-.2-.19-.41-.48-.74-.83-.97-.08-.05-.17-.04-.24.02h-.01Zm1.15-.6c-.09.08-.07.23.03.29.3.2.55.49.73.86.1.22.42.01.32-.2-.19-.41-.48-.74-.83-.97-.08-.05-.17-.04-.24.02h-.01Z"/>
      <polygon class="cls-18" points="551.27 365.33 553.83 384.12 559.95 384.43 561.94 366.31 551.27 365.33"/>
      <path class="cls-19" d="m565.17,392.84h-13.7s-.3-.58.04-2.11c.05-.24.12-.5.21-.79,0-.01,0-.03.01-.04.13-.42.28-.95.43-1.51.63-2.29,1.37-5.29,1.37-5.29,0,0,2.28-4.88,4.95-3.66,2.34,1.07,1.78,4.13,1.78,4.13,0,0,.23,1.8,2,3.38,1.1.98,2.19,1.74,2.71,2.95.1.23.18.47.23.73,0,.03.01.06.02.1.11.59.1,1.27-.06,2.11h0Z"/>
      <path class="cls-4" d="m559.71,384.34c-.77-.6-1.78-.52-2.47.15-.19.18-.47-.1-.29-.29.86-.84,2.1-.89,3.05-.15.21.16-.08.44-.29.29h0Zm.39,1.28c.2.16.49-.13.29-.29-.95-.74-2.18-.69-3.05.15-.19.18.1.47.29.29.69-.68,1.7-.75,2.47-.15h0Zm.39,1.18c.2.16.49-.13.29-.29-.95-.74-2.18-.69-3.05.15-.19.18.1.47.29.29.69-.68,1.7-.75,2.47-.15h0Z"/>
      <g>
        <path class="cls-19" d="m565.42,246.13l-29.57.25-18-.55s-12.64,54.49-13.72,64.75c-1.07,10.26-10.29,64.3-10.29,64.3l14,3.07s15.91-57.78,17.06-63.33c1-4.84,12.06-35.86,14.88-43.75.28,1.62.58,3.24.87,4.85.71,7.27,3,30.46,4,39.09,0,0,2.17,49.3,4.68,63.61l13.17.02c1.74-20.32,2.85-91.7,2.85-91.7h0c.98-15.5.06-40.62.06-40.62h.01Z"/>
        <path class="cls-8" d="m525.24,253.98c.09-.3.56-.17.47.13-1.72,5.66-6.32,10.2-12,11.86-.3.09-.43-.38-.13-.47,5.52-1.61,9.99-6.02,11.66-11.52h0Zm14.54,0c-.15,2.18-.29,4.37-.44,6.55-.08-.04-.17-.03-.26.04-.77.67-1.73.05-2.11-.7-.34-.67-.41-1.51-.46-2.23-.1-1.44.05-2.86.4-4.26.08-.29-.39-.43-.47-.12-.5,1.99-.74,4.34-.1,6.33.39,1.23,1.78,2.34,2.96,1.42-.16,2.47-.33,4.95-.5,7.42-.02.31.47.31.48,0,.33-4.81.64-9.63.97-14.44.02-.31-.47-.31-.48,0h0Zm14.62.82c-.07,6.38,4.84,11.72,11.19,12.22.3.02.3-.45,0-.47-6.09-.48-10.78-5.64-10.71-11.74,0-.31-.47-.31-.47,0h-.01Zm-1.21,64.02c1.98.73,4.1.74,6.08.03.29-.1.16-.56-.13-.46-1.91.68-3.93.67-5.83-.03-.29-.11-.41.35-.13.46h.01Z"/>
        <path class="cls-4" d="m516.81,241.62c15.8,2.12,32.14,1.47,48.91-1.49l.63,7.26c-17.34,3.01-35.41,3.22-50.1.21l.56-5.98Z"/>
        <path class="cls-1" d="m516.81,241.62c15.8,2.12,32.14,1.47,48.91-1.49l.63,7.26c-17.34,3.01-35.41,3.22-50.1.21l.56-5.98Z"/>
        <path class="cls-4" d="m548.69,249.62c.11.7-3.53,27.55,4.31,28.71s21.87-2.73,21.97-6.71c.1-3.97-2.09-26.4-5.75-26.4s-20.53,4.4-20.53,4.4h0Z"/>
        <path class="cls-1" d="m548.69,249.62c.11.7-3.53,27.55,4.31,28.71s21.87-2.73,21.97-6.71c.1-3.97-2.09-26.4-5.75-26.4s-20.53,4.4-20.53,4.4h0Z"/>
        <path class="cls-19" d="m542.06,246.09c-.43-.12-.87-.2-1.31-.26-.08-1.64-.26-3.21-.62-3.52-.2-.16-.56-.47-6.95-.15-.6.03-1.09.53-1.19,1.22-.88,6.22,0,6.67.38,6.86.61.31,2.64.49,4.52.49,1.43,0,2.76-.1,3.31-.32.09-.04.38-.15.49-.45.09-.24.14-1.6.11-3.12.34.06.68.11,1.01.2.04.01.09.02.13.02.22,0,.42-.15.48-.37.07-.27-.09-.54-.35-.61h-.01Zm-2.3,3.42c-.95.33-6.01.32-6.91-.14-.25-.25-.41-2.01.13-5.85.03-.22.16-.36.25-.37h0c2.12-.11,3.71-.15,4.76-.15.81,0,1.29.02,1.46.05.13.37.23,1.46.3,2.66-1.21-.08-2.44.01-3.66.32-.27.07-.43.34-.36.61s.33.43.61.36c1.15-.29,2.31-.37,3.46-.29.04,1.2.04,2.34-.03,2.78v.02Z"/>
        <path class="cls-1" d="m549.53,256.05c.16.04,21.56-2.18,21.56-2.18,0,0-.82-6.59-2.09-7.07s-17.17,1.26-18.24,2.34-1.23,6.91-1.23,6.91Z"/>
        <g>
          <path class="cls-9" d="m557.78,232.33l-.99-.11-.03.27-.13,1.25s0,.1.03.15l.25.53c.05.12.08.24.06.36l-1.33,12.31.55.06.5.05,1.32-12.29c.01-.13.07-.26.16-.37l.37-.44s.06-.1.07-.15l.13-1.24.03-.27-.99-.11Z"/>
          <path class="cls-4" d="m558.25,246.81l-4.02-.43c-.37-.04-.69.15-.72.43l-.04.41c-.03.28.25.54.62.58h.09c-.42,1.24-.61,2.99-.82,4.93-.13,1.19-.35,2.11-.43,2.93l4.62-.47c.07-.63.13-1.18.22-1.99.21-1.94.4-3.69.25-4.99l-1.83-.2,1.93.21c.37.04.69-.15.73-.43l.04-.41c.03-.28-.25-.54-.62-.58h-.02Z"/>
          <polygon class="cls-1" points="554.17 247.81 558.01 248.22 558.04 248.63 554.04 248.24 554.17 247.81"/>
        </g>
        <path class="cls-20" d="m566.78,248.04c-.55-.61-.99-1.09-1.07-1.54l-.11-.67.52-.77c.11-.16.15-.36.12-.55l-.56-3.2-2.95-6.22s-.07-.07-.12-.06l-.37.06-.23.04-.1.02h0l-.11.02-.15.03-.37.06s-.09.05-.09.1l-.68,6.85.56,3.2c.03.19.14.36.3.48l.75.55h0l.12.67c.08.45-.17,1.05-.49,1.81-.55,1.33-1.32,3.16-1.08,5.95l1.56-.13c-.2-2.41.45-3.97.97-5.22.4-.95.74-1.78.58-2.68l-.1-.55c-.01-.06.03-.13.1-.14h.06l.09-.03c.06-.01.12.03.13.09l.1.56c.16.9.76,1.56,1.45,2.33.91,1,2.05,2.25,2.67,4.59l1.51-.4c-.72-2.7-2.05-4.17-3.02-5.24h.01Zm-3.26-3.85c-.53.09-1.04-.15-1.31-.58-.09-.14-.16-.3-.19-.48-.01-.07-.02-.15-.02-.22v-.07c0-.06.01-.11.02-.17,0-.05.02-.09.04-.14h0c.06-.18.15-.34.26-.47,0-.01.02-.02.03-.03.04-.04.08-.08.12-.11.01-.01.03-.02.04-.03.05-.03.09-.07.14-.09l.06-.03s.09-.04.13-.06c.07-.03.14-.05.22-.06h0c.71-.12,1.39.34,1.51,1.05.02.09.02.18.02.26-.02.6-.46,1.13-1.07,1.24h0Z"/>
        <path class="cls-4" d="m570.39,253.88l-2.2.23c-.61-2.3-1.78-3.92-2.68-4.91-.71-.78-1.33-1.46-1.49-2.4l1.98-.34c.07.41.49.87,1.03,1.46.98,1.08,2.72,2.95,3.36,5.97h0Zm-8.43-6.73c.07.41-.17.99-.48,1.72-.56,1.35-1.46,3.22-1.23,6.05l2.14-.2c-.2-2.37.44-3.91.96-5.15.41-.98.76-1.82.59-2.76l-1.98.34h0Z"/>
      </g>
      <g>
        <rect class="cls-4" x="467.16" y="228.78" width="121.53" height="42.99"/>
        <rect class="cls-1" x="579.33" y="228.78" width="9.37" height="42.99"/>
        <path class="cls-14" d="m486.39,254.96v-4.42l-2.18,3.64h-.77l-2.16-3.54v4.32h-1.6v-7.36h1.41l2.75,4.57,2.71-4.57h1.4l.02,7.36h-1.6.02Zm8.19-1.58h-3.42l-.65,1.58h-1.75l3.28-7.36h1.68l3.29,7.36h-1.79l-.65-1.58h.01Zm-.54-1.29l-1.17-2.82-1.17,2.82h2.34Zm3.74-4.49h1.7v7.36h-1.7v-7.36Zm10.2,0v7.36h-1.4l-3.67-4.47v4.47h-1.68v-7.36h1.41l3.66,4.47v-4.47h1.68Zm3.27,1.39h-2.35v-1.39h6.41v1.39h-2.35v5.97h-1.7v-5.97h-.01Zm10.67,4.6v1.37h-5.7v-7.36h5.56v1.37h-3.87v1.6h3.42v1.32h-3.42v1.7h4.01Zm8.1-5.99v7.36h-1.4l-3.67-4.47v4.47h-1.68v-7.36h1.41l3.66,4.47v-4.47h1.68Zm6.59,5.78h-3.42l-.65,1.58h-1.75l3.28-7.36h1.68l3.29,7.36h-1.79l-.65-1.58h.01Zm-.54-1.29l-1.17-2.82-1.17,2.82h2.34Zm10.49-4.49v7.36h-1.4l-3.67-4.47v4.47h-1.68v-7.36h1.41l3.66,4.47v-4.47h1.68Zm3.23,7c-.61-.33-1.08-.78-1.43-1.36s-.52-1.23-.52-1.96.17-1.38.52-1.96c.35-.58.82-1.03,1.43-1.36s1.29-.49,2.04-.49c.64,0,1.21.11,1.73.34.52.22.95.55,1.3.97l-1.09,1.01c-.5-.57-1.11-.86-1.85-.86-.46,0-.86.1-1.22.3-.36.2-.64.48-.83.84-.2.36-.3.76-.3,1.22s.1.86.3,1.22c.2.36.48.64.83.84.36.2.76.3,1.22.3.74,0,1.35-.29,1.85-.87l1.09,1.01c-.35.43-.79.75-1.3.98-.52.22-1.1.34-1.73.34-.75,0-1.43-.16-2.03-.49v-.02Zm11.91-1v1.37h-5.7v-7.36h5.56v1.37h-3.87v1.6h3.42v1.32h-3.42v1.7h4.01Z"/>
      </g>
      <g>
        <path class="cls-18" d="m588.71,243.41s-8.77,1.78-9.65,3.61,2.01,1.73,2.01,1.73c0,0-3.18.31-3.23,1.67-.06,1.64,2.97,1.52,2.97,1.52,0,0-2.59.36-2.55,1.57.04,1.27,3.47,1.38,3.47,1.38,0,0-1.77.59-1.27,1.43.5.83,7.78,1.21,9.95-.12,2.16-1.33,2.31-10.69,1.92-12.74s-1.41-3.37-3.63-4.79l.02,4.74h0Z"/>
        <path class="cls-10" d="m581.78,254.89c0-.08.05-.16.13-.16l3.99-.14c.07,0,.14.06.14.15,0,.08-.05.16-.13.16l-3.99.14c-.07,0-.14-.06-.14-.15Zm-.7-5.99h.01l5.52-.8c.07-.01.13-.09.12-.17-.01-.08-.08-.14-.15-.13l-5.52.8c-.07.01-.13.09-.12.17,0,.08.07.14.14.13Zm-.25,3.05c0-.08.05-.16.13-.16l5.36-.34c.09,0,.14.06.14.15,0,.08-.05.16-.13.16l-5.36.34h0c-.07,0-.14-.06-.14-.15Z"/>
      </g>
      <g>
        <path class="cls-18" d="m492.13,228.82s-1.74,8.78-3.56,9.67-1.74-2-1.74-2c0,0-.29,3.18-1.66,3.24-1.64.07-1.54-2.96-1.54-2.96,0,0-.34,2.59-1.56,2.56-1.27-.03-1.39-3.46-1.39-3.46,0,0-.59,1.78-1.42,1.28-.84-.5-1.25-7.78.08-9.95,1.32-2.17,10.68-2.36,12.73-1.98s3.38,1.4,4.8,3.61h-4.74Z"/>
        <path class="cls-10" d="m486.76,236.47h0s.77-5.53.77-5.53c.01-.07.09-.13.17-.12.08.01.15.08.13.15l-.77,5.52c-.01.07-.09.13-.17.12-.08,0-.14-.07-.13-.14h0Zm-3.04.26c.08,0,.16-.05.16-.13l.32-5.36c0-.09-.06-.14-.15-.14-.08,0-.16.05-.16.13l-.32,5.36h0c0,.07.06.14.15.14Zm-2.95-.93c.08,0,.16-.06.16-.13l.12-3.99c0-.07-.06-.14-.15-.14-.08,0-.16.06-.16.13l-.12,3.99c0,.07.06.14.15.14Z"/>
      </g>
      <g>
        <path class="cls-18" d="m551.77,168.33s-.93-5.14,1.74-14.21c0,0-.48-.22-.48-.23.37-1.27.76-2.44,1.13-3.46v-.04l-12.45,7.63c.28,2.91-.78,8.51-1.41,10.88,0,0-1.58,4.29,4.12,4.5,4.17.15,7.34-5.07,7.34-5.07h0Z"/>
        <path class="cls-10" d="m541.48,162.31l7.16-1.59c-.66,2.22-2.63,4.85-7.61,5.05,0,0,.51-2.49.45-3.46Z"/>
        <path class="cls-19" d="m533.2,136.73c-1.47,2.87-2.01,9.19,2.57,7.89s-.04-12.82-2.57-7.89Z"/>
        <path class="cls-18" d="m554.28,144.56c-.87,7.87-1.2,12.33-5.39,16.16-6.3,5.75-15.67,1.76-17.18-6.23-1.36-7.2.29-18.86,8.18-21.56,7.78-2.65,15.25,3.76,14.38,11.64h.01Z"/>
        <path class="cls-19" d="m556.02,135.32c-.87-4.4-12.05-5.19-15.21-3.11-.47.31,5.83,3.87,5.45,3.71l2.99,1.2c.47-.08,1.37.51,1.77,1.99,0,0-1.56,8.31,1.7,11.98,3.51-1.42,4.51-2.77,5.52-5.59,1.5-4.19-.56-7.67-2.23-10.17h0Z"/>
        <path class="cls-18" d="m557.08,151.29c-.73,2-2.32,3.47-3.92,4.18-2.41,1.06-4.01-1.02-3.67-3.5.31-2.23,1.94-5.47,4.52-5.48,2.54,0,3.91,2.51,3.07,4.8h0Z"/>
        <path class="cls-19" d="m542.87,146.29c-.04.81-.5,1.44-1.03,1.41s-.93-.71-.89-1.52.5-1.44,1.03-1.41.93.71.89,1.52Zm-8.82-1.74c-.53-.03-.99.6-1.03,1.41s.36,1.49.89,1.52.99-.6,1.03-1.41c.04-.81-.36-1.49-.89-1.52Z"/>
        <path class="cls-16" d="m537.54,145.74s-2.75,3.89-3.65,5.49c1.08,1.07,3.04.7,3.04.7l.62-6.18h0Z"/>
        <path class="cls-10" d="m551.67,151.46h-.04c-.14-.02-.23-.15-.21-.29.12-.72.42-1.4.88-1.97.31-.39.83-.87,1.54-1.01.7-.14,1.42.15,1.76.7.07.12.03.27-.08.34-.12.07-.27.03-.34-.08-.22-.37-.74-.56-1.23-.47-.56.11-.99.52-1.25.84-.41.5-.67,1.1-.78,1.73-.02.12-.13.21-.25.21h0Z"/>
        <path class="cls-8" d="m544.64,152.06l-6.86,2.38c.41.75.83,1.51,1.42,2.12s1.34.87,2.19.89c1.22.03,2.37-.68,2.87-1.8.5-1.12.51-2.39.38-3.61v.02Z"/>
        <path class="cls-14" d="m538.34,154.25s.47.86.91.98c.43.12,5.48-1.9,5.48-1.9l-.08-1.27-6.31,2.19h0Z"/>
        <path class="cls-13" d="m540.52,157.34s.34-1.21,1.75-1.79c1.41-.58,2.15-.29,2.15-.29,0,0-.41,1.44-1.74,1.95s-2.16.13-2.16.13h0Z"/>
        <path class="cls-4" d="m532.31,137.74s5.61-11.62,16.3-8.45,11.31,9.55,9.83,15.9c0,0-9.95-5.02-14.35-6.61-4.4-1.58-11.78-.84-11.78-.84Z"/>
        <path class="cls-10" d="m532.31,137.74s5.61-11.62,16.3-8.45,11.31,9.55,9.83,15.9c0,0-9.95-5.02-14.35-6.61-4.4-1.58-11.78-.84-11.78-.84Z"/>
        <path class="cls-4" d="m538.35,136.14c-6-.44-8.18-.72-13.72.49-.89.19-1.8.44-2.5,1.02s-1.13,1.58-.78,2.42c.23.55.69,1.04,1.25,1.25,1.97.75,6.55,1.58,9.43,1.84l.78-2.75c.4-1.4,1.63-2.42,3.08-2.51,1.97-.12,4.49-.08,6.56.5,4.84,1.35,8.85,2.99,13.34,5.47-3.61-3.05-6.07-4.56-10.7-6.22-1.25-.45-3.16-1.25-6.75-1.51h0Z"/>
        <path class="cls-4" d="m552.04,129.39c-.35-.39-.9-.57-1.43-.52-.52.05-1.01.31-1.38.68l3.08,1.3c.21-.48.09-1.08-.27-1.46h0Z"/>
        <path class="cls-19" d="m545.03,142.58c-.12.04-.27.02-.38-.07-1.29-1.11-2.63-.74-2.65-.74-.2.06-.41-.06-.47-.26s.06-.41.26-.47c.07-.02,1.76-.48,3.35.9.16.14.18.38.04.53-.04.05-.1.09-.16.11h.01Zm-13.08-.17c1.25-1.12,2.55-.78,2.62-.76.2.05.41-.06.46-.27.05-.2-.07-.41-.27-.47-.08,0-1.76-.47-3.31.92-.16.14-.17.38-.03.54.05.06.12.1.19.12.12.03.25,0,.35-.08h0Z"/>
      </g>
    </g>
  </g>
  <g id="Character_1" data-name="Character 1">
    <g>
      <path class="cls-15" d="m4.14,287.76h0c-5.41-5.11-5.54-13.77-.29-19.33l2.58-3.16,19.94,18.25-2.92,3.42c-5.26,5.57-13.91,5.94-19.32.83h0Z"/>
      <g>
        <rect class="cls-19" x="-9.18" y="205.91" width="152.35" height="31.1" transform="translate(-140.03 118.16) rotate(-46.65)"/>
        <polygon class="cls-7" points="107.99 155.4 134.08 150.4 130.6 176.75 107.99 155.4"/>
        <path class="cls-4" d="m126.25,151.9l6.79,6.41,1.2-7.46c.06-.36-.26-.66-.62-.59l-7.37,1.63h0Z"/>
      </g>
      <path class="cls-17" d="m114.74,162.37L14.39,268.48l9.23,8.71,99.58-107.72s-16.08,7.27-8.46-7.11h0Z"/>
      <g>
        <path class="cls-19" d="m4.87,265.11l21.96,20.73c.85.8.88,2.14.09,2.98l-.03.03c-.8.84-2.14.88-2.98.09l-21.96-20.73c-.85-.8-.88-2.14-.09-2.98l.03-.03c.8-.84,2.14-.88,2.98-.09Z"/>
        <path class="cls-11" d="m4.87,265.11l21.96,20.73c.85.8.88,2.14.09,2.98l-.03.03c-.8.84-2.14.88-2.98.09l-21.96-20.73c-.85-.8-.88-2.14-.09-2.98l.03-.03c.8-.84,2.14-.88,2.98-.09Z"/>
      </g>
      <g>
        <path class="cls-19" d="m27,286.01l-21.96-20.73c-.85-.8-.89-2.14-.09-2.99l.02-.03c.8-.85,2.14-.89,2.99-.09l21.96,20.73c.85.8.89,2.14.09,2.99l-.02.03c-.8.85-2.14.89-2.99.09Z"/>
        <path class="cls-17" d="m27,286.01l-21.96-20.73c-.85-.8-.89-2.14-.09-2.99l.02-.03c.8-.85,2.14-.89,2.99-.09l21.96,20.73c.85.8.89,2.14.09,2.99l-.02.03c-.8.85-2.14.89-2.99.09Z"/>
      </g>
      <g>
        <path class="cls-19" d="m29.76,283.08l-21.96-20.73c-.85-.8-.89-2.14-.09-2.99l.02-.03c.8-.85,2.14-.89,2.99-.09l21.96,20.73c.85.8.89,2.14.09,2.99l-.02.03c-.8.85-2.14.89-2.99.09Z"/>
        <path class="cls-11" d="m29.76,283.08l-21.96-20.73c-.85-.8-.89-2.14-.09-2.99l.02-.03c.8-.85,2.14-.89,2.99-.09l21.96,20.73c.85.8.89,2.14.09,2.99l-.02.03c-.8.85-2.14.89-2.99.09Z"/>
      </g>
      <path class="cls-7" d="m107.99,155.4c-1.42,1.82-2.45,3.74-3.14,5.75-.18.53-.32,1.12-.09,1.62.37.79,1.43.91,2.31.88,2.89-.1,4.94-.35,7.67-1.28-.95,1.78-2.01,3.45-3.06,5.54-.35.69-.68,1.49-.42,2.22.37,1.06,1.7,1.38,2.82,1.42,3.77.15,4.7-.52,8.84-1.74,1.09.47-.07,2.4-.61,4.47-.64,2.47.09,4.71,2.23,4.59,1.6-.08,5.04-.9,6.06-2.12"/>
    </g>
    <g>
      <path class="cls-5" d="m50.07,199.86c-.4,0-3.19,17.72-3,18.24.69,1.92,21.15-2.36,21.15-2.36l1.29,5.47s-8.94,4.34-18.55,5.91c-9.92,1.62-13.63-2.77-13.68-9.5-.04-6.17,2.51-21.16,2.51-21.16l10.27,3.41h.01Z"/>
      <g>
        <path class="cls-5" d="m97.77,296.24c-2.88-28.01-6.14-44.17-7.71-50.93h0c-.59-2.54-.94-3.76-.94-3.76l-.2.06c-1.79-5.7-2.61-7.45-4.55-10.65l-31.38,4.41c-4.64,6.08-5.17,15.55-4.85,25.62.85,15.75,4.53,39.11,4.89,44.42h.37c-.02,4.07-2.56,17.77-2.56,23.87-.01,20.79,2.44,53.41,2.44,53.41l1.89,5.61,6.38-4.83s10.99-72.98,11.12-77.31c.02-.48.03-.97.06-1.47l.43-7.56c.12-1.85.26-3.76.39-5.7l4.69,14.55c-2.74,11.9-5.85,49.17-3.91,79.1l8.32-1.18,12.19-62.29c1.22-6.88,3.69-18,2.93-25.36h0Z"/>
        <path class="cls-19" d="m62.55,382.4h-2.7c-.61,0-1.17.31-1.54.8-1.56,2.12-2.72,1.32-4.42-.68-1.08-.13-1.37,1.11-1.45,1.44l-2.02,7.33c-.18.61.18,1.25.79,1.43.11.03.22.05.34.04h21.37c3.4,0,4.1-3.43,2.7-3.74-6.3-1.39-10.75-3.24-12.7-5.08-.36-.32,0-.56-.38-1.55h0Z"/>
        <path class="cls-4" d="m68.4,384.49c.28-.2.45-.53.46-.88.02-.19-.06-.37-.22-.48-.85-.6-4.22.98-4.6,1.16-.04.02-.08.05-.09.09-.03.08,0,.16.09.19.83.2,1.68.31,2.53.33.64.06,1.28-.08,1.83-.41h0Zm.03-1.1c.07.04.1.12.09.2,0,.25-.14.49-.33.64-.77.57-2.62.33-3.61.14,1.4-.62,3.39-1.31,3.86-.99h0Zm-4.27,1.22c1.01-.42,3.13-2.09,3.02-2.97-.02-.18-.15-.4-.61-.47-1.85-.21-2.64,3.11-2.64,3.25-.02.06,0,.12.04.16.03.01.07.01.11,0l.08.03Zm2.35-3.16c.34.04.34.16.34.2.1.54-1.44,1.92-2.54,2.5.23-.77.91-2.71,2.08-2.71h.12Zm-4.38,4.76s-.09-.01-.13-.04c-.12-.07-.15-.23-.08-.34.54-.86,1.46-1.45,2.47-1.59.13-.01.26.08.28.21.02.14-.08.26-.21.28-.86.12-1.65.63-2.11,1.36-.05.08-.13.12-.21.12h0Zm1.68,1.26s-.09-.01-.13-.04c-.12-.07-.15-.23-.08-.34.54-.86,1.46-1.45,2.47-1.59.13-.02.26.08.28.21.02.14-.08.26-.21.28-.86.12-1.65.63-2.11,1.36-.05.08-.13.12-.21.12h0Zm2.09,1.06s-.09-.01-.13-.04c-.12-.07-.15-.23-.08-.35.54-.86,1.46-1.45,2.47-1.59.13-.01.26.08.28.21.02.14-.08.26-.21.28-.86.12-1.65.63-2.11,1.36-.05.08-.13.12-.21.12h0Z"/>
        <polygon class="cls-1" points="72.36 388.22 72.19 392.73 69.61 392.73 71.03 387.84 72.36 388.22"/>
        <path class="cls-19" d="m83.06,382.56h-2.7c-.61,0-1.17.31-1.54.8-1.56,2.12-2.72,1.32-4.42-.68-1.08-.13-1.37,1.11-1.45,1.44l-2.02,7.33c-.18.61.18,1.25.79,1.43.11.03.22.05.34.04h21.37c3.4,0,4.1-3.43,2.7-3.74-6.3-1.39-10.75-3.24-12.7-5.08-.36-.32,0-.56-.38-1.55h.01Z"/>
        <g>
          <path class="cls-4" d="m86.86,385.87c-.02-.14-.15-.23-.28-.21-1.01.14-1.93.73-2.47,1.59-.07.12-.04.27.08.34.04.03.09.04.13.04.08,0,.16-.04.21-.12.46-.73,1.25-1.24,2.11-1.36.14-.02.23-.15.21-.28h0Z"/>
          <path class="cls-4" d="m88.66,386.72c-1,.14-1.93.73-2.47,1.59-.07.12-.04.27.08.35.04.03.09.04.13.04.08,0,.16-.04.21-.12.46-.74,1.25-1.24,2.11-1.36.14-.02.23-.15.21-.28-.02-.14-.15-.23-.28-.21h0Z"/>
          <path class="cls-4" d="m89.15,383.29c-.48-.34-1.76.02-2.86.42.78-.64,1.46-1.41,1.4-1.91-.02-.18-.15-.41-.61-.47-1.72-.2-2.52,2.66-2.63,3.17.02,0,.04-.01.06-.02-.02.02-.04.03-.05.05-.03.08,0,.16.09.19.04.01.09.01.14.02.13-.06.28-.13.43-.22h-.04s.03-.01.04-.02c0,0,0,.01,0,.02.04-.02.07-.05.11-.07,1.39-.6,3.25-1.23,3.7-.92.07.04.1.12.09.2,0,.25-.14.49-.33.64-.75.56-2.55.33-3.55.15,0,.02.04.04.04.07,0,.09-.04.17-.11.22.66.13,1.33.22,2.01.23.64.06,1.28-.08,1.83-.41.28-.2.45-.53.46-.88.02-.19-.06-.37-.22-.48v.02Zm-2.25-1.69h.12c.34.04.34.17.34.21.1.54-1.44,1.92-2.54,2.5.23-.77.91-2.71,2.08-2.71Z"/>
          <path class="cls-4" d="m84.67,384.77l-.08-.03s-.07.01-.11,0c-.05-.04-.06-.1-.04-.16,0,0,0-.04,0-.08-.83.23-1.56.75-2.02,1.48-.07.12-.04.27.08.34.04.03.09.04.13.04.08,0,.16-.04.21-.12.46-.73,1.25-1.24,2.11-1.36.04,0,.07-.04.11-.06-.13-.02-.26-.04-.38-.07,0,0,0,0-.02.01h0Z"/>
        </g>
        <path class="cls-10" d="m53.25,307.6l.14-2.19h19.3l-.36,3.84-19.08-1.66h0Zm24.8-2.19l.18.56-.72,3.66,19.17,1.78.84-5.99h-19.47,0Z"/>
      </g>
      <path class="cls-4" d="m51.77,232.64s-7.2,17.37-5.91,29.42c1.29,12.08,3.89,43.35,3.89,43.35h50.22s-1.19-18.2-2.64-27.39c-1.45-9.19-4.97-31.86-9.78-40.84s-35.78-4.54-35.78-4.54h0Z"/>
      <path class="cls-10" d="m72.95,289.35c-3.28-14.43-8.91-18.4-11.05-20.93l12.8,28.6-1.75-7.66h0Z"/>
      <path class="cls-4" d="m82.99,205.79c.1-.98.18-1.93.25-2.88l8.95-1.69s-1.52-6.45-5.41-13.84c-.77-1.46-2.06-2.59-3.62-3.16-.77-.28-1.46-.56-2.07-.82-1.25-.77-2.91-1.41-5.08-2.11-3.2-1.05-6.95-1.88-6.95-1.88l-9.74-.53s-11.97,2.78-16.54,6.58c-3.46,1.89-5.08,14.17-5.08,14.17l8.76,3.8c.82,2.65,3.49,12.94,3.71,13.87,1.29,5.34,1.43,6.61,1.69,9.66-.36,2.39-2.26,8.8-3.06,11.24,0,0,12.51,11.92,40.15.4l-4.76-12.5c-.83-5.12-1.5-17.34-1.2-20.32h0Z"/>
      <path class="cls-21" d="m82.99,205.79c.1-.98.18-1.93.25-2.88l8.95-1.69s-1.52-6.45-5.41-13.84c-.77-1.46-2.06-2.59-3.62-3.16-.77-.28-1.46-.56-2.07-.82-1.25-.77-2.91-1.41-5.08-2.11-3.2-1.05-6.95-1.88-6.95-1.88l-9.74-.53s-11.97,2.78-16.54,6.58c-3.46,1.89-5.08,14.17-5.08,14.17l8.76,3.8c.82,2.65,3.49,12.94,3.71,13.87,1.29,5.34,1.43,6.61,1.69,9.66-.36,2.39-2.26,8.8-3.06,11.24,0,0,12.51,11.92,40.15.4l-4.76-12.5c-.83-5.12-1.5-17.34-1.2-20.32h0Z"/>
      <path class="cls-5" d="m113.01,194.31s-1.72,1.95-2.63,2.29c-.66.24-3.11.64-4.41.56-1.38-.08-1.41-2.23-1.41-2.23h-.52s-1.08.8-1.55,1.9c-.43,1.02.31,4.19.89,5.07l-.43.62-.08-.03-7.62,10.04-4.41-11.05-10.64,2s4.89,12.94,7.83,18.36c3.2,5.92,8.51,7.39,12.44-1.07,1.7-3.65,3.6-7.28,5.16-10.14l.03.05,3.98-7.15s3.33-5.25,3.37-6.29l-.13-.4s.49-.55.58-1.34-.45-1.19-.45-1.19h0Z"/>
      <path class="cls-18" d="m58.71,165.64c.86,4.28,2.8,12.83-.15,15.69,0,0,1.19,4.28,9.09,4.28,8.68,0,4.12-4.28,4.12-4.28-4.75-1.13-4.65-4.64-3.84-7.94l-9.22-7.75Z"/>
      <path class="cls-19" d="m76.6,157.8c-.11,0-.21-.04-.28-.12-.15-.15-.15-.39,0-.54.89-.86,2.13-1.24,3.34-1.04.2.05.33.25.28.45h0c-.04.21-.24.35-.45.3h0c-.96-.17-1.95.14-2.64.83-.06.07-.15.11-.24.11h0Z"/>
      <path class="cls-3" d="m77.78,162.75c.23,1.59.68,3.14,1.34,4.61-.77.32-1.64.27-2.37-.12l1.04-4.49h0Z"/>
      <path class="cls-19" d="m79.92,160.46l-1.63.08s.02,0,.02.03c-.37,0-.72.38-.87.96-.15.64.08,1.24.49,1.34.42.1.87-.34.97-.97.06-.37,0-.72-.11-.97.53.1,1.12-.46,1.12-.46h0Z"/>
      <path class="cls-5" d="m56.56,154.26c-1.33,7.95-2.05,11.29.97,16.25,4.55,7.45,14.59,7.4,18.25,0,3.3-6.64,4.91-18.52-2.02-23.45-4.88-3.53-11.71-2.44-15.25,2.44-1.02,1.41-1.69,3.04-1.95,4.76Z"/>
      <path class="cls-19" d="m66.33,143.29c6.64-2.73,13.56-.9,14.23,6s-7.1,13.47-7.1,13.47l-7.13-19.46h0Z"/>
      <path class="cls-5" d="m69.53,161.19c-.18,1.55.25,3.11,1.21,4.35,1.29,1.62,3.13.77,3.78-1.08.59-1.66.62-4.5-1.15-5.46-1.29-.67-2.88-.16-3.55,1.14-.17.33-.27.69-.29,1.05h0Z"/>
      <path class="cls-1" d="m72.8,165.21c-.06,0-.11-.02-.16-.06-.83-.67-1.33-1.75-1.31-2.82,0-.44.1-.79.29-1.07.25-.38.67-.58,1.07-.53.14.02.23.14.22.28-.02.14-.15.23-.28.22-.21-.03-.44.1-.59.31-.13.2-.2.46-.2.8-.02.92.41,1.84,1.12,2.42.11.09.12.24.04.35-.05.06-.12.09-.19.09h0Z"/>
      <path class="cls-1" d="m43.66,189.3c.05.17,1.92,11.13,5.73,12.14,1.81.48,16.35.21,16.35.21l1.29-2.02,2.19,2.02h9.24l-5.28-9.19.54-15.01-30.05,11.86h0Z"/>
      <path class="cls-19" d="m72.05,162.54c3.26-6.21,1.41-17.44-5.8-19.55-6.48-1.89-16.76.05-16.38,11.65.39,11.61-2.32,10.39-5.25,17.84-3.07,7.82-2.17,18.12,3.03,26.56h14.36l2.62-3.77,3.1,3.77h12.47c-6.15-8.54-2.48-11.87-1.73-19.62s-9.23-11.55-6.42-16.89h0Z"/>
      <path class="cls-4" d="m57.28,145.13c-.38-.89-1.16-1.69-2.13-1.75-.5-.03-.98.13-1.45.29l-.09.61c-.38.96-1.15,1.7-1.73,2.55-.58.85-.97,2-.47,2.9.37.68,1.15,1.04,1.92,1.13,1.39.15,2.83-.56,3.61-1.72s.9-2.73.34-4.02h0Z"/>
      <path class="cls-19" d="m55.6,149.47c.47-1.04.8-3.4.58-4.29-.32-1.3-1.24-2.39-2.29-3.23-.53-.43-1.11-.81-1.76-1.02-1.06-.36-2.22-.26-3.31-.02-1.24.28-2.47.75-3.37,1.65-1.22,1.21-1.65,3.16-1.06,4.78s2.17,2.82,3.89,2.97c-1.07.31-2.1.8-3.01,1.44-.08.06-.17.13-.18.22,0,.09.06.18.12.24.56.58,1.43.8,2.24.75s1.59-.32,2.35-.6c-.24.78-.47,1.57-.71,2.35-.07.24-.15.5-.08.74.15.55.89.67,1.45.57,1.72-.31,3.13-1.62,3.97-3.15.58-1.06.92-2.22,1.17-3.4h0Z"/>
    </g>
  </g>
</svg>