<?xml version="1.0" encoding="UTF-8"?>
<svg xmlns="http://www.w3.org/2000/svg" viewBox="0 0 750 429.85">
  <defs>
    <style>
      .cls-1, .cls-2 {
        opacity: .7;
      }

      .cls-3 {
        opacity: .1;
      }

      .cls-3, .cls-4, .cls-5, .cls-6, .cls-7, .cls-8, .cls-9, .cls-10, .cls-11, .cls-12, .cls-13, .cls-14, .cls-15, .cls-16, .cls-17, .cls-18, .cls-19, .cls-20, .cls-21, .cls-22, .cls-23, .cls-24, .cls-25, .cls-26, .cls-2, .cls-27, .cls-28, .cls-29, .cls-30 {
        stroke-width: 0px;
      }

      .cls-3, .cls-4, .cls-5, .cls-16, .cls-17, .cls-22, .cls-2, .cls-28, .cls-29, .cls-30 {
        fill: #fff;
      }

      .cls-3, .cls-5, .cls-9, .cls-28 {
        isolation: isolate;
      }

      .cls-4, .cls-10, .cls-28 {
        opacity: .4;
      }

      .cls-5, .cls-9, .cls-20, .cls-29 {
        opacity: .2;
      }

      .cls-6 {
        fill: #773737;
      }

      .cls-7 {
        fill: #407bff;
      }

      .cls-8 {
        fill: #895555;
      }

      .cls-11 {
        fill: #e6e6e6;
      }

      .cls-12 {
        fill: #eec1bb;
      }

      .cls-14, .cls-30 {
        opacity: .3;
      }

      .cls-15 {
        fill: #e0e0e0;
      }

      .cls-16 {
        opacity: .5;
      }

      .cls-17, .cls-31 {
        opacity: .8;
      }

      .cls-18 {
        fill: #f5f5f5;
      }

      .cls-19 {
        fill: #f0f0f0;
      }

      .cls-21 {
        fill: #de5753;
      }

      .cls-23 {
        fill: #d4827d;
      }

      .cls-24 {
        fill: #a24e3f;
      }

      .cls-25 {
        fill: #b97964;
      }

      .cls-26 {
        fill: #263238;
      }

      .cls-27 {
        fill: #ebebeb;
      }
    </style>
  </defs>
  <g id="Background_complete" data-name="Background complete">
    <path class="cls-15" d="m673.73,294.7h-180.75c-3.23,0-5.86-2.63-5.86-5.86V25.56c0-3.23,2.63-5.86,5.86-5.86h180.75c3.23,0,5.86,2.63,5.86,5.86v263.27c0,3.23-2.63,5.86-5.86,5.86ZM492.99,19.95c-3.09,0-5.61,2.52-5.61,5.61v263.27c0,3.09,2.52,5.61,5.61,5.61h180.75c3.09,0,5.61-2.52,5.61-5.61V25.56c0-3.09-2.52-5.61-5.61-5.61h-180.75Zm-27.68,274.75h-180.75c-3.23,0-5.86-2.63-5.86-5.86V25.56c0-3.23,2.63-5.86,5.86-5.86h180.75c3.23,0,5.86,2.63,5.86,5.86v263.27c0,3.23-2.63,5.86-5.86,5.86ZM284.56,19.95c-3.09,0-5.61,2.52-5.61,5.61v263.27c0,3.09,2.52,5.61,5.61,5.61h180.75c3.09,0,5.61-2.52,5.61-5.61V25.56c0-3.09-2.52-5.61-5.61-5.61h-180.75Zm-27.55,274.75H76.27c-3.23,0-5.86-2.63-5.86-5.86V25.56c0-3.23,2.63-5.86,5.86-5.86h180.75c3.23,0,5.86,2.63,5.86,5.86v263.27c0,3.23-2.63,5.86-5.86,5.86ZM76.27,19.95c-3.09,0-5.61,2.52-5.61,5.61v263.27c0,3.09,2.52,5.61,5.61,5.61h180.75c3.09,0,5.61-2.52,5.61-5.61V25.56c0-3.09-2.52-5.61-5.61-5.61H76.27Zm673.73,335.82H0v.12h750v-.12Zm-96.37,29.8h55.73v-.42h-55.73v.42Zm-158.58,4.57h14.63v-.42h-14.63v.42Zm-454.4-17.36h72.67v-.42H40.64v.42Zm87.65,0h10.66v-.42h-10.66v.42Zm45.29,7.1h157.61v-.42h-157.61v.42Z"/>
    <g>
      <rect class="cls-15" x="286.06" y="295.46" width="27.76" height="11.53"/>
      <rect class="cls-11" x="301.48" y="284.03" width="27.76" height="11.53"/>
      <rect class="cls-18" x="302.4" y="306.77" width="27.76" height="11.53"/>
      <rect class="cls-15" x="598.82" y="37.85" width="27.76" height="11.53"/>
      <rect class="cls-11" x="614.24" y="26.41" width="27.76" height="11.53"/>
      <rect class="cls-18" x="615.16" y="49.16" width="27.76" height="11.53"/>
      <rect class="cls-15" x="461.08" y="81.1" width="27.76" height="11.53"/>
      <rect class="cls-18" x="477.43" y="92.41" width="27.76" height="11.53"/>
      <rect class="cls-11" x="64.77" y="191.26" width="27.76" height="11.53"/>
      <rect class="cls-18" x="78.64" y="202.79" width="27.76" height="11.53"/>
      <rect class="cls-11" x="672.47" y="210.04" width="27.76" height="11.53"/>
      <rect class="cls-18" x="686.35" y="221.57" width="27.76" height="11.53"/>
      <rect class="cls-11" x="309.15" width="27.76" height="11.53"/>
      <rect class="cls-18" x="323.03" y="11.53" width="27.76" height="11.53"/>
      <rect class="cls-18" x="449.71" y="314.72" width="27.76" height="11.53"/>
      <rect class="cls-18" x="648.9" y="106.61" width="27.76" height="11.53"/>
      <rect class="cls-18" x="227.1" y="259.92" width="27.76" height="11.53"/>
    </g>
    <g>
      <g>
        <path class="cls-15" d="m512.34,396.72c-.01-.41-1.38-40.65-7.92-47.02-6.37-6.19-13.68-.23-13.98.03l-.66-.79c.08-.07,8.33-6.8,15.35.03,6.84,6.65,8.18,46.05,8.23,47.72l-1.02.03Z"/>
        <path class="cls-15" d="m512.9,404.63c-.05-.48-4.47-48.32,13-68.37l.77.67c-17.18,19.72-12.79,67.12-12.75,67.6l-1.02.1Z"/>
        <path class="cls-15" d="m512.25,399.57l-1.02-.07c.04-.54,3.42-54.39-9.4-66.17l.69-.75c13.17,12.12,9.87,64.76,9.72,66.99Z"/>
        <path class="cls-15" d="m513.92,399.54h-1.02c.01-1.49.42-36.38,10.33-42.06,2.2-1.26,4.36-1.47,6.41-.63,5.99,2.48,8.96,13.14,9.08,13.59l-.99.27c-.03-.11-2.96-10.63-8.49-12.92-1.74-.72-3.6-.53-5.51.57-9.4,5.39-9.81,40.81-9.82,41.17Z"/>
        <path class="cls-15" d="m510.06,399.56l-1.02-.06c.02-.28,1.49-27.57-5.87-37.18-1.78-2.33-3.72-3.44-5.77-3.3-4.83.34-8.87,7.4-8.91,7.47l-.89-.5c.18-.31,4.36-7.61,9.73-7.99,2.41-.17,4.65,1.07,6.66,3.7,7.6,9.92,6.15,36.73,6.08,37.86Z"/>
        <path class="cls-15" d="m511.68,403.28c-.2-2.65-4.82-64.97,3.3-75.95l.82.61c-7.89,10.68-3.15,74.62-3.11,75.26l-1.02.08Z"/>
      </g>
      <path class="cls-27" d="m531.85,363.17s-4.87,1.8-3.42,6.03c1.45,4.24,16.85,11.22,16.85,11.22,0,0,6.45-5.91.53-15.53-5.92-9.62-13.82-4.76-13.95-1.72Z"/>
      <path class="cls-27" d="m510.68,355.1s5.19-.22,5.48,4.25c.29,4.47-11.24,16.84-11.24,16.84,0,0-8.23-2.98-6.46-14.13,1.77-11.15,10.93-9.71,12.22-6.96Z"/>
      <path class="cls-27" d="m506.28,333.71s3.46-.37,3.18-2.48c-.28-2.11-13.44-7.53-21.21,1.24,0,0,4.97,8.54,12.16,8.65,7.19.11,5.87-7.42,5.87-7.42Z"/>
      <path class="cls-27" d="m512.73,328.59s-3.13,1.51-4.01-.42c-.88-1.93,7.43-13.5,18.66-10.17,0,0,.3,9.88-5.74,13.78-6.04,3.9-8.9-3.19-8.9-3.19Z"/>
      <path class="cls-27" d="m496.36,361.47s2.39-1.93-.19-2.87c-2.58-.94-15.21-.67-15.35,11.85,0,0,14.72,2.45,16.54-2.32,1.82-4.77-1.01-6.66-1.01-6.66Z"/>
      <path class="cls-27" d="m526.37,333.39s-2.39-1.93.19-2.87c2.58-.94,15.21-.67,15.34,11.85,0,0-14.72,2.45-16.54-2.32-1.82-4.77,1.01-6.66,1.01-6.66Z"/>
      <path class="cls-27" d="m518.59,343.48s-.21-2.34,1.68-1.42c1.89.92,8.48,8.03,1.65,14.77,0,0-9.19-6.81-7.54-10.35,1.66-3.55,4.2-2.99,4.2-2.99Z"/>
      <path class="cls-27" d="m494.22,346.81s1.43-1.87-.66-2.1c-2.09-.23-11.45,2.27-9.27,11.62,0,0,11.41-.86,11.9-4.74.49-3.88-1.96-4.77-1.96-4.77Z"/>
      <polygon class="cls-19" points="523.51 417.59 500.5 417.59 494.38 389.37 529.05 389.37 523.51 417.59"/>
      <rect class="cls-11" x="492.3" y="388.96" width="38.75" height="8.12"/>
    </g>
  </g>
  <g id="Shadow">
    <path class="cls-18" d="m679.18,423.72c0,3.39-136.18,6.13-304.18,6.13s-304.18-2.75-304.18-6.13,136.18-6.13,304.18-6.13,304.18,2.75,304.18,6.13Z"/>
  </g>
  <g id="Speech_Bubble" data-name="Speech Bubble">
    <g>
      <path class="cls-7" d="m658.45,172.85c-.08-.07-.15-.16-.24-.23l-6.35.09,2.15-5.61c-3.69-7.16-2.83-16.14,2.86-22.5,7.37-8.24,20.03-8.94,28.26-1.57,8.24,7.37,8.94,20.03,1.57,28.26-7.37,8.24-20.03,8.94-28.26,1.57Zm35.34-19.18c.14-.01.24-.14.22-.27-.69-6.53-4.92-12.65-10.8-15.58-.12-.06-.27-.01-.33.11-.06.12-.01.27.11.34,5.72,2.86,9.85,8.82,10.52,15.19.01.13.12.22.25.22,0,0,.02,0,.03,0Zm.34,5.74c.24-1,.27-2.05.08-3.06-.02-.14-.15-.23-.29-.2-.14.02-.23.15-.2.29.17.94.14,1.92-.08,2.85-.03.13.05.27.19.3.02,0,.04,0,.06,0,.11,0,.22-.08.24-.19Z"/>
      <polygon class="cls-22" points="671.4 166.45 662.23 159.62 664.61 156.42 670.77 161 679.22 150.92 682.28 153.48 671.4 166.45"/>
    </g>
  </g>
  <g id="Plant">
    <g>
      <path class="cls-7" d="m264.62,367.26c2.44-3,7.14-5,12.31-5.97-.41,1.48-.1,2.84.77,3.18.97.37,2.28-.67,2.92-2.34.18-.47.28-.94.32-1.37,5.21-.42,10.42.18,13.9,1.84,0,0-3.4,3.07-7.26,11.14-.12,0-.24,0-.36,0-2.5.03-4.51,1.23-4.49,2.69.01,1.07,1.1,1.97,2.66,2.38-.2.52-.4,1.04-.61,1.59-3.67,9.94-13.47,2.75-13.38-4.05,0,0-12.24-2.35-6.78-9.08Z"/>
      <path class="cls-7" d="m252.55,354.42c-3-3.24-8.52-5.17-14.48-5.88.57,1.65.33,3.23-.64,3.68-1.08.5-2.65-.6-3.5-2.45-.24-.52-.39-1.05-.47-1.54-5.97-.09-11.87.98-15.71,3.14,0,0,4.11,3.24,9.11,12.15.13-.01.27-.03.41-.03,2.85-.16,5.23,1.07,5.32,2.73.07,1.22-1.11,2.33-2.86,2.91.27.57.54,1.16.81,1.76,4.93,11.06,15.57,2.13,14.96-5.62,0,0,13.77-3.59,7.05-10.85Z"/>
      <g>
        <path class="cls-7" d="m245.26,352c1.27-6.22,6.62-12.71,13.42-18.03.53,2.46,2.01,4.22,3.53,4.04,1.7-.19,2.82-2.71,2.48-5.62-.09-.82-.3-1.58-.58-2.25,7.27-4.57,15.32-7.64,21.65-7.84,0,0-2.64,7.05-2.14,21.73-.18.08-.35.17-.53.26-3.62,1.93-5.64,5.21-4.51,7.33.82,1.55,3.1,2.04,5.68,1.45.1.91.2,1.83.32,2.77,2.18,17.27-17.55,14.23-22.58,4.24,0,0-19.61,5.85-16.76-8.09Z"/>
        <path class="cls-29" d="m245.26,352c1.27-6.22,6.62-12.71,13.42-18.03.53,2.46,2.01,4.22,3.53,4.04,1.7-.19,2.82-2.71,2.48-5.62-.09-.82-.3-1.58-.58-2.25,7.27-4.57,15.32-7.64,21.65-7.84,0,0-2.64,7.05-2.14,21.73-.18.08-.35.17-.53.26-3.62,1.93-5.64,5.21-4.51,7.33.82,1.55,3.1,2.04,5.68,1.45.1.91.2,1.83.32,2.77,2.18,17.27-17.55,14.23-22.58,4.24,0,0-19.61,5.85-16.76-8.09Z"/>
      </g>
      <path class="cls-26" d="m283.85,367.23c-.08-.12-.23-.15-.35-.08-7.35,4.71-21.97,15.25-24.64,17.19-1.06-16.07,3.94-32.54,13.94-45.18l-.39-.31c-9.89,12.5-14.9,28.7-14.08,44.6-2.84-7.34-10.62-20.88-23.11-27.37-.12-.06-.27-.02-.34.11-.06.12-.02.27.11.34,13.14,6.82,21.02,21.57,23.36,28.41.01.03.05.05.07.07.16,2.16.42,4.31.81,6.44l.49-.09c-.38-2.13-.64-4.28-.81-6.44,1.83-1.32,17.26-12.47,24.86-17.35.12-.08.15-.23.08-.35Z"/>
      <polygon class="cls-26" points="279.74 397.24 238.22 397.24 238.24 389.64 279.69 389.64 279.74 397.24"/>
      <polygon class="cls-26" points="241.23 394.76 247.72 421.74 271.6 421.74 277.39 394.76 241.23 394.76"/>
      <polygon class="cls-14" points="241.83 397.24 276.85 397.24 276.21 400.23 242.45 400.23 241.83 397.24"/>
      <path class="cls-7" d="m244.23,388.33h-3.69c-.14,0-.25-.11-.25-.25s.11-.25.25-.25h3.69c.14,0,.25.11.25.25s-.11.25-.25.25Zm12.05-.25c0-.14-.11-.25-.25-.25h-10.11c-.14,0-.25.11-.25.25s.11.25.25.25h10.11c.14,0,.25-.11.25-.25Z"/>
    </g>
  </g>
  <g id="Magnifying_Glass" data-name="Magnifying Glass">
    <g>
      <path class="cls-7" d="m540.61,186.04c-6.74,16.33-23.16,26.53-40.79,25.32-4.44-.3-8.8-1.33-12.9-3.05-21-8.68-30.98-32.74-22.29-53.74s32.74-30.98,53.74-22.29c20.99,8.68,30.97,32.74,22.29,53.73l-.05.02Z"/>
      <path class="cls-2" d="m540.61,186.04c-6.74,16.33-23.16,26.53-40.79,25.32-4.44-.3-8.8-1.33-12.9-3.05-21-8.68-30.98-32.74-22.29-53.74s32.74-30.98,53.74-22.29c20.99,8.68,30.97,32.74,22.29,53.73l-.05.02Z"/>
    </g>
    <path class="cls-28" d="m535.07,145.67l-71.92,29.84c-.1-.61-.19-1.2-.26-1.81-.46-3.91-.33-7.86.38-11.73h0l62.11-25.77c3.75,2.58,7.03,5.78,9.69,9.47Zm3.84,6.67l-73.83,30.64c2.1,5.75,5.5,10.94,9.94,15.16l67.62-28.04c.13-6.13-1.14-12.2-3.73-17.76Z"/>
    <path class="cls-26" d="m520.38,126.59s-.08-.03-.13-.05c-23.54-9.69-50.47,1.54-60.15,25.08-9.32,22.64.72,48.41,22.44,58.96-2.94,4.53-4.81,9.6-7.56,14.2-1.51,2.64-20.64,39.5-22.07,42.17l-2.18,4c-.92,1.47-1.02,3.26-.27,4.84.77,1.77,2.91,2.72,4.9,2.19,1.82-.44,3.29-1.62,3.98-3.19l2.08-4.05c1.41-2.68,20.23-39.67,21.56-42.4,2.29-4.95,4.5-9.95,6.35-15.1,22.42,6.83,46.78-4.35,55.94-26.43,9.76-23.51-1.39-50.47-24.9-60.23Zm19.37,57.94c-8.44,20.5-31.89,30.27-52.39,21.83-.02,0-.05-.02-.07-.03v.05c-20.49-8.47-30.23-31.93-21.76-52.42s31.93-30.23,52.42-21.76c20.45,8.45,30.2,31.85,21.8,52.32Z"/>
    <path class="cls-26" d="m541.6,135.36c-.78.57-1.53-.73-.76-1.3,5.06-3.7,10.12-7.41,15.19-11.11.78-.57,1.53.73.76,1.3-5.06,3.7-10.12,7.41-15.19,11.11h0Zm4.58,7.28h11.87c.97,0,.97-1.5,0-1.5h-11.87c-.97,0-.97,1.5,0,1.5h0Zm-9.75-13.36c.67-4.02,1.34-8.03,2.01-12.05.16-.94-1.29-1.35-1.45-.4-.67,4.02-1.34,8.03-2.01,12.05-.16.94,1.29,1.35,1.45.4h0Z"/>
  </g>
  <g id="Rocket">
    <g>
      <g>
        <path class="cls-7" d="m387.57,397.63h-38.71c4.54-77.6,4.7-157.84,0-241h38.71c-6.57,72.71-6.34,153.3,0,241Z"/>
        <path class="cls-17" d="m387.57,397.63h-38.71c4.54-77.6,4.7-157.84,0-241h38.71c-6.57,72.71-6.34,153.3,0,241Z"/>
        <path class="cls-7" d="m475.05,391.03c-7.5-2.58-22.51-2.12-22.51-2.12,0,0-4.69-6.84-8.52-9.87-10.66-8.45-26.86-9.03-38.09-1.36-10.86-20.21-34.62-32.69-57.43-30.16-22.81,2.53-43.25,19.91-49.43,42.01-19.07-3.68-39.34,13.07-39.31,32.49l238.21.86c1.18-13.5-6.32-26.14-22.92-31.84Z"/>
        <g class="cls-1">
          <path class="cls-22" d="m475.05,391.03c-7.5-2.58-22.51-2.12-22.51-2.12,0,0-4.69-6.84-8.52-9.87-10.66-8.45-26.86-9.03-38.09-1.36-10.86-20.21-34.62-32.69-57.43-30.16-22.81,2.53-43.25,19.91-49.43,42.01-19.07-3.68-39.34,13.07-39.31,32.49l238.21.86c1.18-13.5-6.32-26.14-22.92-31.84Z"/>
        </g>
        <path class="cls-7" d="m341.32,325.67c-1.12-1.06-2.94-2.44-5.88-1.17-1.57.5-3.03,2.55-2.99,4.2.04,1.65,1.11,3.2,2.59,3.95,1.47.75,3.28.72,4.8.07,1.25-.53,2.35-1.53,2.74-2.83.44-1.48-.13-3.16-1.25-4.22Z"/>
        <g class="cls-31">
          <path class="cls-22" d="m341.32,325.67c-1.12-1.06-2.94-2.44-5.88-1.17-1.57.5-3.03,2.55-2.99,4.2.04,1.65,1.11,3.2,2.59,3.95,1.47.75,3.28.72,4.8.07,1.25-.53,2.35-1.53,2.74-2.83.44-1.48-.13-3.16-1.25-4.22Z"/>
        </g>
      </g>
      <path class="cls-7" d="m343.31,77.03s-14.54,7.33-18.92,25.69c-3.19,13.39-2.22,38.67,3.53,40.69,5.75,2.03,6.39-13.62,6.44-19.18.05-5.56,5.26-12.35,9.91-12.76,0,0,.91-29.37-.95-34.44Z"/>
      <path class="cls-9" d="m345.48,80.67c-3.44,1.31-6.27,3.83-8.56,6.64-2.44,3.1-4.45,6.51-5.96,10.14-1.68,3.89-2.91,7.95-3.66,12.12-.7,4.39-1.04,8.83-1.02,13.28-.08,5.44-.21,11.1,1.91,16.23.08.21.42.11.33-.09-1.84-4.47-1.95-9.35-1.91-14.11.04-4.49.11-9,.74-13.45,1.14-7.91,4.02-15.91,8.71-22.43,2.43-3.38,5.56-6.49,9.51-8,.21-.08.12-.42-.09-.33h0Z"/>
      <path class="cls-7" d="m393.12,77.03s14.54,7.33,18.92,25.69c3.19,13.39,2.22,38.67-3.53,40.69-5.75,2.03-6.39-13.62-6.44-19.18-.05-5.56-5.26-12.35-9.91-12.76,0,0-.91-29.37.95-34.44Z"/>
      <path class="cls-9" d="m390.85,81c3.46,1.32,6.28,3.88,8.56,6.75,2.38,3.07,4.34,6.45,5.82,10.04,1.66,3.87,2.86,7.91,3.59,12.05.76,4.36.91,8.8.96,13.22.07,5.34.19,10.89-1.88,15.92-.08.21.25.3.33.09,1.86-4.52,1.96-9.48,1.91-14.3-.04-4.55-.12-9.12-.78-13.63-.64-4.29-1.79-8.5-3.42-12.52-1.42-3.63-3.31-7.07-5.6-10.22-2.42-3.29-5.52-6.26-9.39-7.74-.21-.08-.3.25-.09.33h0Z"/>
      <path class="cls-7" d="m388.12,132.83h-40.18s-7.36-28.27-4.47-59.97c.78-8.4,2.91-16.62,6.31-24.34.05-.12.1-.24.15-.35.84-1.91,1.73-3.72,2.64-5.43,3.57-6.76,8.02-13.01,13.23-18.59,1.16-1.32,3.17-1.45,4.49-.29.1.09.2.19.29.29,5.38,5.76,9.95,12.24,13.57,19.24.91,1.76,1.79,3.61,2.63,5.55l.15.34c3.21,7.5,5.23,15.46,5.99,23.59,2.88,31.72-4.81,59.97-4.81,59.97Z"/>
      <path class="cls-2" d="m388.12,132.83h-40.18s-7.36-28.27-4.47-59.97c.78-8.4,2.91-16.62,6.31-24.34.05-.12.1-.24.15-.35.84-1.91,1.73-3.72,2.64-5.43,3.57-6.76,8.02-13.01,13.23-18.59,1.16-1.32,3.17-1.45,4.49-.29.1.09.2.19.29.29,5.38,5.76,9.95,12.24,13.57,19.24.91,1.76,1.79,3.61,2.63,5.55l.15.34c3.21,7.5,5.23,15.46,5.99,23.59,2.88,31.72-4.81,59.97-4.81,59.97Z"/>
      <path class="cls-26" d="m388.21,132.83h-39.62s-3.06,6.6-.17,10.76h9.61c-.25,1.13-.36,2.63.43,3.78h20.31c.57-1.38.44-2.76.19-3.78h10.07c2.22-5.38-.82-10.76-.82-10.76Z"/>
      <path class="cls-7" d="m378.79,147.37h-20.25c-4.1,2.18-14.3,7.37-12.87,16.17h46.52c1.43-8.8-9.29-14-13.39-16.17Z"/>
      <rect class="cls-26" x="343.92" y="161.68" width="49.66" height="3.83"/>
      <path class="cls-7" d="m384.17,43.39c-3.66,2.62-9.27,5.56-15.97,5.56-5.81-.03-11.39-2.25-15.63-6.22.38-.72.77-1.43,1.16-2.11l.19-.32c3.32-5.83,7.31-11.26,11.89-16.16,1.16-1.32,3.17-1.45,4.49-.29.1.09.2.19.29.29,4.6,4.91,8.6,10.35,11.92,16.2l.19.33c.5.88.99,1.79,1.47,2.72Z"/>
      <path class="cls-7" d="m353.55,128.8h30.13v.46h-30.13v-.46Zm28.96-88.45c-2.94,2.11-6.3,3.56-9.86,4.23-4.99.92-10.14.25-14.72-1.91-1.41-.66-2.76-1.45-4.02-2.37l-.19.32c3.1,2.24,6.68,3.74,10.45,4.39,5.03.84,10.2.1,14.79-2.12,1.3-.63,2.55-1.37,3.73-2.21l-.19-.33Zm4.95,37.57c-1.84-18.6-3.28-26.04-3.45-26.86.69-.38,1.34-.76,1.91-1.13.35-.22.68-.44,1-.66l-.15-.34c-.34.23-.69.48-1.05.69-3.83,2.42-9.97,5.3-17.38,5.3-5.84,0-11.53-1.79-16.31-5.13-.79-.55-1.49-1.1-2.12-1.62-.05.11-.11.23-.15.35.61.51,1.29,1.03,2.05,1.56.48.33,1.02.68,1.59,1.03-.21,1.03-1.63,8.54-3.43,26.79-1.43,14.25-.12,28.44,1.21,37.82.79,5.76,1.88,11.48,3.26,17.13.02.08.09.13.17.13h.04c.09-.03.15-.12.12-.21-1.38-5.64-2.47-11.34-3.25-17.09-1.33-9.37-2.62-23.51-1.21-37.73,1.75-17.67,3.14-25.25,3.41-26.65,4.44,2.63,9.5,4.02,14.66,4.02,5.36-.07,10.61-1.46,15.31-4.05.24,1.21,1.64,8.75,3.42,26.71,1.41,14.22.12,28.37-1.21,37.73-.79,5.75-1.87,11.46-3.25,17.09-.02.09.03.18.12.21h.04c.08,0,.15-.05.17-.13,1.38-5.65,2.47-11.37,3.26-17.13,1.35-9.4,2.64-23.59,1.22-37.84Zm-5.78,6.43h0c0-7.36-5.96-13.32-13.32-13.32-7.35,0-13.31,5.96-13.31,13.32,0,7.35,5.96,13.31,13.32,13.31,7.35,0,13.3-5.96,13.31-13.31Zm-.34,0h0c0,7.16-5.8,12.96-12.96,12.96s-12.96-5.8-12.96-12.96,5.8-12.96,12.96-12.96c7.16,0,12.95,5.81,12.96,12.96Z"/>
      <path class="cls-7" d="m378.45,84.35c0,5.57-4.51,10.08-10.08,10.08h-.23c-1.71-.03-3.37-.51-4.85-1.37-1.14-.67-2.14-1.55-2.94-2.59-1.34-1.75-2.07-3.9-2.06-6.11,0-.39.02-.78.07-1.17.55-4.63,4.2-8.29,8.83-8.83.39-.04.78-.07,1.18-.07,5.47,0,9.94,4.37,10.07,9.84,0,.08,0,.15,0,.23Z"/>
      <path class="cls-3" d="m374.48,76.36l-14.12,14.12c-1.34-1.75-2.07-3.9-2.06-6.11,0-.39.02-.78.07-1.17l8.83-8.83c.39-.04.78-.07,1.18-.07,2.21,0,4.35.72,6.11,2.06Zm2.59,2.92l-13.78,13.78c1.47.86,3.14,1.33,4.85,1.37l10.31-10.31c-.04-1.7-.51-3.37-1.37-4.84Z"/>
    </g>
  </g>
  <g id="Light_bulb" data-name="Light bulb">
    <g>
      <path class="cls-7" d="m260.07,46.74c-14.58-.17-26.54,11.51-26.71,26.09-.09,7.91,3.37,15.45,9.43,20.53,1.12.92,2.82,2.03,2.78,4.34,0,.07.12,5.77.12,5.77h27.77s.12-5.92.12-5.99c0-2.03,1.57-2.91,2.73-3.82,6.14-4.92,9.76-12.34,9.86-20.21.17-14.58-11.51-26.54-26.09-26.71Z"/>
      <path class="cls-4" d="m260.07,46.74c-14.58-.17-26.54,11.51-26.71,26.09-.09,7.91,3.37,15.45,9.43,20.53,1.12.92,2.82,2.03,2.78,4.34,0,.07.12,5.77.12,5.77h27.77s.12-5.92.12-5.99c0-2.03,1.57-2.91,2.73-3.82,6.14-4.92,9.76-12.34,9.86-20.21.17-14.58-11.51-26.54-26.09-26.71Z"/>
      <path class="cls-5" d="m273.19,58.12c0,5.14-6.02,9.32-13.48,9.32s-13.48-4.18-13.48-9.32,6.02-9.33,13.48-9.33,13.48,4.18,13.48,9.33Z"/>
      <path class="cls-22" d="m239.42,83.3c-2.34-4.01-3.25-8.75-2.58-13.34.68-4.59,2.92-8.86,6.32-12.03l.34.37c-3.32,3.09-5.51,7.26-6.17,11.74-.66,4.48.23,9.1,2.51,13.02l-.43.25Z"/>
      <path class="cls-26" d="m267.36,97.86c-1.33-3.51-2.45-7.13-3.33-10.81-1.35,1.15-2.82,1.73-4.25,1.67-1.14-.06-2.28-.52-3.45-1.4-.19,3.57-.79,7.12-1.79,10.54l-.96-.28c1.06-3.59,1.65-7.32,1.79-11.07-.19-.18-.37-.36-.56-.56-2.97-3.09-4.36-6.93-3.71-10.26.25-1.29,1.03-2.57,2.23-2.54,1.09.03,1.88,1.08,2.25,2.96.63,3.29.9,6.63.81,9.97,1.21,1.06,2.35,1.6,3.45,1.65,1.66.08,3.07-.95,3.94-1.78-.64-2.83-1.15-5.7-1.52-8.6-.13-1.06-.24-2.09,0-3.11.29-1.25,1.1-2.2,2.07-2.41,1.68-.37,3.03,1.41,3.49,3.34.9,3.8-.24,8.13-2.9,11.03-.01.01-.03.03-.04.04.9,3.84,2.04,7.61,3.43,11.26l-.93.35Zm-14.09-23.73c-.57,0-1.05.89-1.21,1.73-.57,2.96.67,6.41,3.32,9.24.02-2.95-.25-5.91-.81-8.82-.2-1.03-.64-2.13-1.29-2.15,0,0,0,0-.01,0Zm11.47-1.35c-.07,0-.14,0-.21.02-.67.14-1.14.93-1.3,1.65-.2.85-.1,1.79.02,2.76.34,2.63.79,5.24,1.35,7.82,2.11-2.62,3.01-6.41,2.24-9.63-.32-1.34-1.17-2.62-2.1-2.62Z"/>
      <path class="cls-26" d="m275.03,101.8h-30.77c-.89,0-1.6.72-1.6,1.6v.14c0,.77.55,1.42,1.27,1.57-.43.29-.72.78-.72,1.34v.03c0,.72.48,1.32,1.13,1.52-.41.29-.69.77-.69,1.31v.03c0,.89.72,1.6,1.6,1.6h.68c-.43.29-.72.78-.72,1.34v.03c0,.89.72,1.6,1.6,1.6h3.15c2.28,3.4,6.18,6.57,10.05,6.35,3.74-.22,7.28-3,9.22-6.35h3.23c.89,0,1.6-.72,1.6-1.6v-.03c0-.56-.29-1.05-.72-1.34h.68c.89,0,1.6-.72,1.6-1.6v-.03c0-.54-.27-1.02-.69-1.31.65-.2,1.13-.8,1.13-1.52v-.03c0-.56-.29-1.05-.72-1.34.73-.15,1.27-.8,1.27-1.57v-.14c0-.89-.72-1.6-1.6-1.6Z"/>
      <path class="cls-30" d="m275.03,101.8h-30.77c-.89,0-1.6.72-1.6,1.6v.14c0,.77.55,1.42,1.27,1.57-.43.29-.72.78-.72,1.34v.03c0,.72.48,1.32,1.13,1.52-.41.29-.69.77-.69,1.31v.03c0,.89.72,1.6,1.6,1.6h.68c-.43.29-.72.78-.72,1.34v.03c0,.89.72,1.6,1.6,1.6h25.66c.89,0,1.6-.72,1.6-1.6v-.03c0-.56-.29-1.05-.72-1.34h.68c.89,0,1.6-.72,1.6-1.6v-.03c0-.54-.27-1.02-.69-1.31.65-.2,1.13-.8,1.13-1.52v-.03c0-.56-.29-1.05-.72-1.34.73-.15,1.27-.8,1.27-1.57v-.14c0-.89-.72-1.6-1.6-1.6Z"/>
    </g>
    <path class="cls-26" d="m245.06,37.21c-.34-.34.19-.87.53-.53,2.01,2.01,4.01,4.01,6.02,6.02.34.34-.19.87-.53.53-2.01-2.01-4.01-4.01-6.02-6.02h0Zm15.8,3.61v-11.39c0-.48-.75-.48-.75,0v11.39c0,.48.75.48.75,0h0Zm8.33,2.9c2.17-2.17,4.34-4.34,6.51-6.51.34-.34-.19-.87-.53-.53-2.17,2.17-4.34,4.34-6.51,6.51-.34.34.19.87.53.53h0Z"/>
  </g>
  <g id="Document">
    <g>
      <rect class="cls-26" x="104.91" y="42.61" width="69.63" height="100.95" rx="3.83" ry="3.83" transform="translate(18.6 -23.17) rotate(10.15)"/>
      <rect class="cls-22" x="108.11" y="45.71" width="63.27" height="94.58" transform="translate(18.58 -23.18) rotate(10.15)"/>
      <path class="cls-14" d="m132.06,40.44c-.29.44-2.73,8.9-2.73,8.9,0,0,36.89,7.24,36.46,7.15-.44-.09.62-9.9.47-9.93-.15-.03-34.19-6.12-34.19-6.12Z"/>
      <path class="cls-7" d="m89.42,68.88c-7.79-5.91-9.31-17.02-3.39-24.81s17.02-9.31,24.81-3.39c6.01,4.57,8.27,12.22,6.27,19.07l2.82,4.51-5.53.99c-.06.08-.11.16-.17.24-5.91,7.79-17.02,9.31-24.81,3.39Zm-9.11-14.08c.14-.01.24-.13.23-.27-.49-5.63,2.09-11.49,6.57-14.94.11-.08.13-.24.05-.35-.09-.11-.24-.13-.35-.05-4.61,3.54-7.27,9.58-6.77,15.38.01.13.12.23.25.23,0,0,.01,0,.02,0Zm.97,5.15c.13-.06.18-.21.12-.33-.35-.76-.53-1.61-.55-2.45,0-.14-.1-.27-.25-.25-.14,0-.25.12-.25.25.01.91.22,1.83.59,2.65.04.09.13.15.23.15.03,0,.07,0,.1-.02Z"/>
      <path class="cls-16" d="m89.42,68.88c-7.79-5.91-9.31-17.02-3.39-24.81s17.02-9.31,24.81-3.39c6.01,4.57,8.27,12.22,6.27,19.07l2.82,4.51-5.53.99c-.06.08-.11.16-.17.24-5.91,7.79-17.02,9.31-24.81,3.39Zm-9.11-14.08c.14-.01.24-.13.23-.27-.49-5.63,2.09-11.49,6.57-14.94.11-.08.13-.24.05-.35-.09-.11-.24-.13-.35-.05-4.61,3.54-7.27,9.58-6.77,15.38.01.13.12.23.25.23,0,0,.01,0,.02,0Zm.97,5.15c.13-.06.18-.21.12-.33-.35-.76-.53-1.61-.55-2.45,0-.14-.1-.27-.25-.25-.14,0-.25.12-.25.25.01.91.22,1.83.59,2.65.04.09.13.15.23.15.03,0,.07,0,.1-.02Z"/>
      <polygon class="cls-22" points="98.99 62.51 90.88 56.47 92.99 53.63 98.43 57.69 105.91 48.77 108.61 51.03 98.99 62.51"/>
      <path class="cls-26" d="m166.68,87.88l-47.01-9,.31-1.62,47.01,9-.31,1.62Zm-8.44,37.62l-47.12-8.44-.29,1.62,47.12,8.44.29-1.62Zm1.33-6.3l-47.12-8.44-.29,1.62,47.12,8.44.29-1.62Zm1.33-6.3l-47.12-8.44-.29,1.62,47.12,8.44.29-1.62Zm1.33-6.3l-47.12-8.44-.29,1.62,47.12,8.44.29-1.62Zm1.33-6.3l-47.12-8.44-.29,1.62,47.12,8.44.29-1.62Zm-6.36,31.23l-47.12-8.44-.29,1.62,47.12,8.44.29-1.62Zm9.09-40.4l-47.01-9-.31,1.62,47.01,9,.31-1.62Zm-1.89,4.77l-47.01-9-.31,1.62,47.01,9,.31-1.62Zm5.9-30.4l-47.01-9-.31,1.62,47.01,9,.31-1.62Zm-2.26,10.1l-47.01-9-.31,1.62,47.01,9,.31-1.62Zm-29.09-10.67l-16.56-3.17-.31,1.62,16.56,3.17.31-1.62Zm30.26,5.74l-28.51-5.46-.31,1.62,28.51,5.46.31-1.62Zm-32.18,4.51l-16.56-3.17-.31,1.62,16.56,3.17.31-1.62Zm30.26,5.74l-28.51-5.46-.31,1.62,28.51,5.46.31-1.62Z"/>
      <polygon class="cls-26" points="153.29 39.9 155.02 35.26 146.75 33.78 146.66 38.72 133.69 36.39 131.57 48.24 164.53 54.14 166.66 42.3 153.29 39.9"/>
    </g>
  </g>
  <g id="Text_4" data-name="Text 4">
    <rect class="cls-7" x="417.28" y="225.89" width="118.02" height="41.74"/>
    <path class="cls-22" d="m449.45,244.7h-2.35v-1.39h6.41v1.39h-2.35v5.97h-1.7v-5.97Zm10.67,4.6v1.37h-5.7v-7.36h5.56v1.37h-3.87v1.6h3.42v1.32h-3.42v1.7h4Zm2.09,1.26c-.54-.16-.98-.36-1.31-.62l.58-1.28c.32.23.69.42,1.12.56.43.14.87.21,1.3.21.48,0,.84-.07,1.07-.22.23-.14.35-.33.35-.57,0-.18-.07-.32-.2-.44-.14-.12-.31-.21-.53-.28-.21-.07-.5-.15-.87-.23-.56-.13-1.02-.27-1.38-.4s-.66-.35-.92-.64c-.26-.29-.38-.69-.38-1.18,0-.43.12-.81.35-1.16.23-.35.58-.62,1.05-.83.47-.2,1.04-.3,1.71-.3.47,0,.93.06,1.38.17.45.11.84.27,1.18.48l-.53,1.29c-.68-.39-1.36-.58-2.04-.58-.48,0-.83.08-1.06.23-.23.15-.34.36-.34.61s.13.44.39.56c.26.12.66.24,1.2.36.56.13,1.02.27,1.38.4.36.13.66.34.92.63.26.29.38.68.38,1.17,0,.42-.12.8-.35,1.15-.23.35-.59.62-1.06.83-.47.2-1.04.3-1.71.3-.58,0-1.14-.08-1.69-.24Zm7.39-5.86h-2.35v-1.39h6.41v1.39h-2.35v5.97h-1.7v-5.97Zm4.97-1.39h1.7v7.36h-1.7v-7.36Zm10.2,0v7.36h-1.4l-3.67-4.47v4.47h-1.68v-7.36h1.41l3.66,4.47v-4.47h1.68Zm6.72,3.56h1.56v2.99c-.4.3-.86.53-1.39.69-.53.16-1.05.24-1.59.24-.76,0-1.45-.16-2.06-.49-.61-.33-1.09-.78-1.43-1.36-.35-.58-.52-1.23-.52-1.96s.17-1.38.52-1.96c.35-.58.83-1.03,1.44-1.36.62-.33,1.31-.49,2.08-.49.64,0,1.23.11,1.75.33.53.22.97.53,1.32.95l-1.09,1.01c-.53-.55-1.16-.83-1.9-.83-.47,0-.89.1-1.25.29-.36.2-.65.47-.85.83-.2.36-.3.77-.3,1.23s.1.86.3,1.22.49.64.85.84c.36.2.77.3,1.23.3.49,0,.93-.11,1.32-.32v-2.16Z"/>
    <rect class="cls-14" x="526.14" y="225.84" width="9.16" height="41.74"/>
  </g>
  <g id="Text_3" data-name="Text 3">
    <rect class="cls-7" x="298.87" y="178.38" width="127.71" height="41.74"/>
    <path class="cls-22" d="m311.15,194.24h1.7v7.36h-1.7v-7.36Zm10.14,7.36v-4.41s-2.18,3.64-2.18,3.64h-.77l-2.16-3.54v4.32h-1.6v-7.36h1.41l2.75,4.57,2.71-4.57h1.4l.02,7.36h-1.6Zm8.22-7.03c.48.22.85.53,1.11.93.26.4.39.87.39,1.42s-.13,1.01-.39,1.41c-.26.4-.63.71-1.11.92-.48.21-1.05.32-1.7.32h-1.48v2.03h-1.7v-7.36h3.19c.65,0,1.22.11,1.7.33Zm-.63,3.29c.27-.22.4-.53.4-.94s-.13-.73-.4-.95c-.27-.22-.66-.33-1.17-.33h-1.39v2.55h1.39c.51,0,.9-.11,1.17-.33Zm3.33-3.61h1.7v5.97h3.69v1.39h-5.39v-7.36Zm12.05,5.99v1.37h-5.7v-7.36h5.56v1.37h-3.87v1.6h3.42v1.32h-3.42v1.7h4Zm8.05,1.37v-4.41s-2.18,3.64-2.18,3.64h-.77l-2.16-3.54v4.32h-1.6v-7.36h1.41l2.75,4.57,2.71-4.57h1.4l.02,7.36h-1.6Zm9.04-1.37v1.37h-5.7v-7.36h5.56v1.37h-3.87v1.6h3.42v1.32h-3.42v1.7h4Zm8.1-5.99v7.36h-1.4l-3.67-4.47v4.47h-1.68v-7.36h1.41l3.66,4.47v-4.47h1.68Zm3.27,1.39h-2.35v-1.39h6.41v1.39h-2.35v5.97h-1.7v-5.97Zm9.45,4.39h-3.42l-.65,1.58h-1.75l3.28-7.36h1.68l3.29,7.36h-1.79l-.65-1.58Zm-.54-1.29l-1.17-2.82-1.17,2.82h2.33Zm4.9-3.1h-2.35v-1.39h6.41v1.39h-2.35v5.97h-1.7v-5.97Zm4.97-1.39h1.7v7.36h-1.7v-7.36Zm4.95,6.99c-.61-.33-1.09-.78-1.44-1.36-.35-.58-.52-1.23-.52-1.95s.17-1.37.52-1.95c.35-.58.83-1.03,1.44-1.36.61-.33,1.3-.49,2.07-.49s1.45.16,2.06.49c.61.33,1.09.78,1.44,1.36s.53,1.23.53,1.95-.17,1.37-.53,1.95c-.35.58-.83,1.03-1.44,1.36-.61.33-1.3.49-2.06.49s-1.45-.16-2.07-.49Zm3.24-1.26c.35-.2.62-.48.82-.84.2-.36.3-.76.3-1.22s-.1-.86-.3-1.22c-.2-.36-.47-.64-.82-.84-.35-.2-.74-.3-1.18-.3s-.83.1-1.18.3c-.35.2-.63.48-.83.84-.2.36-.3.76-.3,1.22s.1.86.3,1.22c.2.36.47.64.83.84.35.2.74.3,1.18.3s.83-.1,1.18-.3Zm10.88-5.73v7.36h-1.4l-3.67-4.47v4.47h-1.68v-7.36h1.41l3.66,4.47v-4.47h1.68Z"/>
    <rect class="cls-14" x="417.41" y="178.38" width="9.16" height="41.74"/>
  </g>
  <g id="Text_2" data-name="Text 2">
    <path class="cls-7" d="m317.93,170.79h-118.02v-41.31h118.02v41.31Zm-91.13,3.43h33.95c.97,0,.97-1.5,0-1.5h-33.95c-.97,0-.97,1.5,0,1.5h0Z"/>
    <path class="cls-22" d="m234.34,146.23h3.34c.8,0,1.5.15,2.12.46s1.09.73,1.43,1.29c.34.55.51,1.2.51,1.93s-.17,1.38-.51,1.93c-.34.55-.82.98-1.43,1.29s-1.32.46-2.12.46h-3.34v-7.36Zm3.26,5.96c.74,0,1.32-.2,1.76-.61.44-.41.66-.97.66-1.67s-.22-1.26-.66-1.67c-.44-.41-1.03-.62-1.76-.62h-1.56v4.56h1.56Zm11.12.03v1.37h-5.7v-7.36h5.56v1.37h-3.87v1.6h3.42v1.32h-3.42v1.7h4Zm2.09,1.26c-.54-.16-.98-.36-1.31-.62l.58-1.28c.32.23.69.42,1.12.56.43.14.87.21,1.3.21.48,0,.84-.07,1.07-.22.23-.14.35-.33.35-.57,0-.18-.07-.32-.21-.44-.14-.12-.31-.21-.53-.28-.21-.07-.5-.15-.87-.23-.56-.13-1.02-.27-1.38-.4s-.66-.35-.92-.64c-.26-.29-.38-.69-.38-1.18,0-.43.12-.81.35-1.16.23-.35.58-.62,1.05-.83.47-.2,1.04-.3,1.71-.3.47,0,.93.06,1.38.17.45.11.84.27,1.18.48l-.53,1.29c-.68-.39-1.36-.58-2.04-.58-.48,0-.83.08-1.06.23-.23.15-.34.36-.34.61s.13.44.39.56c.26.12.66.24,1.2.36.56.13,1.02.27,1.38.4.36.13.66.34.92.63.26.29.38.68.38,1.17,0,.42-.12.8-.35,1.15-.23.35-.59.62-1.06.83-.47.2-1.04.3-1.71.3-.58,0-1.14-.08-1.69-.24Zm5.98-7.25h1.7v7.36h-1.7v-7.36Zm8.42,3.56h1.56v2.99c-.4.3-.86.53-1.39.69-.53.16-1.05.24-1.59.24-.76,0-1.45-.16-2.06-.49-.61-.33-1.09-.78-1.43-1.36-.35-.58-.52-1.23-.52-1.96s.17-1.38.52-1.96c.35-.58.83-1.03,1.44-1.36.62-.33,1.31-.49,2.08-.49.64,0,1.23.11,1.75.33.53.22.97.53,1.32.95l-1.09,1.01c-.53-.55-1.16-.83-1.9-.83-.47,0-.89.1-1.25.29-.36.2-.65.47-.85.83-.2.36-.3.77-.3,1.23s.1.86.3,1.22c.2.36.49.64.85.84.36.2.77.3,1.23.3.49,0,.93-.11,1.32-.32v-2.16Zm9.88-3.56v7.36h-1.4l-3.67-4.47v4.47h-1.68v-7.36h1.41l3.66,4.47v-4.47h1.68Z"/>
    <rect class="cls-14" x="308.77" y="129.48" width="9.16" height="41.31"/>
  </g>
  <g id="Text_1" data-name="Text 1">
    <polygon class="cls-7" points="195.25 125.73 77.23 125.3 77.23 84.42 195.25 84.42 195.25 125.73"/>
    <path class="cls-22" d="m93.99,108.66l-1.42-2.05h-1.57v2.05h-1.7v-7.36h3.18c.65,0,1.22.11,1.7.33s.85.53,1.11.92.39.87.39,1.42-.13,1.02-.39,1.41c-.26.4-.64.7-1.12.91l1.65,2.36h-1.83Zm-.43-5.64c-.27-.22-.66-.33-1.17-.33h-1.39v2.56h1.39c.51,0,.9-.11,1.17-.34.27-.22.4-.54.4-.95s-.13-.73-.4-.95Zm9.17,4.27v1.37h-5.7v-7.36h5.56v1.37h-3.87v1.6h3.42v1.32h-3.42v1.7h4Zm9.29,2.15c-.24.29-.53.52-.87.67-.34.15-.71.23-1.12.23-.55,0-1.04-.12-1.48-.35-.44-.23-.95-.65-1.51-1.25-.67-.08-1.26-.3-1.78-.64-.52-.34-.93-.79-1.22-1.33-.29-.54-.44-1.14-.44-1.8,0-.72.17-1.37.52-1.95s.83-1.03,1.44-1.36c.61-.33,1.3-.49,2.07-.49s1.45.17,2.06.49c.61.33,1.09.78,1.44,1.36.35.58.53,1.23.53,1.95,0,.85-.24,1.6-.72,2.25-.48.65-1.12,1.09-1.91,1.35.18.18.35.31.51.39.16.08.34.12.53.12.46,0,.86-.18,1.2-.55l.76.9Zm-6.4-3.25c.2.36.47.64.83.84.35.2.74.3,1.18.3s.83-.1,1.18-.3c.35-.2.63-.48.83-.84.2-.36.3-.76.3-1.22s-.1-.86-.3-1.22-.47-.64-.83-.84c-.35-.2-.74-.3-1.18-.3s-.83.1-1.18.3c-.35.2-.63.48-.83.84-.2.36-.3.76-.3,1.22s.1.86.3,1.22Zm8.12,1.71c-.59-.58-.88-1.41-.88-2.49v-4.12h1.7v4.06c0,1.32.55,1.98,1.64,1.98.53,0,.94-.16,1.22-.48.28-.32.42-.82.42-1.5v-4.06h1.68v4.12c0,1.08-.29,1.91-.88,2.49-.59.58-1.4.87-2.45.87s-1.87-.29-2.45-.87Zm7.47-6.61h1.7v7.36h-1.7v-7.36Zm8.13,7.36l-1.42-2.05h-1.57v2.05h-1.7v-7.36h3.18c.65,0,1.22.11,1.7.33s.85.53,1.11.92.39.87.39,1.42-.13,1.02-.39,1.41c-.26.4-.64.7-1.12.91l1.65,2.36h-1.83Zm-.43-5.64c-.27-.22-.66-.33-1.17-.33h-1.39v2.56h1.39c.51,0,.9-.11,1.17-.34.27-.22.4-.54.4-.95s-.13-.73-.4-.95Zm9.17,4.27v1.37h-5.7v-7.36h5.56v1.37h-3.87v1.6h3.42v1.32h-3.42v1.7h4Zm8.05,1.37v-4.41s-2.18,3.64-2.18,3.64h-.77l-2.15-3.54v4.32h-1.6v-7.36h1.41l2.75,4.57,2.71-4.57h1.4l.02,7.36h-1.6Zm9.04-1.37v1.37h-5.7v-7.36h5.56v1.37h-3.87v1.6h3.42v1.32h-3.42v1.7h4Zm8.1-5.99v7.36h-1.4l-3.67-4.47v4.47h-1.68v-7.36h1.41l3.66,4.47v-4.47h1.68Zm3.27,1.39h-2.35v-1.39h6.41v1.39h-2.35v5.97h-1.7v-5.97Zm5.65,5.86c-.54-.16-.98-.36-1.31-.61l.58-1.28c.31.23.69.42,1.12.56.43.14.87.21,1.3.21.48,0,.84-.07,1.07-.22.23-.14.35-.34.35-.57,0-.17-.07-.32-.2-.44-.14-.12-.31-.21-.53-.28-.21-.07-.5-.15-.87-.23-.56-.13-1.02-.27-1.38-.4-.36-.13-.66-.35-.92-.64s-.38-.69-.38-1.18c0-.43.12-.81.35-1.16.23-.35.58-.62,1.05-.83.47-.2,1.04-.3,1.71-.3.47,0,.93.06,1.38.17.45.11.84.27,1.18.48l-.53,1.29c-.68-.39-1.36-.58-2.04-.58-.48,0-.83.08-1.06.23-.23.15-.34.36-.34.61s.13.44.39.56c.26.12.66.24,1.2.36.56.13,1.02.27,1.38.4.36.13.66.34.92.63.26.29.38.68.38,1.17,0,.42-.12.8-.35,1.15-.23.35-.59.62-1.06.83-.47.2-1.04.3-1.71.3-.58,0-1.14-.08-1.69-.24Z"/>
    <rect class="cls-14" x="186.09" y="84.42" width="9.16" height="41.31"/>
  </g>
  <g id="Arrows">
    <path class="cls-7" d="m184,143.45l4.99,4.85-4.99,4.85-4.99,4.85v-5.42c-.83.03-1.77.06-2.83.06-1.82,0-3.92-.07-6.12-.3-6.14-.62-12.6-1.67-18.14-6.85-2.84-2.66-4.71-5.84-5.72-9.72l8.2-2.14c.61,2.35,1.63,4.1,3.32,5.67,3.29,3.08,7.17,3.99,13.2,4.61,3.2.33,6.17.28,8.09.19v-5.49l4.99,4.85Zm101.25,43.87v5.49c-1.92.09-4.89.14-8.09-.19-6.03-.61-9.91-1.53-13.2-4.61-1.68-1.58-2.7-3.33-3.32-5.67l-8.2,2.14c1.01,3.88,2.88,7.06,5.72,9.72,5.54,5.18,11.99,6.23,18.14,6.85,2.2.22,4.3.3,6.12.3,1.06,0,2-.03,2.83-.06v5.42l4.99-4.85,4.99-4.85-4.99-4.85-4.99-4.85Zm106.23,48.72v5.49c-1.92.09-4.89.14-8.09-.19-6.03-.61-9.91-1.53-13.2-4.61-1.68-1.58-2.7-3.33-3.32-5.67l-8.2,2.14c1.01,3.88,2.88,7.06,5.72,9.72,5.54,5.18,11.99,6.23,18.14,6.85,2.2.22,4.3.3,6.12.3,1.06,0,2-.03,2.83-.06v5.42l4.99-4.85,4.99-4.85-4.99-4.85-4.99-4.85Zm142.92,50.06l-4.99-4.85v5.49c-1.92.09-4.89.14-8.09-.19-6.03-.61-9.91-1.53-13.2-4.61-1.68-1.58-2.7-3.33-3.32-5.67l-8.2,2.14c1.01,3.88,2.88,7.06,5.72,9.72,5.54,5.18,11.99,6.23,18.14,6.85,2.2.22,4.3.3,6.12.3,1.06,0,2-.03,2.83-.06v5.42l4.99-4.85,4.99-4.85-4.99-4.85Z"/>
  </g>
  <g id="Character_2" data-name="Character 2">
    <g>
      <g>
        <path class="cls-25" d="m592.29,224.31s-9.6,25.72-9.04,25.93c.56.21-21.8,6.95-21.8,6.95l3.58,7.3s28.71-6.08,30.63-8.45c1.92-2.37,8.71-29.85,8.71-29.85l-12.08-1.88Z"/>
        <path class="cls-7" d="m606.42,197.16c5.06,3.69,7.79,15.18-7.87,37.53l-14.32-8.63s6-11.19,10.61-20.84c7.54-10.48,11.59-8.07,11.59-8.07Z"/>
        <path class="cls-4" d="m606.42,197.16c5.06,3.69,7.79,15.18-7.87,37.53l-14.32-8.63s6-11.19,10.61-20.84c7.54-10.48,11.59-8.07,11.59-8.07Z"/>
        <path class="cls-7" d="m606.3,196.77c4.02-.25,18.86-.56,35.29,2.74l.29,61.65s.43,8.34,1.49,16.71c-17.18,6.64-39.26,4.67-50.21-2.15.12.27.82-6.61,1.89-16.68,1.88-17.75,4.9-45.43,7.83-61.4.08-.39,3.01-.84,3.41-.87Z"/>
        <path class="cls-4" d="m606.3,196.77c4.02-.25,18.86-.56,35.29,2.74l.29,61.65s.43,8.34,1.49,16.71c-17.18,6.64-39.26,4.67-50.21-2.15.12.27.82-6.61,1.89-16.68,1.88-17.75,4.9-45.43,7.83-61.4.08-.39,3.01-.84,3.41-.87Z"/>
        <polygon class="cls-9" points="598.17 231.12 600.75 211.12 594.76 232.41 597.6 234.12 598.17 231.12"/>
        <polygon class="cls-9" points="640.17 234.54 639.26 234.66 636 218.67 637.51 236.62 640.38 237.08 640.17 234.54"/>
        <path class="cls-25" d="m650.22,221.4c1.03,1.53,7.6,37.45,7.6,37.45l-11.98,2.55-5.9-34.06,10.28-5.94Z"/>
        <path class="cls-7" d="m641.59,199.51s6.85,1.27,8.4,9.38c1.43,7.46,5.46,24.05,5.46,24.05l-16.19,2.1-3.26-19.41,5.59-16.12Z"/>
        <path class="cls-4" d="m641.59,199.51s6.85,1.27,8.4,9.38c1.43,7.46,5.46,24.05,5.46,24.05l-16.19,2.1-3.26-19.41,5.59-16.12Z"/>
      </g>
      <polygon class="cls-25" points="585.56 397.47 579.16 414.74 573.36 412.87 575.36 394.64 585.56 397.47"/>
      <path class="cls-26" d="m578.35,410.46l-2.95.44-.2-1.48c-.18-1.28-.88-2.09-2.16-1.92-.63.08-1.95,1.16-2,2.05-.14,2.38-2.38,3.14-2.38,3.14,0,0-6.18,4.06-8.14,4.17-1.28.07-2.47.56-3.34,1.97-.25.4-.48.88-.67,1.44-.08.23-.16.48-.23.74-.07.26-.13.54-.19.83l4.65.03,9.31.07h0s1.22-.22,2.09-.36c.29-.05.54-.09.7-.1.16-.02.34,0,.53.05.56.13,1.16.45,1.16.45l5.26.04s.1-.87.25-2.14h0c.07-.57.14-1.22.22-1.91.34-2.96.87-6.68.96-7.52.16-1.47-2.85.02-2.85.02Z"/>
      <path class="cls-7" d="m565.59,414.18c.07-.06.17-.07.24-.02.34.23.63.56.83.97.1.22-.21.42-.32.2-.17-.36-.42-.65-.73-.86-.1-.07-.12-.21-.03-.29,0,0,0,0,0,0Zm1.11-.64c-.09.08-.07.23.03.29.3.2.55.49.73.86.1.22.42.01.32-.2-.19-.41-.48-.74-.83-.97-.08-.05-.17-.04-.24.02,0,0,0,0,0,0Zm1.15-.6c-.09.08-.07.23.03.29.3.2.55.49.73.86.1.22.42.01.32-.2-.19-.41-.48-.74-.83-.97-.08-.05-.17-.04-.24.02,0,0,0,0,0,0Z"/>
      <polygon class="cls-25" points="627.31 394.4 629.87 413.19 635.99 413.5 637.98 395.38 627.31 394.4"/>
      <path class="cls-26" d="m641.21,421.91h-13.7s-.3-.58.04-2.11c.05-.24.12-.5.21-.79,0-.01,0-.03.01-.04.13-.42.28-.95.43-1.51.63-2.29,1.37-5.29,1.37-5.29,0,0,2.28-4.88,4.95-3.66,2.34,1.07,1.78,4.13,1.78,4.13,0,0,.23,1.8,2,3.38,1.1.98,2.19,1.74,2.71,2.95.1.23.18.47.23.73,0,.03.01.06.02.1.11.59.1,1.27-.06,2.11Z"/>
      <path class="cls-7" d="m635.75,413.41c-.77-.6-1.78-.52-2.47.15-.19.18-.47-.1-.29-.29.86-.84,2.1-.89,3.05-.15.21.16-.08.44-.29.29h0Zm.39,1.28c.2.16.49-.13.29-.29-.95-.74-2.18-.69-3.05.15-.19.18.1.47.29.29.69-.68,1.7-.75,2.47-.15h0Zm.39,1.18c.2.16.49-.13.29-.29-.95-.74-2.18-.69-3.05.15-.19.18.1.47.29.29.69-.68,1.7-.75,2.47-.15h0Z"/>
      <g>
        <path class="cls-26" d="m641.46,275.2l-29.57.25-18-.55s-12.64,54.49-13.72,64.75c-1.07,10.26-10.29,64.3-10.29,64.3l14,3.07s15.91-57.78,17.06-63.33c1-4.84,12.06-35.86,14.88-43.75.28,1.62.58,3.24.87,4.85.71,7.27,3,30.46,4,39.09,0,0,2.17,49.3,4.68,63.61l13.17.02c1.74-20.32,2.85-91.7,2.85-91.7h0c.98-15.5.06-40.62.06-40.62Z"/>
        <path class="cls-13" d="m601.28,283.05c.09-.3.56-.17.47.13-1.72,5.66-6.32,10.2-12,11.86-.3.09-.43-.38-.13-.47,5.52-1.61,9.99-6.02,11.66-11.52h0Zm14.54,0c-.15,2.18-.29,4.37-.44,6.55-.08-.04-.17-.03-.26.04-.77.67-1.73.05-2.11-.7-.34-.67-.41-1.51-.46-2.23-.1-1.44.05-2.86.4-4.26.08-.29-.39-.43-.47-.12-.5,1.99-.74,4.34-.1,6.33.39,1.23,1.78,2.34,2.96,1.42-.16,2.47-.33,4.95-.5,7.42-.02.31.47.31.48,0,.33-4.81.64-9.63.97-14.44.02-.31-.47-.31-.48,0Zm14.62.82c-.07,6.38,4.84,11.72,11.19,12.22.3.02.3-.45,0-.47-6.09-.48-10.78-5.64-10.71-11.74,0-.31-.47-.31-.47,0h0Zm-1.21,64.02c1.98.73,4.1.74,6.08.03.29-.1.16-.56-.13-.46-1.91.68-3.93.67-5.83-.03-.29-.11-.41.35-.13.46h0Z"/>
        <path class="cls-7" d="m592.85,270.69c15.8,2.12,32.14,1.47,48.91-1.49l.63,7.26c-17.34,3.01-35.41,3.22-50.1.21l.56-5.98Z"/>
        <path class="cls-14" d="m592.85,270.69c15.8,2.12,32.14,1.47,48.91-1.49l.63,7.26c-17.34,3.01-35.41,3.22-50.1.21l.56-5.98Z"/>
        <path class="cls-7" d="m624.73,278.69c.11.7-3.53,27.55,4.31,28.71,7.84,1.16,21.87-2.73,21.97-6.71.1-3.97-2.09-26.4-5.75-26.4s-20.53,4.4-20.53,4.4Z"/>
        <path class="cls-14" d="m624.73,278.69c.11.7-3.53,27.55,4.31,28.71,7.84,1.16,21.87-2.73,21.97-6.71.1-3.97-2.09-26.4-5.75-26.4s-20.53,4.4-20.53,4.4Z"/>
        <path class="cls-26" d="m618.1,275.16c-.43-.12-.87-.2-1.31-.26-.08-1.64-.26-3.21-.62-3.52-.2-.16-.56-.47-6.95-.15-.6.03-1.09.53-1.19,1.22-.88,6.22,0,6.67.38,6.86.61.31,2.64.49,4.52.49,1.43,0,2.76-.1,3.31-.32.09-.04.38-.15.49-.45.09-.24.14-1.6.11-3.12.34.06.68.11,1.01.2.04.01.09.02.13.02.22,0,.42-.15.48-.37.07-.27-.09-.54-.35-.61Zm-2.3,3.42c-.95.33-6.01.32-6.91-.14-.25-.25-.41-2.01.13-5.85.03-.22.16-.36.25-.37h0c2.12-.11,3.71-.15,4.76-.15.81,0,1.29.02,1.46.05.13.37.23,1.46.3,2.66-1.21-.08-2.44.01-3.66.32-.27.07-.43.34-.36.61.07.27.33.43.61.36,1.15-.29,2.31-.37,3.46-.29.04,1.2.04,2.34-.03,2.78Z"/>
        <path class="cls-14" d="m625.57,285.12c.16.04,21.56-2.18,21.56-2.18,0,0-.82-6.59-2.09-7.07-1.27-.48-17.17,1.26-18.24,2.34-1.07,1.08-1.23,6.91-1.23,6.91Z"/>
        <g>
          <path class="cls-15" d="m633.82,261.4l-.99-.11-.03.27-.13,1.25c0,.05,0,.1.03.15l.25.53c.05.12.08.24.06.36l-1.33,12.31.55.06.5.05,1.32-12.29c.01-.13.07-.26.16-.37l.37-.44s.06-.1.07-.15l.13-1.24.03-.27-.99-.11Z"/>
          <path class="cls-7" d="m634.29,275.88l-4.02-.43c-.37-.04-.69.15-.72.43l-.04.41c-.03.28.25.54.62.58h.09c-.42,1.24-.61,2.99-.82,4.93-.13,1.19-.35,2.11-.43,2.93l4.62-.47c.07-.63.13-1.18.22-1.99.21-1.94.4-3.69.25-4.99l-1.83-.2,1.93.21c.37.04.69-.15.73-.43l.04-.41c.03-.28-.25-.54-.62-.58Z"/>
          <polygon class="cls-14" points="630.21 276.88 634.05 277.29 634.08 277.7 630.08 277.31 630.21 276.88"/>
        </g>
        <path class="cls-27" d="m642.82,277.11c-.55-.61-.99-1.09-1.07-1.54l-.11-.67.52-.77c.11-.16.15-.36.12-.55l-.56-3.2-2.95-6.22s-.07-.07-.12-.06l-.37.06-.23.04-.1.02h0s-.11.02-.11.02l-.15.03-.37.06c-.05,0-.09.05-.09.1l-.68,6.85.56,3.2c.03.19.14.36.3.48l.75.55h0l.12.67c.08.45-.17,1.05-.49,1.81-.55,1.33-1.32,3.16-1.08,5.95l1.56-.13c-.2-2.41.45-3.97.97-5.22.4-.95.74-1.78.58-2.68l-.1-.55c-.01-.06.03-.13.1-.14h.06s.09-.03.09-.03c.06-.01.12.03.13.09l.1.56c.16.9.76,1.56,1.45,2.33.91,1,2.05,2.25,2.67,4.59l1.51-.4c-.72-2.7-2.05-4.17-3.02-5.24Zm-3.26-3.85c-.53.09-1.04-.15-1.31-.58-.09-.14-.16-.3-.19-.48-.01-.07-.02-.15-.02-.22,0-.02,0-.05,0-.07,0-.06.01-.11.02-.17,0-.05.02-.09.04-.14,0,0,0,0,0,0,.06-.18.15-.34.26-.47,0-.01.02-.02.03-.03.04-.04.08-.08.12-.11.01-.01.03-.02.04-.03.05-.03.09-.07.14-.09.02-.01.04-.02.06-.03.04-.02.09-.04.13-.06.07-.03.14-.05.22-.06,0,0,0,0,0,0,.71-.12,1.39.34,1.51,1.05.02.09.02.18.02.26-.02.6-.46,1.13-1.07,1.24Z"/>
        <path class="cls-7" d="m646.43,282.95l-2.2.23c-.61-2.3-1.78-3.92-2.68-4.91-.71-.78-1.33-1.46-1.49-2.4l1.98-.34c.07.41.49.87,1.03,1.46.98,1.08,2.72,2.95,3.36,5.97Zm-8.43-6.73c.07.41-.17.99-.48,1.72-.56,1.35-1.46,3.22-1.23,6.05l2.14-.2c-.2-2.37.44-3.91.96-5.15.41-.98.76-1.82.59-2.76l-1.98.34Z"/>
      </g>
      <g>
        <rect class="cls-7" x="543.2" y="257.85" width="121.53" height="42.99"/>
        <rect class="cls-14" x="655.37" y="257.85" width="9.37" height="42.99"/>
        <path class="cls-22" d="m562.43,284.03v-4.42s-2.18,3.64-2.18,3.64h-.77l-2.16-3.54v4.32h-1.6v-7.36h1.41l2.75,4.57,2.71-4.57h1.4l.02,7.36h-1.6Zm8.19-1.58h-3.42l-.65,1.58h-1.75l3.28-7.36h1.68l3.29,7.36h-1.79l-.65-1.58Zm-.54-1.29l-1.17-2.82-1.17,2.82h2.33Zm3.74-4.49h1.7v7.36h-1.7v-7.36Zm10.2,0v7.36h-1.4l-3.67-4.47v4.47h-1.68v-7.36h1.41l3.66,4.47v-4.47h1.68Zm3.27,1.39h-2.35v-1.39h6.41v1.39h-2.35v5.97h-1.7v-5.97Zm10.67,4.6v1.37h-5.7v-7.36h5.56v1.37h-3.87v1.6h3.42v1.32h-3.42v1.7h4Zm8.1-5.99v7.36h-1.4l-3.67-4.47v4.47h-1.68v-7.36h1.41l3.66,4.47v-4.47h1.68Zm6.59,5.78h-3.42l-.65,1.58h-1.75l3.28-7.36h1.68l3.29,7.36h-1.79l-.65-1.58Zm-.54-1.29l-1.17-2.82-1.17,2.82h2.33Zm10.49-4.49v7.36h-1.4l-3.67-4.47v4.47h-1.68v-7.36h1.41l3.66,4.47v-4.47h1.68Zm3.23,7c-.61-.33-1.08-.78-1.43-1.36-.35-.58-.52-1.23-.52-1.96s.17-1.38.52-1.96c.35-.58.82-1.03,1.43-1.36.61-.33,1.29-.49,2.04-.49.64,0,1.21.11,1.73.34.52.22.95.55,1.3.97l-1.09,1.01c-.5-.57-1.11-.86-1.85-.86-.46,0-.86.1-1.22.3-.36.2-.64.48-.83.84-.2.36-.3.76-.3,1.22s.1.86.3,1.22c.2.36.48.64.83.84.36.2.76.3,1.22.3.74,0,1.35-.29,1.85-.87l1.09,1.01c-.35.43-.79.75-1.3.98-.52.22-1.1.34-1.73.34-.75,0-1.43-.16-2.03-.49Zm11.91-1v1.37h-5.7v-7.36h5.56v1.37h-3.87v1.6h3.42v1.32h-3.42v1.7h4Z"/>
      </g>
      <g>
        <path class="cls-25" d="m664.75,272.48s-8.77,1.78-9.65,3.61c-.88,1.83,2.01,1.73,2.01,1.73,0,0-3.18.31-3.23,1.67-.06,1.64,2.97,1.52,2.97,1.52,0,0-2.59.36-2.55,1.57.04,1.27,3.47,1.38,3.47,1.38,0,0-1.77.59-1.27,1.43.5.83,7.78,1.21,9.95-.12,2.16-1.33,2.31-10.69,1.92-12.74-.39-2.05-1.41-3.37-3.63-4.79l.02,4.74h0Z"/>
        <path class="cls-20" d="m657.82,283.96c0-.08.05-.16.13-.16l3.99-.14c.07,0,.14.06.14.15,0,.08-.05.16-.13.16l-3.99.14c-.07,0-.14-.06-.14-.15Zm-.7-5.99s0,0,.01,0l5.52-.8c.07-.01.13-.09.12-.17-.01-.08-.08-.14-.15-.13l-5.52.8c-.07.01-.13.09-.12.17,0,.08.07.14.14.13Zm-.25,3.05c0-.08.05-.16.13-.16l5.36-.34c.09,0,.14.06.14.15,0,.08-.05.16-.13.16l-5.36.34s0,0,0,0c-.07,0-.14-.06-.14-.15Z"/>
      </g>
      <g>
        <path class="cls-25" d="m568.17,257.89s-1.74,8.78-3.56,9.67c-1.82.89-1.74-2-1.74-2,0,0-.29,3.18-1.66,3.24-1.64.07-1.54-2.96-1.54-2.96,0,0-.34,2.59-1.56,2.56-1.27-.03-1.39-3.46-1.39-3.46,0,0-.59,1.78-1.42,1.28-.84-.5-1.25-7.78.08-9.95,1.32-2.17,10.68-2.36,12.73-1.98,2.05.38,3.38,1.4,4.8,3.61h-4.74Z"/>
        <path class="cls-20" d="m562.8,265.54s0,0,0-.01l.77-5.52c.01-.07.09-.13.17-.12.08.01.15.08.13.15l-.77,5.52c-.01.07-.09.13-.17.12-.08,0-.14-.07-.13-.14Zm-3.04.26c.08,0,.16-.05.16-.13l.32-5.36c0-.09-.06-.14-.15-.14-.08,0-.16.05-.16.13l-.32,5.36s0,0,0,0c0,.07.06.14.15.14Zm-2.95-.93c.08,0,.16-.06.16-.13l.12-3.99c0-.07-.06-.14-.15-.14-.08,0-.16.06-.16.13l-.12,3.99c0,.07.06.14.15.14Z"/>
      </g>
      <g>
        <path class="cls-25" d="m627.81,197.4s-.93-5.14,1.74-14.21c0,0-.48-.22-.48-.23.37-1.27.76-2.44,1.13-3.46,0-.03,0-.04,0-.04l-12.45,7.63c.28,2.91-.78,8.51-1.41,10.88,0,0-1.58,4.29,4.12,4.5,4.17.15,7.34-5.07,7.34-5.07Z"/>
        <path class="cls-20" d="m617.52,191.38l7.16-1.59c-.66,2.22-2.63,4.85-7.61,5.05,0,0,.51-2.49.45-3.46Z"/>
        <path class="cls-26" d="m609.24,165.8c-1.47,2.87-2.01,9.19,2.57,7.89,4.58-1.3-.04-12.82-2.57-7.89Z"/>
        <path class="cls-25" d="m630.32,173.63c-.87,7.87-1.2,12.33-5.39,16.16-6.3,5.75-15.67,1.76-17.18-6.23-1.36-7.2.29-18.86,8.18-21.56,7.78-2.65,15.25,3.76,14.38,11.64Z"/>
        <path class="cls-26" d="m632.06,164.39c-.87-4.4-12.05-5.19-15.21-3.11-.47.31,5.83,3.87,5.45,3.71l2.99,1.2c.47-.08,1.37.51,1.77,1.99,0,0-1.56,8.31,1.7,11.98,3.51-1.42,4.51-2.77,5.52-5.59,1.5-4.19-.56-7.67-2.23-10.17Z"/>
        <path class="cls-25" d="m633.12,180.36c-.73,2-2.32,3.47-3.92,4.18-2.41,1.06-4.01-1.02-3.67-3.5.31-2.23,1.94-5.47,4.52-5.48,2.54,0,3.91,2.51,3.07,4.8Z"/>
        <path class="cls-26" d="m618.91,175.36c-.04.81-.5,1.44-1.03,1.41-.53-.03-.93-.71-.89-1.52.04-.81.5-1.44,1.03-1.41.53.03.93.71.89,1.52Zm-8.82-1.74c-.53-.03-.99.6-1.03,1.41s.36,1.49.89,1.52c.53.03.99-.6,1.03-1.41.04-.81-.36-1.49-.89-1.52Z"/>
        <path class="cls-24" d="m613.58,174.81s-2.75,3.89-3.65,5.49c1.08,1.07,3.04.7,3.04.7l.62-6.18Z"/>
        <path class="cls-20" d="m627.71,180.53s-.03,0-.04,0c-.14-.02-.23-.15-.21-.29.12-.72.42-1.4.88-1.97.31-.39.83-.87,1.54-1.01.7-.14,1.42.15,1.76.7.07.12.03.27-.08.34-.12.07-.27.03-.34-.08-.22-.37-.74-.56-1.23-.47-.56.11-.99.52-1.25.84-.41.5-.67,1.1-.78,1.73-.02.12-.13.21-.25.21Z"/>
        <path class="cls-13" d="m620.68,181.13l-6.86,2.38c.41.75.83,1.51,1.42,2.12s1.34.87,2.19.89c1.22.03,2.37-.68,2.87-1.8.5-1.12.51-2.39.38-3.61Z"/>
        <path class="cls-22" d="m614.38,183.32s.47.86.91.98c.43.12,5.48-1.9,5.48-1.9l-.08-1.27-6.31,2.19Z"/>
        <path class="cls-21" d="m616.56,186.41s.34-1.21,1.75-1.79c1.41-.58,2.15-.29,2.15-.29,0,0-.41,1.44-1.74,1.95-1.33.51-2.16.13-2.16.13Z"/>
        <path class="cls-7" d="m608.35,166.81s5.61-11.62,16.3-8.45c10.69,3.17,11.31,9.55,9.83,15.9,0,0-9.95-5.02-14.35-6.61-4.4-1.58-11.78-.84-11.78-.84Z"/>
        <path class="cls-9" d="m608.35,166.81s5.61-11.62,16.3-8.45c10.69,3.17,11.31,9.55,9.83,15.9,0,0-9.95-5.02-14.35-6.61-4.4-1.58-11.78-.84-11.78-.84Z"/>
        <path class="cls-7" d="m614.39,165.21c-6-.44-8.18-.72-13.72.49-.89.19-1.8.44-2.5,1.02-.7.58-1.13,1.58-.78,2.42.23.55.69,1.04,1.25,1.25,1.97.75,6.55,1.58,9.43,1.84l.78-2.75c.4-1.4,1.63-2.42,3.08-2.51,1.97-.12,4.49-.08,6.56.5,4.84,1.35,8.85,2.99,13.34,5.47-3.61-3.05-6.07-4.56-10.7-6.22-1.25-.45-3.16-1.25-6.75-1.51Z"/>
        <path class="cls-7" d="m628.08,158.46c-.35-.39-.9-.57-1.43-.52-.52.05-1.01.31-1.38.68l3.08,1.3c.21-.48.09-1.08-.27-1.46Z"/>
        <path class="cls-26" d="m621.07,171.65c-.12.04-.27.02-.38-.07-1.29-1.11-2.63-.74-2.65-.74-.2.06-.41-.06-.47-.26-.06-.2.06-.41.26-.47.07-.02,1.76-.48,3.35.9.16.14.18.38.04.53-.04.05-.1.09-.16.11Zm-13.08-.17c1.25-1.12,2.55-.78,2.62-.76.2.05.41-.06.46-.27.05-.2-.07-.41-.27-.47-.08-.01-1.76-.47-3.31.92-.16.14-.17.38-.03.54.05.06.12.1.19.12.12.03.25,0,.35-.08Z"/>
      </g>
    </g>
  </g>
  <g id="Character_1" data-name="Character 1">
    <g>
      <path class="cls-23" d="m80.18,316.83h0c-5.41-5.11-5.54-13.77-.29-19.33l2.58-3.16,19.94,18.25-2.92,3.42c-5.26,5.57-13.91,5.94-19.32.83Z"/>
      <g>
        <rect class="cls-26" x="127.49" y="174.36" width="31.1" height="152.35" transform="translate(211 -29.84) rotate(43.35)"/>
        <polygon class="cls-12" points="184.03 184.47 210.12 179.47 206.64 205.82 184.03 184.47"/>
        <path class="cls-7" d="m202.29,180.97l6.79,6.41,1.2-7.46c.06-.36-.26-.66-.62-.59l-7.37,1.63Z"/>
      </g>
      <path class="cls-29" d="m190.78,191.44l-100.35,106.11,9.23,8.71,99.58-107.72s-16.08,7.27-8.46-7.11Z"/>
      <g>
        <path class="cls-26" d="m75.33,303.97h30.2c1.17,0,2.11.95,2.11,2.11v.04c0,1.16-.95,2.11-2.11,2.11h-30.2c-1.17,0-2.11-.95-2.11-2.11v-.04c0-1.16.95-2.11,2.11-2.11Z" transform="translate(234.79 21.43) rotate(43.35)"/>
        <path class="cls-30" d="m75.33,303.97h30.2c1.17,0,2.11.95,2.11,2.11v.04c0,1.16-.95,2.11-2.11,2.11h-30.2c-1.17,0-2.11-.95-2.11-2.11v-.04c0-1.16.95-2.11,2.11-2.11Z" transform="translate(234.79 21.43) rotate(43.35)"/>
      </g>
      <g>
        <path class="cls-26" d="m103.04,315.08l-21.96-20.73c-.85-.8-.89-2.14-.09-2.99l.02-.03c.8-.85,2.14-.89,2.99-.09l21.96,20.73c.85.8.89,2.14.09,2.99l-.02.03c-.8.85-2.14.89-2.99.09Z"/>
        <path class="cls-29" d="m103.04,315.08l-21.96-20.73c-.85-.8-.89-2.14-.09-2.99l.02-.03c.8-.85,2.14-.89,2.99-.09l21.96,20.73c.85.8.89,2.14.09,2.99l-.02.03c-.8.85-2.14.89-2.99.09Z"/>
      </g>
      <g>
        <path class="cls-26" d="m105.8,312.15l-21.96-20.73c-.85-.8-.89-2.14-.09-2.99l.02-.03c.8-.85,2.14-.89,2.99-.09l21.96,20.73c.85.8.89,2.14.09,2.99l-.02.03c-.8.85-2.14.89-2.99.09Z"/>
        <path class="cls-30" d="m105.8,312.15l-21.96-20.73c-.85-.8-.89-2.14-.09-2.99l.02-.03c.8-.85,2.14-.89,2.99-.09l21.96,20.73c.85.8.89,2.14.09,2.99l-.02.03c-.8.85-2.14.89-2.99.09Z"/>
      </g>
      <path class="cls-12" d="m184.03,184.47c-1.42,1.82-2.45,3.74-3.14,5.75-.18.53-.32,1.12-.09,1.62.37.79,1.43.91,2.31.88,2.89-.1,4.94-.35,7.67-1.28-.95,1.78-2.01,3.45-3.06,5.54-.35.69-.68,1.49-.42,2.22.37,1.06,1.7,1.38,2.82,1.42,3.77.15,4.7-.52,8.84-1.74,1.09.47-.07,2.4-.61,4.47-.64,2.47.09,4.71,2.23,4.59,1.6-.08,5.04-.9,6.06-2.12"/>
    </g>
    <g>
      <path class="cls-8" d="m126.11,228.93c-.4-.01-3.19,17.72-3,18.24.69,1.92,21.15-2.36,21.15-2.36l1.29,5.47s-8.94,4.34-18.55,5.91c-9.92,1.62-13.63-2.77-13.68-9.5-.04-6.17,2.51-21.16,2.51-21.16l10.27,3.41Z"/>
      <g>
        <path class="cls-8" d="m173.81,325.31c-2.88-28.01-6.14-44.17-7.71-50.93,0,0,0,0,0,0,0,0,0,0,0,0-.59-2.54-.94-3.76-.94-3.76l-.2.06c-1.79-5.7-2.61-7.45-4.55-10.65l-31.38,4.41c-4.64,6.08-5.17,15.55-4.85,25.62.85,15.75,4.53,39.11,4.89,44.42.02,0,.35,0,.37,0-.02,4.07-2.56,17.77-2.56,23.87-.01,20.79,2.44,53.41,2.44,53.41l1.89,5.61,6.38-4.83s10.99-72.98,11.12-77.31c.02-.48.03-.97.06-1.47l.43-7.56c.12-1.85.26-3.76.39-5.7l4.69,14.55c-2.74,11.9-5.85,49.17-3.91,79.1l8.32-1.18,12.19-62.29c1.22-6.88,3.69-18,2.93-25.36Z"/>
        <path class="cls-26" d="m138.59,411.47h-2.7c-.61,0-1.17.31-1.54.8-1.56,2.12-2.72,1.32-4.42-.68-1.08-.13-1.37,1.11-1.45,1.44l-2.02,7.33c-.18.61.18,1.25.79,1.43.11.03.22.05.34.04h21.37c3.4,0,4.1-3.43,2.7-3.74-6.3-1.39-10.75-3.24-12.7-5.08-.36-.32,0-.56-.38-1.55Z"/>
        <path class="cls-7" d="m144.44,413.56c.28-.2.45-.53.46-.88.02-.19-.06-.37-.22-.48-.85-.6-4.22.98-4.6,1.16-.04.02-.08.05-.09.09-.03.08.01.16.09.19.83.2,1.68.31,2.53.33.64.06,1.28-.08,1.83-.41Zm.03-1.1c.07.04.1.12.09.2-.01.25-.14.49-.33.64-.77.57-2.62.33-3.61.14,1.4-.62,3.39-1.31,3.86-.99Zm-4.27,1.22c1.01-.42,3.13-2.09,3.02-2.97-.02-.18-.15-.4-.61-.47-1.85-.21-2.64,3.11-2.64,3.25-.02.06,0,.12.04.16.03.01.07.01.11,0l.08.03Zm2.35-3.16c.34.04.34.16.34.2.1.54-1.44,1.92-2.54,2.5.23-.77.91-2.71,2.08-2.71h.12Zm-4.38,4.76s-.09-.01-.13-.04c-.12-.07-.15-.23-.08-.34.54-.86,1.46-1.45,2.47-1.59.13-.01.26.08.28.21.02.14-.08.26-.21.28-.86.12-1.65.63-2.11,1.36-.05.08-.13.12-.21.12Zm1.68,1.26s-.09-.01-.13-.04c-.12-.07-.15-.23-.08-.34.54-.86,1.46-1.45,2.47-1.59.13-.02.26.08.28.21.02.14-.08.26-.21.28-.86.12-1.65.63-2.11,1.36-.05.08-.13.12-.21.12Zm2.09,1.06s-.09-.01-.13-.04c-.12-.07-.15-.23-.08-.35.54-.86,1.46-1.45,2.47-1.59.13-.01.26.08.28.21.02.14-.08.26-.21.28-.86.12-1.65.63-2.11,1.36-.05.08-.13.12-.21.12Z"/>
        <polygon class="cls-14" points="148.4 417.29 148.23 421.8 145.65 421.8 147.07 416.91 148.4 417.29"/>
        <path class="cls-26" d="m159.1,411.63h-2.7c-.61,0-1.17.31-1.54.8-1.56,2.12-2.72,1.32-4.42-.68-1.08-.13-1.37,1.11-1.45,1.44l-2.02,7.33c-.18.61.18,1.25.79,1.43.11.03.22.05.34.04h21.37c3.4,0,4.1-3.43,2.7-3.74-6.3-1.39-10.75-3.24-12.7-5.08-.36-.32,0-.56-.38-1.55Z"/>
        <g>
          <path class="cls-7" d="m162.9,414.94c-.02-.14-.15-.23-.28-.21-1.01.14-1.93.73-2.47,1.59-.07.12-.04.27.08.34.04.03.09.04.13.04.08,0,.16-.04.21-.12.46-.73,1.25-1.24,2.11-1.36.14-.02.23-.15.21-.28Z"/>
          <path class="cls-7" d="m164.7,415.79c-1,.14-1.93.73-2.47,1.59-.07.12-.04.27.08.35.04.03.09.04.13.04.08,0,.16-.04.21-.12.46-.74,1.25-1.24,2.11-1.36.14-.02.23-.15.21-.28-.02-.14-.15-.23-.28-.21Z"/>
          <path class="cls-7" d="m165.19,412.36c-.48-.34-1.76.02-2.86.42.78-.64,1.46-1.41,1.4-1.91-.02-.18-.15-.41-.61-.47-1.72-.2-2.52,2.66-2.63,3.17.02,0,.04-.01.06-.02-.02.02-.04.03-.05.05-.03.08.01.16.09.19.04.01.09.01.14.02.13-.06.28-.13.43-.22-.01,0-.03,0-.04,0,.01,0,.03-.01.04-.02,0,0,0,.01.01.02.04-.02.07-.05.11-.07,1.39-.6,3.25-1.23,3.7-.92.07.04.1.12.09.2-.01.25-.14.49-.33.64-.75.56-2.55.33-3.55.15.01.02.04.04.04.07.01.09-.04.17-.11.22.66.13,1.33.22,2.01.23.64.06,1.28-.08,1.83-.41.28-.2.45-.53.46-.88.02-.19-.06-.37-.22-.48Zm-2.25-1.69h.12c.34.04.34.17.34.21.1.54-1.44,1.92-2.54,2.5.23-.77.91-2.71,2.08-2.71Z"/>
          <path class="cls-7" d="m161.18,413.61s0,0-.01,0c0,0,.01,0,.02,0,0,0,0,0,0,0Z"/>
          <path class="cls-7" d="m160.71,413.84l-.08-.03s-.07.01-.11,0c-.05-.04-.06-.1-.04-.16,0,0,0-.04.01-.08-.83.23-1.56.75-2.02,1.48-.07.12-.04.27.08.34.04.03.09.04.13.04.08,0,.16-.04.21-.12.46-.73,1.25-1.24,2.11-1.36.04,0,.07-.04.11-.06-.13-.02-.26-.04-.38-.07,0,0-.01,0-.02.01Z"/>
        </g>
        <path class="cls-9" d="m129.29,336.67l.14-2.19h19.3l-.36,3.84-19.08-1.66Zm24.8-2.19l.18.56-.72,3.66,19.17,1.78.84-5.99h-19.47Z"/>
      </g>
      <path class="cls-7" d="m127.81,261.71s-7.2,17.37-5.91,29.42c1.29,12.08,3.89,43.35,3.89,43.35h50.22s-1.19-18.2-2.64-27.39c-1.45-9.19-4.97-31.86-9.78-40.84-4.81-8.98-35.78-4.54-35.78-4.54Z"/>
      <path class="cls-9" d="m148.99,318.42c-3.28-14.43-8.91-18.4-11.05-20.93l12.8,28.6-1.75-7.66Z"/>
      <path class="cls-7" d="m159.03,234.86c.1-.98.18-1.93.25-2.88l8.95-1.69s-1.52-6.45-5.41-13.84c-.77-1.46-2.06-2.59-3.62-3.16-.77-.28-1.46-.56-2.07-.82-1.25-.77-2.91-1.41-5.08-2.11-3.2-1.05-6.95-1.88-6.95-1.88l-9.74-.53s-11.97,2.78-16.54,6.58c-3.46,1.89-5.08,14.17-5.08,14.17l8.76,3.8c.82,2.65,3.49,12.94,3.71,13.87,1.29,5.34,1.43,6.61,1.69,9.66-.36,2.39-2.26,8.8-3.06,11.24,0,0,12.51,11.92,40.15.4l-4.76-12.5c-.83-5.12-1.5-17.34-1.2-20.32Z"/>
      <path class="cls-10" d="m159.03,234.86c.1-.98.18-1.93.25-2.88l8.95-1.69s-1.52-6.45-5.41-13.84c-.77-1.46-2.06-2.59-3.62-3.16-.77-.28-1.46-.56-2.07-.82-1.25-.77-2.91-1.41-5.08-2.11-3.2-1.05-6.95-1.88-6.95-1.88l-9.74-.53s-11.97,2.78-16.54,6.58c-3.46,1.89-5.08,14.17-5.08,14.17l8.76,3.8c.82,2.65,3.49,12.94,3.71,13.87,1.29,5.34,1.43,6.61,1.69,9.66-.36,2.39-2.26,8.8-3.06,11.24,0,0,12.51,11.92,40.15.4l-4.76-12.5c-.83-5.12-1.5-17.34-1.2-20.32Z"/>
      <path class="cls-8" d="m189.05,223.38s-1.72,1.95-2.63,2.29c-.66.24-3.11.64-4.41.56-1.38-.08-1.41-2.23-1.41-2.23h-.52s-1.08.8-1.55,1.9c-.43,1.02.31,4.19.89,5.07l-.43.62-.08-.03-7.62,10.04-4.41-11.05-10.64,2s4.89,12.94,7.83,18.36c3.2,5.92,8.51,7.39,12.44-1.07,1.7-3.65,3.6-7.28,5.16-10.14l.03.05,3.98-7.15s3.33-5.25,3.37-6.29l-.13-.4s.49-.55.58-1.34c.09-.79-.45-1.19-.45-1.19Z"/>
      <path class="cls-25" d="m134.75,194.71c.86,4.28,2.8,12.83-.15,15.69,0,0,1.19,4.28,9.09,4.28,8.68,0,4.12-4.28,4.12-4.28-4.75-1.13-4.65-4.64-3.84-7.94l-9.22-7.75Z"/>
      <path class="cls-26" d="m152.64,186.87c-.11,0-.21-.04-.28-.12-.15-.15-.15-.39,0-.54.89-.86,2.13-1.24,3.34-1.04.2.05.33.25.28.45,0,0,0,0,0,.01-.04.2-.24.34-.45.29,0,0,0,0,0,0-.96-.17-1.95.14-2.64.83-.06.07-.15.11-.24.11Z"/>
      <path class="cls-6" d="m153.82,191.82c.23,1.59.68,3.14,1.34,4.61-.77.32-1.64.27-2.37-.12l1.04-4.49Z"/>
      <path class="cls-26" d="m155.96,189.53l-1.63.08s.02.01.02.03c-.37,0-.72.38-.87.96-.15.64.08,1.24.49,1.34.42.1.87-.34.97-.97.06-.37.01-.72-.11-.97.53.1,1.12-.46,1.12-.46Z"/>
      <path class="cls-8" d="m132.6,183.33c-1.33,7.95-2.05,11.29.97,16.25,4.55,7.45,14.59,7.4,18.25,0,3.3-6.64,4.91-18.52-2.02-23.45-4.88-3.53-11.71-2.44-15.25,2.44-1.02,1.41-1.69,3.04-1.95,4.76Z"/>
      <path class="cls-26" d="m142.37,172.36c6.64-2.73,13.56-.9,14.23,6,.67,6.9-7.1,13.47-7.1,13.47l-7.13-19.46Z"/>
      <path class="cls-8" d="m145.57,190.26c-.18,1.55.25,3.11,1.21,4.35,1.29,1.62,3.13.77,3.78-1.08.59-1.66.62-4.5-1.15-5.46-1.29-.67-2.88-.16-3.55,1.14-.17.33-.27.69-.29,1.05Z"/>
      <path class="cls-14" d="m148.84,194.28c-.06,0-.11-.02-.16-.06-.83-.67-1.33-1.75-1.31-2.82,0-.44.1-.79.29-1.07.25-.38.67-.58,1.07-.53.14.02.23.14.22.28-.02.14-.15.23-.28.22-.21-.03-.44.1-.59.31-.13.2-.2.46-.2.8-.02.92.41,1.84,1.12,2.42.11.09.12.24.04.35-.05.06-.12.09-.19.09Z"/>
      <path class="cls-14" d="m119.7,218.37c.05.17,1.92,11.13,5.73,12.14,1.81.48,16.35.21,16.35.21l1.29-2.02,2.19,2.02h9.24l-5.28-9.19.54-15.01-30.05,11.86Z"/>
      <path class="cls-26" d="m148.09,191.61c3.26-6.21,1.41-17.44-5.8-19.55-6.48-1.89-16.76.05-16.38,11.65.39,11.61-2.32,10.39-5.25,17.84-3.07,7.82-2.17,18.12,3.03,26.56h14.36l2.62-3.77,3.1,3.77h12.47c-6.15-8.54-2.48-11.87-1.73-19.62.75-7.75-9.23-11.55-6.42-16.89Z"/>
      <path class="cls-7" d="m133.32,174.2c-.38-.89-1.16-1.69-2.13-1.75-.5-.03-.98.13-1.45.29l-.09.61c-.38.96-1.15,1.7-1.73,2.55-.58.85-.97,2-.47,2.9.37.68,1.15,1.04,1.92,1.13,1.39.15,2.83-.56,3.61-1.72s.9-2.73.34-4.02Z"/>
      <path class="cls-26" d="m131.64,178.54c.47-1.04.8-3.4.58-4.29-.32-1.3-1.24-2.39-2.29-3.23-.53-.43-1.11-.81-1.76-1.02-1.06-.36-2.22-.26-3.31-.02-1.24.28-2.47.75-3.37,1.65-1.22,1.21-1.65,3.16-1.06,4.78s2.17,2.82,3.89,2.97c-1.07.31-2.1.8-3.01,1.44-.08.06-.17.13-.18.22,0,.09.06.18.12.24.56.58,1.43.8,2.24.75s1.59-.32,2.35-.6c-.24.78-.47,1.57-.71,2.35-.07.24-.15.5-.08.74.15.55.89.67,1.45.57,1.72-.31,3.13-1.62,3.97-3.15.58-1.06.92-2.22,1.17-3.4Z"/>
    </g>
  </g>
</svg>